<svg width="325" height="91" xmlns:xlink="http://www.w3.org/1999/xlink" xmlns="http://www.w3.org/2000/svg"><defs><path d="M0 91h324.669V0H0v91z" id="a"/><clipPath id="b"><use xlink:href="#a"/></clipPath></defs><path d="M96.72 40.095c-.544-1.3-.95-1.551-1.794-1.79-.353-.093-.727-.093-.91-.093-.213 0-.287-.07-.287-.213 0-.188.256-.21.612-.21 1.249 0 2.59.069 3.41.069.588 0 1.72-.069 2.898-.069.282 0 .537.046.537.21 0 .164-.14.213-.347.213-.383 0-.732.023-.92.162-.167.12-.238.285-.238.496 0 .305.213.964.545 1.81l4.043 10.684h.095c1.01-2.588 4.07-10.16 4.634-11.723.119-.299.215-.65.215-.863 0-.196-.096-.379-.31-.45-.285-.093-.638-.116-.937-.116-.21 0-.403-.025-.403-.188 0-.19.211-.235.659-.235 1.176 0 2.162.069 2.47.069.4 0 1.507-.069 2.214-.069.307 0 .495.046.495.21 0 .164-.144.213-.376.213-.238 0-.732 0-1.15.281-.31.208-.667.614-1.3 2.117-.916 2.213-1.554 3.483-2.82 6.38-1.507 3.433-2.618 5.999-3.132 7.172-.615 1.367-.755 1.744-1.08 1.744-.31 0-.448-.332-.894-1.437L96.72 40.095zm18.613 6.135c0-3.033 0-3.599-.02-4.232-.056-.68-.269-.915-.707-1.06a2.76 2.76 0 0 0-.754-.09c-.214 0-.333-.049-.333-.24 0-.115.166-.159.493-.159.779 0 2.188.044 2.776.044.517 0 1.866-.044 2.66-.044.26 0 .427.044.427.16 0 .19-.119.239-.332.239-.21 0-.378.022-.614.067-.564.092-.73.376-.774 1.083-.049.633-.049 1.2-.049 4.233v3.53c0 1.93 0 3.536.093 4.378.075.543.216.846.83.94.276.053.745.074 1.056.074.233 0 .327.119.327.208 0 .144-.162.212-.403.212-1.355 0-2.77-.068-3.338-.068-.471 0-1.88.068-2.705.068-.258 0-.4-.068-.4-.212 0-.09.072-.208.327-.208.308 0 .545-.02.733-.074.418-.094.537-.372.61-.96.097-.822.097-2.428.097-4.358v-3.53zm8.843 7.439c-2.045-1.713-2.585-3.975-2.585-5.908 0-1.362.446-3.711 2.423-5.48 1.508-1.316 3.477-2.117 6.562-2.117 1.296 0 2.074.091 3.017.21.775.12 1.457.26 2.07.33.234.023.304.117.304.236 0 .167-.05.4-.094 1.107-.05.66-.05 1.762-.075 2.165-.018.282-.095.494-.28.494-.161 0-.212-.167-.212-.425a2.823 2.823 0 0 0-.798-1.856c-.707-.681-2.096-1.176-4-1.176-1.816 0-2.964.327-3.906 1.125-1.534 1.316-1.906 3.25-1.906 5.201 0 4.753 3.672 7.014 6.45 7.014 1.828 0 2.844-.142 3.665-1.06.355-.405.637-.966.707-1.34.049-.31.097-.403.262-.403.137 0 .233.19.233.352 0 .239-.233 1.982-.446 2.664-.096.353-.19.446-.545.585-.821.333-2.398.449-3.736.449-2.827 0-5.224-.588-7.11-2.167m19.841-11.999l-3.083.074c-1.2.023-1.694.162-2.001.61-.208.28-.305.54-.358.68-.04.164-.09.258-.233.258-.135 0-.188-.114-.188-.33 0-.329.403-2.258.451-2.42.046-.26.12-.378.233-.378.163 0 .378.167.896.236.61.069 1.39.094 2.068.094h8.4a8.76 8.76 0 0 0 1.414-.094c.327-.048.491-.094.567-.094.135 0 .16.114.16.421 0 .426-.047 1.906-.047 2.426-.019.213-.072.327-.189.327-.164 0-.21-.094-.232-.4l-.023-.209c-.049-.516-.591-1.127-2.45-1.153l-2.612-.048v8.09c0 1.838.025 3.42.119 4.284.069.565.185.94.798 1.036.286.053.753.074 1.063.074.232 0 .324.119.324.208 0 .142-.164.212-.399.212-1.362 0-2.747-.07-3.335-.07-.476 0-1.883.07-2.709.07-.264 0-.4-.07-.4-.212 0-.09.073-.208.327-.208.306 0 .57-.02.727-.074.426-.096.545-.47.615-1.059.097-.841.097-2.423.097-4.26v-8.09zm23.648 6.703c0-4.42-2.66-7.153-6.001-7.153-2.307 0-5.014 1.228-5.014 6.165 0 4.115 2.352 7.365 6.26 7.365 1.458 0 4.755-.676 4.755-6.377m-14.071-.378c0-3.409 2.4-7.83 8.686-7.83 5.221 0 8.462 2.89 8.462 7.478 0 4.586-3.34 8.192-8.676 8.192-6.027 0-8.472-4.283-8.472-7.84m22.239-.211c0 .213.041.284.185.36.446.137 1.06.185 1.577.185.818 0 1.101-.068 1.462-.332.632-.446 1.335-1.316 1.335-2.963 0-2.821-1.923-3.554-3.147-3.554-.523 0-1.016.024-1.227.074-.144.043-.185.117-.185.281v5.949zm-2.641-1.552c0-3.036 0-3.599-.022-4.231-.041-.683-.234-.893-.893-1.084-.162-.047-.517-.067-.826-.067-.211 0-.352-.074-.352-.216 0-.14.164-.185.47-.185 1.086 0 2.401.046 2.824.046.708 0 2.588-.046 3.227-.046 1.316 0 2.818.114 3.929.842.588.402 1.455 1.416 1.455 2.757 0 1.48-.844 2.804-2.87 4.423 1.838 2.255 3.29 4.068 4.545 5.318 1.15 1.153 1.88 1.251 2.213 1.315.208.051.327.051.491.051.16 0 .254.12.254.207 0 .168-.135.213-.398.213h-1.975c-1.153 0-1.718-.119-2.26-.397-.892-.45-1.668-1.39-2.824-2.946-.821-1.08-1.692-2.418-1.952-2.724-.116-.12-.233-.143-.378-.143l-1.857-.05c-.094 0-.16.05-.16.17v.276c0 1.863.018 3.417.114 4.258.071.59.165.966.798 1.06.307.056.756.076 1.012.076.168 0 .256.12.256.207 0 .143-.163.213-.418.213-1.202 0-2.918-.07-3.227-.07-.398 0-1.713.07-2.537.07-.261 0-.4-.07-.4-.213 0-.088.07-.207.33-.207.303 0 .539-.02.727-.076.423-.094.544-.47.608-1.06.096-.84.096-2.42.096-4.258v-3.529zm17.318-.002c0-3.033 0-3.599-.02-4.232-.046-.68-.256-.915-.71-1.06a2.675 2.675 0 0 0-.747-.09c-.214 0-.336-.049-.336-.24 0-.115.17-.159.497-.159.776 0 2.187.044 2.777.044.519 0 1.857-.044 2.659-.044.26 0 .424.044.424.16 0 .19-.116.239-.327.239-.217 0-.374.022-.615.067-.563.092-.727.376-.773 1.083-.048.633-.048 1.2-.048 4.233v3.53c0 1.93 0 3.536.094 4.378.073.543.21.846.82.94.284.053.756.074 1.06.074.236 0 .33.119.33.208 0 .144-.166.212-.4.212-1.367 0-2.774-.068-3.339-.068-.475 0-1.886.068-2.707.068-.26 0-.4-.068-.4-.212 0-.09.07-.208.33-.208.303 0 .541-.02.732-.074.423-.094.54-.372.605-.96.094-.822.094-2.428.094-4.358v-3.53zm15.842 3.2c.091 0 .119-.045.091-.116l-1.952-5.084c-.022-.064-.048-.183-.094-.183-.073 0-.093.119-.116.183l-2.005 5.063c-.044.092 0 .138.076.138h4zm-4.428 1.111c-.119 0-.14.02-.183.14l-1.11 2.679c-.21.502-.302.99-.302 1.229 0 .35.186.562.82.562h.308c.256 0 .307.094.307.208 0 .17-.114.213-.33.213-.681 0-1.652-.069-2.308-.069-.213 0-1.319.069-2.4.069-.262 0-.376-.043-.376-.213 0-.114.073-.208.233-.208.193 0 .426-.017.614-.017.94-.15 1.292-.759 1.716-1.774l5.41-12.585c.237-.565.398-.798.614-.798.305 0 .403.187.617.633.489 1.105 3.948 9.295 5.266 12.328.8 1.813 1.39 2.072 1.767 2.14.305.056.54.073.773.073.187 0 .284.072.284.208 0 .17-.117.213-.897.213-.73 0-2.233 0-3.972-.043-.378-.026-.611-.026-.611-.17 0-.114.04-.183.256-.208.144-.017.284-.213.188-.443l-1.602-4.028c-.044-.12-.116-.139-.21-.139h-4.872zM103.63 69.06c-.588.348-1.462.589-2.216.589-.75 0-1.627-.241-2.23-.588-.811-.48-1.122-1.269-1.122-2.811v-4.605h1.221v4.817c0 1.415.735 2.148 2.131 2.148 1.403 0 2.135-.733 2.135-2.148v-4.817h1.221v4.605c0 1.542-.312 2.332-1.14 2.81m9.482.454l-4.395-5.614c-.26-.337-.358-.499-.406-.713v6.229h-1.143v-7.771h1.24l4.394 5.532c.145.16.274.471.31.712v-6.244h1.12v7.87h-1.12z" fill="#472A2B"/><path d="M0 91h324.669V0H0v91z" fill="none"/><g clip-path="url(#b)"><path d="M116.894 69.416h1.24v-7.771h-1.24v7.77zm7.099.196h-.653l-3.381-7.971h1.333l2.34 5.614a.772.772 0 0 1 .078.358c.02-.15.035-.229.096-.358l2.185-5.614h1.336l-3.334 7.97zm5.149-.196v-7.771h4.82v1.018h-3.581v2.248h2.958v1.03h-2.958v2.456h3.677v1.019h-4.916zm10.676-6.54c-.266-.193-.363-.213-1.26-.213h-1.22v2.56h1.22c.798 0 .96-.035 1.3-.327.3-.264.43-.57.43-.996 0-.453-.166-.791-.47-1.024zm.696 6.54l-2.055-3.17h-1.12v3.17h-1.235v-7.771h2.622c1.87 0 2.894.78 2.894 2.213 0 1.2-.73 2.113-1.822 2.29l2.146 3.268h-1.43zm7.965-6.23c-.404-.277-.58-.342-.973-.472a4.077 4.077 0 0 0-1.089-.167c-.996 0-1.596.362-1.596.966 0 .161.032.307.096.405.231.343.484.485 2.005 1.222 1.463.715 1.934 1.25 1.934 2.21 0 1.384-1.07 2.218-2.831 2.218-.583 0-1.14-.086-1.594-.249-.327-.128-.55-.242-1.108-.585l.557-1.059c.485.362.698.491 1.004.621.39.162.847.26 1.288.26.91 0 1.45-.39 1.45-1.039 0-.519-.264-.866-.88-1.157l-1.417-.685c-1.188-.573-1.723-1.222-1.723-2.048 0-1.293 1.102-2.12 2.828-2.12.51 0 1.009.065 1.45.198.358.1.553.193 1.042.462l-.443 1.019zm2.861 6.23h1.238v-7.771h-1.237v7.77zm6.915-6.752v6.752h-1.22v-6.752h-2.772v-1.02h6.759v1.02h-2.767zm7.903 3.277v3.475h-1.222V65.94l-2.76-4.296h1.43l2.045 3.173 2.05-3.173h1.438l-2.981 4.296zm13.045-3.406c-1.71 0-3.011 1.287-3.011 2.996 0 1.706 1.302 3.009 3.01 3.009 1.707 0 3-1.303 3-3.01 0-1.708-1.293-2.995-3-2.995m0 7.034c-2.51 0-4.311-1.694-4.311-4.038 0-2.327 1.802-4.035 4.312-4.035 2.488 0 4.314 1.708 4.314 4.035 0 2.344-1.826 4.038-4.314 4.038m7.577-6.905v2.367h2.959v1.018h-2.959v3.367h-1.236v-7.771h4.818v1.019h-3.582zm13.045 0v6.752H198.6v-6.752h-2.762v-1.02h6.751v1.02h-2.764zm7.807-.129c-1.713 0-3.01 1.287-3.01 2.996 0 1.706 1.297 3.009 3.01 3.009 1.709 0 2.991-1.303 2.991-3.01 0-1.708-1.282-2.995-2.99-2.995m0 7.034c-2.51 0-4.315-1.694-4.315-4.038 0-2.327 1.804-4.035 4.314-4.035 2.486 0 4.313 1.708 4.313 4.035 0 2.344-1.827 4.038-4.313 4.038m10.046-6.693c-.26-.193-.357-.213-1.252-.213h-1.22v2.56h1.22c.796 0 .96-.035 1.305-.327.292-.264.418-.57.418-.996 0-.453-.16-.791-.47-1.024zm.702 6.54l-2.055-3.17h-1.118v3.17h-1.24v-7.771h2.624c1.873 0 2.894.78 2.894 2.213 0 1.2-.732 2.113-1.822 2.29l2.149 3.268h-1.432zm6.819-6.881c-1.712 0-3.014 1.287-3.014 2.996 0 1.706 1.302 3.009 3.014 3.009 1.706 0 2.988-1.303 2.988-3.01 0-1.708-1.282-2.995-2.988-2.995m0 7.034c-2.512 0-4.32-1.694-4.32-4.038 0-2.327 1.808-4.035 4.32-4.035 2.488 0 4.306 1.708 4.306 4.035 0 2.344-1.818 4.038-4.306 4.038m11.95-.055l-4.395-5.614c-.26-.337-.357-.499-.406-.713v6.229h-1.138v-7.771h1.237l4.393 5.532c.145.16.276.471.309.712v-6.244h1.12v7.87h-1.12zm6.469-6.85v6.752H242.4v-6.752h-2.77v-1.02h6.748v1.02h-2.761zm7.805-.129c-1.708 0-3.01 1.287-3.01 2.996 0 1.706 1.302 3.009 3.01 3.009 1.71 0 2.997-1.303 2.997-3.01 0-1.708-1.287-2.995-2.997-2.995m0 7.034c-2.504 0-4.31-1.694-4.31-4.038 0-2.327 1.806-4.035 4.31-4.035 2.492 0 4.32 1.708 4.32 4.035 0 2.344-1.828 4.038-4.32 4.038M225.216 53.34c-2.3-2.025-2.912-4.658-2.912-6.942 0-1.6.494-4.375 2.753-6.448 1.69-1.55 3.928-2.497 7.432-2.497 1.461 0 2.331.099 3.416.238.892.122 1.645.333 2.349.4.264.027.356.143.356.282 0 .188-.074.475-.122 1.295-.046.78-.023 2.077-.069 2.543-.02.357-.073.54-.284.54-.19 0-.23-.183-.23-.515a3.367 3.367 0 0 0-.925-2.17c-.77-.82-2.609-1.455-4.769-1.455-2.052 0-3.39.52-4.425 1.456-1.718 1.578-2.164 3.815-2.164 6.095 0 5.602 4.263 8.377 7.411 8.377 2.09 0 3.367-.232 4.301-1.318.403-.445.705-1.127.8-1.556.078-.375.12-.466.309-.466.167 0 .21.164.21.352 0 .283-.284 2.33-.518 3.13-.116.398-.21.515-.61.679-.94.38-2.728.546-4.235.546-3.225 0-5.924-.71-8.074-2.566m29.159-4.967c0-4.42-2.656-7.15-6.004-7.15-2.301 0-5.007 1.225-5.007 6.165 0 4.112 2.354 7.362 6.26 7.362 1.454 0 4.751-.676 4.751-6.377m-14.07-.375c0-3.412 2.401-7.834 8.677-7.834 5.231 0 8.473 2.891 8.473 7.479 0 4.586-3.339 8.192-8.684 8.192-6.017 0-8.465-4.283-8.465-7.837m22.658 1.763c0 2.567 0 3.837.45 4.215.351.307 1.152.426 2.752.426 1.106 0 1.905-.025 2.425-.566.258-.263.472-.826.512-1.203.028-.188.079-.305.238-.305.145 0 .188.211.188.449 0 .233-.136 1.714-.31 2.302-.134.45-.23.55-1.315.55-1.48 0-2.684-.03-3.715-.074-1.038-.025-1.907-.05-2.753-.05-.236 0-.685.025-1.174.025-.496.025-1.014.043-1.434.043-.262 0-.403-.068-.403-.212 0-.09.068-.208.332-.208.304 0 .54-.019.724-.074.429-.094.543-.47.613-1.06.095-.842.095-2.42.095-4.258v-3.53c0-3.035 0-3.6-.023-4.233-.048-.677-.236-.89-.895-1.078-.164-.05-.423-.073-.684-.073-.234 0-.35-.069-.35-.213 0-.14.137-.185.443-.185.969 0 2.285.046 2.85.046.493 0 2.189-.046 2.99-.046.307 0 .447.046.447.185 0 .144-.122.213-.378.213-.236 0-.563.023-.799.073-.563.09-.732.373-.775 1.078-.05.633-.05 1.198-.05 4.233v3.53zm12.8 0c0 2.567 0 3.837.449 4.215.352.307 1.148.426 2.753.426 1.102 0 1.905-.025 2.425-.566.254-.263.467-.826.515-1.203.025-.188.07-.305.236-.305.139 0 .19.211.19.449 0 .233-.141 1.714-.307 2.302-.14.45-.236.55-1.318.55-1.483 0-2.684-.03-3.718-.074-1.034-.025-1.907-.05-2.753-.05-.235 0-.684.025-1.178.025-.493.025-1.012.043-1.435.043-.259 0-.4-.068-.4-.212 0-.09.073-.208.334-.208.304 0 .54-.019.722-.074.427-.094.543-.47.616-1.06.097-.842.097-2.42.097-4.258v-3.53c0-3.035 0-3.6-.03-4.233-.044-.677-.232-.89-.893-1.078-.16-.05-.42-.073-.679-.073-.237 0-.356-.069-.356-.213 0-.14.142-.185.449-.185.966 0 2.282.046 2.845.046.493 0 2.192-.046 2.995-.046.302 0 .443.046.443.185 0 .144-.119.213-.377.213a4.31 4.31 0 0 0-.799.073c-.57.09-.73.373-.778 1.078-.048.633-.048 1.198-.048 4.233v3.53zm10.028-3.529c0-3.033 0-3.6-.028-4.233-.043-.679-.235-.889-.893-1.08-.164-.048-.513-.07-.824-.07-.21 0-.352-.069-.352-.214 0-.141.168-.184.471-.184 1.082 0 2.4.043 2.99.043.659 0 5.244.022 5.644 0 .38-.023.705-.094.872-.12.12-.02.234-.093.327-.093.117 0 .145.093.145.19 0 .142-.116.378-.165 1.295-.021.21-.073 1.078-.119 1.313-.024.1-.068.332-.236.332-.14 0-.165-.094-.165-.259 0-.14-.023-.488-.14-.727-.164-.355-.33-.636-1.363-.733-.354-.045-2.827-.095-3.246-.095-.094 0-.143.075-.143.192v4.943c0 .119.027.207.143.207.468 0 3.152 0 3.624-.043.491-.045.798-.1.986-.31.164-.136.233-.257.33-.257.093 0 .16.095.16.215 0 .116-.045.446-.16 1.455a19.75 19.75 0 0 0-.097 1.34c0 .17-.02.447-.213.447-.14 0-.185-.068-.185-.163-.023-.207-.023-.47-.069-.727-.121-.4-.38-.71-1.16-.778-.373-.045-2.723-.094-3.24-.094-.092 0-.119.094-.119.213v1.6c0 .68-.03 2.374 0 2.964.049 1.367.68 1.669 2.796 1.669.544 0 1.415-.023 1.957-.256.516-.238.753-.66.89-1.48.05-.219.093-.313.24-.313.162 0 .186.262.186.474 0 .447-.162 1.813-.28 2.209-.147.527-.328.527-1.11.527-1.553 0-2.796-.03-3.809-.077-1.012-.025-1.788-.048-2.398-.048-.239 0-.688.023-1.179.023a30.05 30.05 0 0 1-1.434.046c-.26 0-.4-.07-.4-.213 0-.09.07-.208.332-.208.3 0 .537-.02.727-.074.423-.093.542-.47.615-1.059.092-.841.092-2.423.092-4.259v-3.53zm25.528 7.999c0 .545 0 .57-.261.707-1.387.69-3.431.898-5.056.898-5.082 0-9.576-2.307-9.576-7.837 0-3.199 1.718-5.432 3.627-6.543 1.971-1.153 3.831-1.292 5.572-1.292 1.434 0 3.249.233 3.668.329.424.072 1.157.188 1.648.21.237.021.284.098.284.234 0 .233-.14.779-.14 3.295 0 .306-.118.448-.283.448-.14 0-.19-.094-.215-.263-.041-.439-.163-1.077-.7-1.64-.619-.637-2.17-1.53-4.5-1.53-1.124 0-2.564.02-4 1.176-1.147.94-1.902 2.425-1.902 4.868 0 4.304 2.778 7.434 7.2 7.434.538 0 .966 0 1.455-.213.31-.137.404-.344.404-.707v-1.832c0-.986 0-1.739-.024-2.353-.025-.679-.236-.892-.893-1.084-.163-.044-.523-.066-.802-.066-.19 0-.329-.097-.329-.21 0-.168.164-.19.446-.19 1.082 0 2.562.045 3.173.045.664 0 1.746-.046 2.423-.046.29 0 .426.023.426.19 0 .114-.114.21-.255.21-.17 0-.33.023-.564.067-.57.098-.78.38-.801 1.084-.025.614-.025 1.412-.025 2.396v2.215zm4.664-7.999c0-3.033 0-3.6-.024-4.233-.052-.679-.24-.889-.896-1.08-.165-.048-.517-.07-.824-.07-.211 0-.352-.069-.352-.214 0-.141.165-.184.469-.184 1.082 0 2.4.043 2.99.043.66 0 5.245.022 5.646 0 .372-.023.705-.094.871-.12.117-.02.236-.093.327-.093.116 0 .142.093.142.19 0 .142-.114.378-.167 1.295-.02.21-.066 1.078-.12 1.313-.015.1-.065.332-.232.332-.14 0-.163-.094-.163-.259 0-.14-.023-.488-.139-.727-.165-.355-.335-.636-1.369-.733-.352-.045-2.823-.095-3.246-.095-.095 0-.14.075-.14.192v4.943c0 .119.02.207.14.207.468 0 3.154 0 3.626-.043.495-.045.801-.1.989-.31.162-.136.235-.257.324-.257.095 0 .167.095.167.215 0 .116-.05.446-.167 1.455a23.074 23.074 0 0 0-.089 1.34c0 .17-.024.447-.212.447-.145 0-.188-.068-.188-.163-.023-.207-.023-.47-.073-.727-.117-.4-.376-.71-1.156-.778-.378-.045-2.726-.094-3.245-.094-.096 0-.116.094-.116.213v1.6c0 .68-.022 2.374 0 2.964.045 1.367.679 1.669 2.804 1.669.537 0 1.406-.023 1.95-.256.52-.238.751-.66.89-1.48.051-.219.098-.313.236-.313.167 0 .19.262.19.474 0 .447-.167 1.813-.283 2.209-.142.527-.325.527-1.103.527-1.556 0-2.803-.03-3.815-.077-1.008-.025-1.786-.048-2.4-.048-.23 0-.682.023-1.176.023-.494.025-1.01.046-1.435.046-.258 0-.4-.07-.4-.213 0-.09.073-.208.332-.208.304 0 .54-.02.728-.074.42-.093.537-.47.615-1.059.094-.841.094-2.423.094-4.259v-3.53z" fill="#472A2B"/><path d="M55.891 13.139c-.07 0-.14-.01-.204-.02a1.02 1.02 0 0 0 .816-1.003c0-.498-.345-.909-.816-1.002a1.022 1.022 0 1 1 .204 2.024m0-2.487c-.81 0-1.46.657-1.46 1.465a1.461 1.461 0 1 0 2.923 0c0-.808-.657-1.465-1.463-1.465m-7.203-.702c-.073 0-.14-.01-.204-.018a1.243 1.243 0 0 0 0-2.45c.063-.01.13-.023.204-.023.685 0 1.238.562 1.238 1.247a1.24 1.24 0 0 1-1.238 1.244m0-3.02c-.987 0-1.776.799-1.776 1.776a1.773 1.773 0 1 0 3.548 0c0-.977-.793-1.775-1.772-1.775m-8.311 2.057c-.071 0-.139-.012-.21-.023a1.452 1.452 0 0 0 1.26-1.44c0-.735-.547-1.345-1.26-1.445.071-.01.139-.02.21-.02.807 0 1.46.654 1.46 1.465 0 .808-.653 1.463-1.46 1.463m0-3.557a2.09 2.09 0 1 0 0 4.18 2.087 2.087 0 0 0 2.084-2.086 2.092 2.092 0 0 0-2.084-2.094M32.04 9.949c-.066 0-.136-.01-.204-.018a1.242 1.242 0 1 0 0-2.45c.068-.01.138-.023.204-.023.692 0 1.244.562 1.244 1.247a1.24 1.24 0 0 1-1.244 1.244m0-3.02c-.982 0-1.77.799-1.77 1.776a1.772 1.772 0 1 0 3.545 0c0-.977-.79-1.775-1.775-1.775m-7.202 6.209c-.072 0-.145-.01-.206-.02.464-.096.816-.511.816-1.003a1.02 1.02 0 0 0-.816-1.002 1.018 1.018 0 0 1 1.224 1.002 1.02 1.02 0 0 1-1.018 1.023m0-2.488a1.464 1.464 0 0 0 0 2.929 1.465 1.465 0 0 0 0-2.929m6.072 13.697a.788.788 0 0 0-.209.025.892.892 0 1 1 0 1.737.895.895 0 0 0 1.1-.869.895.895 0 0 0-.89-.893m9.459 0a.803.803 0 0 0-.21.025.89.89 0 0 1 0 1.737.893.893 0 1 0 .209-1.762m9.455 0a.81.81 0 0 0-.207.025.894.894 0 0 1 .693.868.895.895 0 0 1-.693.869.896.896 0 0 0 1.103-.869.896.896 0 0 0-.896-.893" fill="#8E1537"/><path d="M27.689 19.633c-.421.093-.732.473-.789.963-.006.063-.36-.056-.337-.159.134-.54.582-.909 1.126-.804zm.022-2.034c.496 0 .917.287 1.13.549.495.571.245.82.178.69-.383-.612-.796-1.11-1.302-1.143-.137-.003-.093-.096-.006-.096zm6.85.093c-.208-.063-.132-.129.047-.108 1.476.2 1.81 2.49.274 3.051-.267.096-.24.073-.035-.085 1.023-.811.849-2.523-.287-2.858zm12.05 1.941c-.417.093-.728.473-.789.963-.01.063-.363-.056-.335-.159.137-.54.582-.909 1.123-.804zm.022-2.034c.502 0 .917.287 1.135.549.489.571.239.82.174.69-.385-.612-.796-1.11-1.299-1.143-.141-.003-.096-.096-.01-.096zm6.846.093c-.204-.063-.129-.129.05-.108 1.475.2 1.816 2.49.272 3.051-.26.096-.239.073-.03-.085 1.021-.811.853-2.523-.292-2.858zm.415 5.064c-1.19 0-2.117-.416-2.696-1.065h.44c.363 0 .668-.258.668-.572 0-.317-.305-.576-.668-.576h-.473c1.068-1.596 2.294-.867 2.294.223 0 .056 0 .116-.01.17a1.843 1.843 0 0 0 1.797-1.838c0-1.529-2.648-3.02-4.353-.14.16-.437.274-.966.274-1.585 0-1.784-1.339-3.23-1.339-3.23s-1.344 1.446-1.344 3.23c0 .561.093 1.05.231 1.465-1.704-2.72-4.283-1.25-4.283.26 0 1 .81 1.814 1.808 1.837a.983.983 0 0 1-.02-.169c0-1.09 1.237-1.82 2.302-.223h-.534c-.37 0-.673.259-.673.576 0 .314.302.572.673.572h.26c-.71.649-1.774 1.065-2.965 1.065-1.963 0-3.955-1.116-4.262-2.86l1.684.528c.257.081.418-.065.418-.31v-2.193c0-.221-.156-.385-.418-.306l-1.535.482.593-2.131c.086-.27-.01-.459-.345-.459h-2.094c-.338 0-.433.189-.35.459l.599 2.131-1.541-.482c-.257-.079-.412.085-.412.306v2.193c0 .245.163.391.412.31l1.68-.526c-.323 1.742-2.312 2.858-4.266 2.858-1.193 0-2.26-.416-2.971-1.065h.242c.362 0 .662-.258.662-.572 0-.317-.3-.576-.662-.576h-.471c1.055-1.596 2.294-.867 2.294.223a.892.892 0 0 1-.016.17 1.842 1.842 0 0 0 1.801-1.838c0-1.529-2.657-3.02-4.35-.14.155-.437.276-.966.276-1.585 0-1.784-1.347-3.23-1.347-3.23s-1.345 1.446-1.345 3.23c0 .561.096 1.05.235 1.465-1.705-2.72-4.276-1.25-4.276.26 0 1 .801 1.814 1.798 1.837a.89.89 0 0 1-.017-.169c0-1.09 1.233-1.82 2.296-.223h-.535c-.363 0-.666.259-.666.576 0 .314.303.572.666.572h.286c-.705.649-1.773 1.065-2.967 1.065-2.316 0-3.234-2.239-3.718-3.944 2.747-4.255 9.195-7.162 16.423-7.475v3.397h2.563v-3.397c7.184.32 13.643 3.218 16.396 7.436-.594 1.709-1.815 3.983-4.15 3.983zm-4.114-7.907c.053-.092.033-.06.088-.152.393.584.892 1.585.892 2.676 0 .294 0 .493-.069.817-.072.328-.33.597-.571.771.164-.44.277-.969.277-1.588 0-.904-.28-1.94-.617-2.524zm.046 11.67zm-9.457 0a1.283 1.283 0 0 1-1.285-1.275c0-.711.58-1.285 1.285-1.285a1.28 1.28 0 0 1 0 2.56zm-9.515-11.67c.06-.092.037-.06.095-.152.396.584.886 1.585.886 2.676 0 .294-.002.493-.067.817-.076.328-.335.597-.57.771.157-.44.273-.969.273-1.588 0-.904-.272-1.94-.617-2.524zm.056 11.67a1.282 1.282 0 0 1-1.288-1.275 1.28 1.28 0 1 1 1.287 1.276zm27.308-9.615C54.682 12.697 47.9 10.05 40.364 10.05c-7.579 0-14.327 2.64-17.854 6.853h-2.508l4.801 11.688H55.81l4.915-11.688h-2.507zM39.33 0h2.08c.267 0 .358.196.287.403l-.604 1.754 1.239-.382c.219-.078.35.053.35.257v1.84c0 .182-.127.333-.35.254l-1.121-.347.466 1.345a.323.323 0 0 1-.02.246 2.476 2.476 0 0 0-1.287-.362c-.468 0-.901.133-1.284.362a.336.336 0 0 1-.018-.246l.464-1.345-1.126.347c-.219.079-.344-.072-.344-.254v-1.84c0-.204.13-.335.344-.257l1.245.382-.605-1.754c-.07-.207.024-.403.285-.403M60.04 56.81c0 17.21-10.437 19.595-16.671 21.018l-.353.086.071-22.32H60.04v1.215zM42.99 31.126h16.927v18.998H42.986l.005-18.998zM20.837 50.125V31.127h16.92l.004 18.998H20.837zm16.544 27.703c-6.237-1.423-16.668-3.807-16.668-21.019v-1.216h16.948l.072 22.32c-.118-.027-.236-.057-.352-.085zm23.293-47.863H20.07c-.496 0-.632.173-.632.569v26.275c0 18.098 11.471 20.719 17.623 22.13 1.256.288 2.336.538 3.033.84 0 0 .24.103.28.103.045 0 .281-.102.281-.102.696-.303 1.776-.553 3.03-.842 6.156-1.41 17.622-4.031 17.622-22.129V30.534c0-.396-.136-.57-.634-.57z" fill="#8E1537"/><path d="M28.144 38.906v.358c0 4.31 2.173 7.296 6.475 8.862l.245-.664c-1.368-.504-2.493-1.151-3.39-1.937h.814v-.281h-1.123a7.654 7.654 0 0 1-.64-.708h1.206v-.28h-1.417a7.256 7.256 0 0 1-.438-.71h1.578v-.287h-1.732c-.11-.222-.209-.465-.305-.7h1.648v-.289h-1.748c-.079-.229-.134-.469-.192-.705h1.604v-.284h-1.66c-.041-.23-.084-.47-.112-.708h1.609v-.29h-1.642a9.588 9.588 0 0 1-.045-.662h.7c1.564 0 2.667.516 3.276 1.528.949 1.57.468 3.858.005 4.742l.636.332c.605-1.166 1.033-3.696-.025-5.44-.515-.854-1.605-1.877-3.892-1.877h-1.435zm17.161-1.413l.405.257a.833.833 0 0 0 .15-.46c0-.688-.968-1.07-.968-1.952 0-.393.184-.886.66-1.566.055.26.136.521.234.785.164.404.277.734.277 1.02 0 .245-.089.454-.304.652l.324.36c.35-.312.463-.662.463-1.017 0-.778-.556-1.578-.556-2.125a.59.59 0 0 1 .093-.347l-.388-.288c-.965 1.122-1.28 1.924-1.28 2.536 0 1.063.955 1.539.955 1.928 0 .07-.02.139-.065.217" fill="#8E1537"/><path d="M27.934 34.71c.852 0 1.637-.158 2.281-.437-.204.367-.281.491-.276.496.408 1.173.445 2.609-.605 3.177l.254.62c1.353-.438 1.612-2.538 1.078-3.629.154-.267 1.045-1.979 1.045-1.979s-.4-.196-.648-.294c-.488.884-1.804 1.34-3.129 1.33-1.324.01-2.636-.446-3.127-1.33-.242.098-.65.294-.65.294.006.014.892 1.712 1.048 1.98-.41.756-.41 2.606.645 3.404-.645.685-1.123 1.586-1.123 2.741 0 1.552.823 2.879 1.596 3.699.735.786 1.063.743 1.063 1.818 0 .582-.104 1.735-.104 1.735h.715s.171-1.639.068-2.188c1.098.55 1.941 1.156 1.941 2.188h.715c0-1.322-.772-1.989-2.102-2.702-1.924-1.02-3.18-2.855-3.18-4.555 0-1.462.922-2.374 1.67-2.932-1.622-.313-1.65-2.017-1.176-3.377.002-.005-.078-.129-.28-.496.648.28 1.433.438 2.281.438" fill="#8E1537"/><path d="M29.061 36.267a.246.246 0 0 1-.244-.244.25.25 0 0 1 .244-.255.249.249 0 1 1 0 .5m-2.254-.001a.244.244 0 0 1-.245-.244c0-.141.107-.255.245-.255.139 0 .253.114.253.255a.25.25 0 0 1-.253.244m2.254-.884c-.008 0-.017.003-.03.003-.542.01-.889.357-1.096.878-.206-.521-.553-.869-1.097-.878l-.03-.003a.637.637 0 0 0 0 1.274.618.618 0 0 0 .528-.29c.391.443.353.885.353 1.536h.496c0-.651-.038-1.093.353-1.536.105.177.302.29.523.29a.64.64 0 0 0 .64-.634.641.641 0 0 0-.64-.64m20.243 5h1.97v-.288h-1.632c.184-.14.34-.264.488-.395h1.871v-.284h-1.45c.375-.229.783-.384 1.256-.384 1.432 0 1.83 1.277 2.624 1.72h-5.658c.16-.075.531-.37.531-.37m1.469-2.666c0-.198.394-.426.9-.426.512 0 .91.228.91.426 0 .196-.398.424-.91.424-.506 0-.9-.228-.9-.424m5.657-2.009c-2.621 0-2.641 3.674-1.012 3.674a.758.758 0 0 0 .436-.127s-.16-.222-.298-.428c-.327-.032-.547-.48-.547-.926 0-2.034 3.102-2.085 3.102.602 0 2.002-1.132 3.082-2.381 3.71-1.373.689-2.858.721-2.858 1.78 0 .683.557.916 1.014 1.207.368.229.446.38.459.557.01.226-.171.418-.501.418l-1.758.01c-.631.002-1.58-.01-2.06-.01-.558 0-.692-.556-.175-.899.443-.284 1.14-.529 1.14-1.282 0-.854-.695-.907-2.27-1.193-1.154-.207-3.627.068-3.601-3.961h.908c0 .045-.01.093-.01.138 0 1.207.625 2.146 1.587 2.146.2 0 .383-.03.553-.083h8.128v-.288h-.599c-.702 0-2.043-2.17-3.125-2.333.285-.154.507-.416.507-.703 0-.51-.615-.916-1.396-.916-.773 0-1.381.405-1.381.916 0 .32.233.594.596.753-.685.229-1.224.678-1.717 1.088-.547.458-1.02.866-1.566.85-.599-.012-.872-.77-.872-1.636 0-.226-.004-.38.033-.645H44.4v.36c0 4.535 2.072 4.78 4.253 5.043 0 0 1.592.159 1.592.477 0 .49-1.433.588-1.433 1.717 0 .818.516 1.169 1.493 1.169l1.782.001 1.473-.001c.974 0 1.493-.35 1.493-1.169 0-1.129-1.435-1.226-1.435-1.717 0-.423 1.13-.546 2.314-1.116 1.39-.659 2.896-1.865 2.896-4.38 0-1.955-1.234-2.803-2.397-2.803M34.352 70.636h-3.063v-.835c0-.391.759-.517 1.535-.517.777 0 1.528.126 1.528.517v.835zm-2.854-6.687l.094-.705h2.762l.31.695-3.166.01zm1.386.99h-1.518l.093-.7h1.93a1.395 1.395 0 0 0-.505.7zm-.154.995h-1.453l.051-.706h1.477a3.54 3.54 0 0 0-.075.706zm-.148.989h-1.305v-.705h1.448a2.217 2.217 0 0 1-.143.705zm-1.305.858v-.574h1.148c-.214.318-.566.536-1.148.574zM30.21 62.97c-1.02 0-1.456-.826-1.456-2.58l.018-.902h2.878l.018.901c0 1.755-.434 2.58-1.458 2.58zm.592 2.548h-1.184s-.201-1.508-.302-2.314c.24.14.561.251.894.251.335 0 .655-.11.902-.251-.106.806-.31 2.314-.31 2.314zm-3.11.416a3.327 3.327 0 0 0-.078-.706h1.48l.045.706h-1.447zm1.447.989H27.84a2.168 2.168 0 0 1-.146-.705h1.445v.705zm0 .858c-.571-.038-.933-.256-1.145-.574h1.145v.574zm-1.602-2.843a1.402 1.402 0 0 0-.507-.7h1.931l.09.7h-1.514zm-1.784-.999l.315-.695h2.757l.099.705-3.171-.01zm.738-1.685h2.05c.053.144.125.285.208.408l.04.3h-2.603l.305-.708zm.43-.991h1.39c.028.237.068.48.134.71h-1.831l.307-.71zm.43-.99h.918s0 .504.017.705h-1.231l.297-.705zm.434-.992h.493l-.002.705h-.798l.307-.705zm.607-1.417h3.636l.488 1.132h-4.613l.489-1.132zm4.552 2.122h-.798v-.705h.489l.309.705zm.425.992h-1.238c.02-.201.02-.705.02-.705h.92l.298.705zm.436.995h-1.828a4.5 4.5 0 0 0 .129-.71H33.5l.304.71zm.43.99h-2.6l.036-.3a1.72 1.72 0 0 0 .206-.409h2.054l.305.708zm1.247 1.195l-3.03-6.967h-4.486l-3.026 6.967c-.634.332-1.02 1.022-1.02 1.926v2.319h.678v-2.319c0-.924.478-1.473 1.269-1.473.795 0 1.155.212 1.155 1.455 0 1.443.799 2.387 2.117 2.387h.673v-2.447h.796v2.447h.669c1.325 0 2.126-.944 2.126-2.387 0-1.243.35-1.455 1.148-1.455.787 0 1.261.539 1.271 1.44v4.585h-.808v-.83c0-.963-1.075-1.209-2.19-1.209-1.119 0-2.199.246-2.199 1.209v1.477h5.874v-5.227c-.008-.89-.393-1.568-1.017-1.898zm-6.36 6.478H26.06v-.835c0-.391.756-.517 1.532-.517.774 0 1.53.126 1.53.517v.835zm-1.53-2.039c-1.114 0-2.196.246-2.196 1.209v1.477h4.39v-1.477c0-.963-1.08-1.209-2.194-1.209z" fill="#8E1537"/><path d="M79.893 77.58c-1.921.095-6.454.785-11.313 1.986-3.177.794-6.465 1.793-9.233 3.007l.005-4.293c0-.01.006-.018.006-.028 0-.003-.006-.005-.006-.008v-.008.003c-.012-.906-2.031-1.677-3.605-2.037 1.73-1.294 5.791-2.918 10.21-4.184C70.737 70.63 76 69.6 79.327 69.603l.566.002v7.975zM58.527 87.948c-1.94 1.627-15.233 2.281-18.151 2.281-2.92 0-16.213-.654-18.156-2.281l-.02-7.95c3.444 1.776 14.387 2.09 18.176 2.09 3.786 0 14.727-.314 18.17-2.09l-.019 7.95zM21.4 78.239l-.003-.003v.013l-.002.003.002.008c0 .473.006 2.328.01 4.313-2.774-1.214-6.057-2.213-9.235-3.007-4.86-1.201-9.391-1.89-11.31-1.986v-7.975l.562-.002c3.328-.002 8.583 1.027 13.371 2.415 4.417 1.266 8.478 2.89 10.208 4.184-1.57.36-3.59 1.13-3.603 2.037zm59.344-9.427c-.072-.418-.606-.825-1.843-1.198a277.205 277.205 0 0 0-6.666-1.929c-3.444-.94-3.686-2.102-2.629-3.903.252-.432-.201-.64-.914.06-1.103 1.077-1.025 3.31-1.025 5.53v3.278c-5.755 1.522-11.307 3.661-13.022 5.356l-.002 4.237c-4.731.852-11.655 1.025-14.267 1.025-2.613 0-9.537-.173-14.268-1.025l-.002-4.237c-1.713-1.692-7.257-3.832-13.015-5.35v-3.284c0-2.22-.038-4.58-1.015-5.53-.717-.696-1.132-.515-.91-.06 1.286 2.698.324 3.1-2.629 3.903a281.41 281.41 0 0 0-6.68 1.929c-1.223.373-1.765.78-1.834 1.196L0 68.812v9.619s.272-.003.433-.003c1.535 0 6.365.69 11.531 1.966 3.271.806 6.68 1.866 9.443 3.112l.007 4.776c2.11 2.416 17.09 2.76 18.961 2.76 1.863 0 16.855-.344 18.96-2.76l.008-4.776c2.761-1.246 6.17-2.306 9.444-3.112 5.163-1.276 9.993-1.966 11.527-1.966.165 0 .432.003.432.003v-9.42a.444.444 0 0 0 0-.188v-.01h-.003z" fill="#8E1537"/><path d="M28.677 87.275c-.34-.042-.778-.138-1.106-.305.025-.158.083-.332.132-.458.327.166.69.262 1.029.3.471.058.715-.109.715-.468 0-.794-1.87-.92-1.87-2 0-.677.591-.969 1.42-.873.261.028.608.1.863.18a2.082 2.082 0 0 1-.088.475 4.186 4.186 0 0 0-.861-.2c-.556-.065-.73.126-.73.442 0 .704 1.87.86 1.87 1.996 0 .654-.528 1.007-1.374.911m4.256-2.899l-1.04-.091v3.251l-.596-.05V84.23l-1.053-.091v-.475l2.734.239c0 .156-.018.325-.045.473m1.995 3.444c-.941-.059-1.48-.43-1.48-1.637V83.94l.607.036v2.341c0 .697.191.964.886 1.008.617.038.906-.212.906-.895v-2.339l.56.033v2.241c0 .977-.386 1.52-1.479 1.453m3.898-3.161a7.89 7.89 0 0 0-.766.011v2.8c.202.023.54.05.756.057.793.023 1.213-.435 1.213-1.417 0-1.126-.597-1.432-1.203-1.45m.025 3.345c-.388-.014-.97-.052-1.393-.123v-3.664a14.27 14.27 0 0 1 1.385-.031c1.023.03 1.831.586 1.831 1.883 0 1.316-.768 1.963-1.823 1.935m2.656-.038v-3.729l.604-.017v3.726l-.604.02zm3.114-3.069a.75.75 0 0 1-.05-.264l-.046.001c0 .106-.01.184-.037.27l-.501 1.415 1.112-.058-.478-1.364zm1.043 2.907l-.414-1.11-1.417.076-.4 1.158c-.169.003-.37 0-.544-.03a68.475 68.475 0 0 1 1.367-3.774l.637-.033a94.325 94.325 0 0 1 1.35 3.623 2.92 2.92 0 0 1-.58.09zm2.462-.202v-3.728l.602-.049v3.727l-.602.05zm4.234-.386l-1.7-2.43a2.39 2.39 0 0 1-.204-.39l-.038.015c.013.141.028.305.028.416V87.4l-.537.06v-3.693c.18-.05.449-.098.617-.116l1.627 2.33c.07.1.151.255.201.382l.043-.013a3.326 3.326 0 0 1-.033-.423V83.46l.539-.063v3.715a4.25 4.25 0 0 1-.544.102m3.937-22.92c-.093-.237-.396-.24-.413.046-.058.934-.936 1.983-1.861 2.962.051-.702.013-1.513-.138-2.461-.06-.363-.464-.464-.52.042-.021.917-1.056 2.148-1.87 3.29.736-1.653 1.499-3.358.176-6.669-.213-.532-.523-.466-.48.104.06.926-.343 1.79-.798 2.791-.413.886-.853 1.827-1.048 2.972-.541-1.199-1.125-2.448-.986-3.289.045-.503-.361-.509-.492-.163-.777 2.097-.807 3.593-.493 4.73-.748-.903-1.324-2.17-1.092-3.837.055-.518-.29-.529-.474-.155-.08-.121-.176-.242-.252-.358l-.144-.264a3.927 3.927 0 0 1-.274-.66h1.047v-.27h-1.117a3.147 3.147 0 0 1-.091-.655h1.148v-.268h-1.146c.013-.237.053-.459.106-.663h1.14v-.264h-1.061c.042-.192.206-.487.304-.66h1.077v-.27h-.903c.405-.576.937-1.024 1.402-1.27-.05.168-.085.321-.077.483.035.73.564 1.55 1.145 2.331.453.608.775 1.02.991 1.365.12.193.27.428.547.899.063.098.31-.481.425-.75.451-1.076.76-2.266.76-3.216 0-1.204-.288-2.377-1.482-2.505.713-.266 1.133-.236 1.767.142.157.09.157-.11.058-.273a.69.69 0 0 0-.23-.217c.313-.23.712-.02 1.17.24.3.168.618.407.999.468-.924.97-1.415 2.908-.398 5.72.144.395.5.421.705.021.053-.1.132-.262.196-.388h1.537v-.27H53.76c.136-.246.405-.655.405-.655h1.607v-.268h-1.395c.11-.151.498-.663.498-.663h1.473v-.264H55.08a7.75 7.75 0 0 0 .432-.66h1.145v-.27h-1c.161-.331.353-.858.224-1.374 1.118.347 1.629 1.478 1.629 2.84 0 1.129-.33 2.423-.899 3.626a7.235 7.235 0 0 0-.315-1.123m-3.489 6.249c.51-.6.924-1.372 1.117-2.445.941-.977 1.84-1.918 2.196-2.893.042.242.045.468.06.69.154 2.392-1.893 3.735-3.373 4.648m-2.282 2.254c.03-2.055.597-3.15 1.348-4.202.63-.892 1.324-1.803 1.646-2.738.116 1.073.048 1.935-.144 2.627-.53 1.865-2.21 2.578-2.85 4.313m-.818-4.615c.126-1.45.655-2.578 1.118-3.583.305-.658.599-1.293.74-1.944.257.838.355 1.548.35 2.178-.01 1.246-.476 2.178-.917 3.364a9.382 9.382 0 0 0-.53 2 17.79 17.79 0 0 0-.761-2.015m-2.05-.6c-.058-.717.043-1.568.366-2.595.135.977.564 1.93 1.007 2.925.569 1.26 1.047 2.178 1.203 3.63-.765-.41-2.452-2.331-2.576-3.96m.947 3.933c-.13-.048-.262-.085-.392-.136-.824-1.068-2.028-1.158-2.118-1.631-.051-.24-.23-.365-.35-.21-.438-1.014-.338-2.178.025-3.54.167 1.95 1.16 3.102 2.122 3.858.379.645.864 1.156 1.305 1.619.231.254.498.443.732.617.011.032.02.068.038.103-.395-.343-.897-.531-1.362-.68m-1.156.667c-.619-.198-1.178-.38-1.362-1.007-.067-.207-.08-.466-.053-.785.165.118.343.214.537.314.577.305 1.27.67 1.672 1.79a4.633 4.633 0 0 0-.794-.312m7.564-13.938c.156.31.322.546.322 1.044 0 1.131-1.87 2.901-2.236 4.026-.42-1.781-.836-4.016 1.162-5.763.09-.075.035-.133-.06-.1-1.109.372-1.686-.763-2.907-.763-.307 0-.388.123-.685.372-.564-.123-1.5.04-1.878.423-.297.307-.16.519.035.519 2.24 0 1.501 3.827.849 4.995-.408-.991-1.924-2.195-1.963-3.47-.02-.644.328-1.1.502-1.3-2.19 0-3.74 2.373-3.74 4.093 0 .911.246 1.954 1.124 3.049-.604 1.712-.85 3.09-.186 4.482.07.153.151.28.242.41-.166 1.8.838 2.092 1.707 2.375.516.165.965.314 1.14.699.185.4.541.317.481-.118a4.452 4.452 0 0 0-.332-1.194c.634.245 1.184.668 1.51 1.117.43.586.751.43.751.208 0-.002-.003-.007-.003-.013.404-1.48 1.23-1.656 2.287-2.378 1.483-1.008 3.152-1.879 3.464-4.233.975-1.54 1.594-3.361 1.594-4.89 0-2.082-1.15-3.59-3.18-3.59M64.158 78.4l-.212-2.519c-.008-.07-.008-.234-.008-.34l-.037.013c-.01.131-.041.274-.065.365l-.862 2.848-.514.161-.86-2.283a1.958 1.958 0 0 1-.063-.325l-.038.015c0 .098-.005.279-.01.344l-.25 2.667c-.144.04-.347.1-.47.116.092-1.226.211-2.455.362-3.711l.622-.201.884 2.328c.032.096.068.237.085.375l.035-.013c.013-.146.038-.301.083-.433l.867-2.893.64-.203c.135 1.158.254 2.32.342 3.476a4.63 4.63 0 0 1-.531.212m2.944-4.015c-.658.167-.995.586-.995 1.652 0 1.002.3 1.331 1 1.153.692-.174.997-.63.997-1.655 0-1.054-.347-1.318-1.002-1.15m.005 3.264c-1.01.251-1.601-.172-1.601-1.434 0-1.246.611-2.039 1.6-2.288 1.008-.257 1.602.179 1.602 1.456 0 1.276-.635 2.021-1.601 2.266m3.64-4.122a6.188 6.188 0 0 0-.541.143v1.3l.475-.1c.504-.104.798-.38.798-.855 0-.455-.273-.584-.732-.488m1.005 3.042l-.322-.522c-.22-.362-.454-.652-.653-.788l-.571.124v1.483l-.564.12v-3.577c.446-.144.796-.24 1.132-.31.696-.149 1.28.003 1.28.77 0 .5-.33.922-.796 1.136.212.12.454.358.662.68l.436.692a3.118 3.118 0 0 1-.604.192m3.62-.696l-2.256.403v-3.61l2.21-.4c0 .142-.017.32-.047.472l-1.59.282v1.039l1.204-.21v.452l-1.203.215v1.198l1.73-.31c0 .146-.015.312-.048.469m1.799-.227c-.332.05-.75.07-1.067-.002.02-.161.073-.345.125-.483.313.078.66.078.993.03.453-.071.687-.295.687-.643 0-.773-1.8-.407-1.8-1.453 0-.653.57-1.092 1.364-1.213.255-.043.59-.06.837-.05a2.14 2.14 0 0 1-.09.48 4.128 4.128 0 0 0-.827.029c-.536.082-.702.317-.702.619 0 .685 1.803.352 1.803 1.45 0 .632-.507 1.11-1.323 1.236M3.306 72.651a.84.84 0 0 1-.048-.264l-.04-.005a.622.622 0 0 1-.043.252l-.478 1.282 1.075.14-.466-1.405zm1.002 3.007l-.392-1.151-1.365-.181-.383 1.042a2.956 2.956 0 0 1-.522-.123 54.09 54.09 0 0 1 1.31-3.41l.617.089a135.59 135.59 0 0 1 1.3 3.75 3.088 3.088 0 0 1-.565-.016zm2.32-1.265l-.66-.122v1.245c.23.068.44.116.592.15.526.098.79-.095.79-.535 0-.39-.28-.65-.722-.738m-.094-1.606a7.054 7.054 0 0 0-.566-.08v1.173l.627.118c.4.075.644-.11.644-.503 0-.377-.243-.622-.705-.708m.039 3.296a11.79 11.79 0 0 1-1.159-.295v-3.55c.338.025.758.07 1.1.139.778.146 1.284.508 1.284 1.178 0 .398-.251.635-.573.705v.033c.452.206.72.534.72.987 0 .765-.62.946-1.372.803m4.38.881l-2.23-.5v-3.609l2.19.489c0 .138-.015.31-.05.45l-1.572-.352v1.04l1.194.266v.457l-1.194-.27v1.194l1.715.388c0 .143-.017.304-.053.447m2.097.58c-.885-.23-1.396-.69-1.396-1.858v-2.17l.569.146v2.269c0 .674.184.966.837 1.137.581.152.848-.04.848-.699V74.1l.53.14v2.17c0 .944-.368 1.4-1.389 1.135m4.558 1.303l-1.576-3.031a3.296 3.296 0 0 1-.186-.459l-.04-.005c.017.144.027.31.027.413v2.496l-.499-.16v-3.575c.164.02.414.08.575.134l1.51 2.905c.066.13.142.313.187.448l.04.008a3.41 3.41 0 0 1-.03-.423v-2.392l.5.159v3.598a4.464 4.464 0 0 1-.508-.116m3.413-1.92l-.942-.363v3.152l-.538-.213v-3.148l-.959-.372v-.46l2.487.959c0 .15-.018.311-.048.445" fill="#8E1537"/></g></svg>