<?xml version="1.0" encoding="utf-8"?>
<!-- Generator: Adobe Illustrator 24.2.3, SVG Export Plug-In . SVG Version: 6.00 Build 0)  -->
<svg version="1.1" xmlns="http://www.w3.org/2000/svg" xmlns:xlink="http://www.w3.org/1999/xlink" x="0px" y="0px"
	 viewBox="0 0 338.9 100" style="enable-background:new 0 0 338.9 100;" xml:space="preserve">
<style type="text/css">
	.st0{fill:#FFFFFF;}
	.st1{fill-rule:evenodd;clip-rule:evenodd;fill:#FFFFFF;}
</style>
<g id="Layer_1">
	<g>
		<g>
			<g>
				<g>
					<path class="st0" d="M294.4,55.8c0,13.1-10.7,23.7-23.7,23.7c-13.1,0-23.7-10.7-23.7-23.7s10.7-23.7,23.7-23.7v-0.4
						c-13.3,0-24.1,10.8-24.1,24.1s10.8,24.1,24.1,24.1s24.1-10.8,24.1-24.1H294.4z"/>
				</g>
				<g>
					<path class="st0" d="M292.6,55.8c0,12.1-9.8,21.9-21.9,21.9s-21.9-9.8-21.9-21.9s9.8-21.9,21.9-21.9v-0.5
						c-12.4,0-22.5,10.1-22.5,22.5c0,12.4,10.1,22.5,22.5,22.5s22.5-10.1,22.5-22.5L292.6,55.8L292.6,55.8z"/>
				</g>
				<g>
					<path class="st0" d="M290.8,55.8c0,11.1-9,20.1-20.1,20.1s-20.1-9-20.1-20.1s9-20.1,20.1-20.1v-0.6c-11.5,0-20.8,9.3-20.8,20.8
						c0,11.5,9.3,20.8,20.8,20.8c11.5,0,20.8-9.3,20.8-20.8H290.8z"/>
				</g>
				<g>
					<path class="st0" d="M289,55.8c0,10.1-8.2,18.3-18.3,18.3c-10.1,0-18.3-8.2-18.3-18.3c0-10.1,8.2-18.3,18.3-18.3v-0.8
						c-10.6,0-19.2,8.6-19.2,19.2S260.1,75,270.7,75s19.2-8.6,19.2-19.2L289,55.8L289,55.8z"/>
				</g>
				<g>
					<path class="st0" d="M287.2,55.8c0,9.1-7.4,16.6-16.6,16.6c-9.1,0-16.6-7.4-16.6-16.6c0-9.1,7.4-16.6,16.6-16.6v-0.9
						c-9.6,0-17.5,7.9-17.5,17.5s7.9,17.5,17.5,17.5c9.6,0,17.5-7.9,17.5-17.5H287.2z"/>
				</g>
				<g>
					<path class="st0" d="M285.5,55.8c0,8.2-6.6,14.8-14.8,14.8c-8.2,0-14.8-6.6-14.8-14.8S262.5,41,270.7,41v-1
						c-8.7,0-15.8,7.1-15.8,15.8s7.1,15.8,15.8,15.8c8.7,0,15.8-7.1,15.8-15.8H285.5z"/>
				</g>
				<g>
					<path class="st0" d="M283.7,55.8c0,7.2-5.9,13-13,13c-7.2,0-13-5.9-13-13s5.9-13,13-13v-1.1c-7.8,0-14.1,6.4-14.1,14.1
						S262.9,70,270.7,70c7.8,0,14.1-6.4,14.1-14.1L283.7,55.8L283.7,55.8z"/>
				</g>
			</g>
			<g>
				<g>
					<path class="st0" d="M271,55.8c0-13.1,10.7-23.7,23.7-23.7c13.1,0,23.7,10.7,23.7,23.7s-10.7,23.7-23.7,23.7v0.4
						c13.3,0,24.1-10.8,24.1-24.1s-10.8-24.1-24.1-24.1s-24.1,10.8-24.1,24.1L271,55.8L271,55.8z"/>
				</g>
				<g>
					<path class="st0" d="M272.9,55.8c0-12.1,9.8-21.9,21.9-21.9s21.9,9.8,21.9,21.9s-9.8,21.9-21.9,21.9v0.5
						c12.4,0,22.5-10.1,22.5-22.5c0-12.4-10.1-22.5-22.5-22.5s-22.5,10.1-22.5,22.5L272.9,55.8L272.9,55.8z"/>
				</g>
				<g>
					<path class="st0" d="M274.6,55.8c0-11.1,9-20.1,20.1-20.1s20.1,9,20.1,20.1s-9,20.1-20.1,20.1v0.6c11.5,0,20.8-9.3,20.8-20.8
						c0-11.5-9.3-20.8-20.8-20.8c-11.5,0-20.8,9.3-20.8,20.8H274.6z"/>
				</g>
				<g>
					<path class="st0" d="M276.4,55.8c0-10.1,8.2-18.3,18.3-18.3c10.1,0,18.3,8.2,18.3,18.3c0,10.1-8.2,18.3-18.3,18.3V75
						c10.6,0,19.2-8.6,19.2-19.2s-8.6-19.2-19.2-19.2s-19.2,8.6-19.2,19.2L276.4,55.8L276.4,55.8z"/>
				</g>
				<g>
					<path class="st0" d="M278.2,55.8c0-9.1,7.4-16.6,16.6-16.6c9.1,0,16.6,7.4,16.6,16.6c0,9.1-7.4,16.6-16.6,16.6v0.9
						c9.6,0,17.5-7.9,17.5-17.5s-7.9-17.5-17.5-17.5c-9.6,0-17.5,7.9-17.5,17.5H278.2z"/>
				</g>
				<g>
					<path class="st0" d="M280,55.8c0-8.2,6.6-14.8,14.8-14.8c8.2,0,14.8,6.6,14.8,14.8s-6.6,14.8-14.8,14.8v1
						c8.7,0,15.8-7.1,15.8-15.8S303.5,40,294.8,40S279,47.1,279,55.8H280z"/>
				</g>
				<g>
					<path class="st0" d="M281.7,55.8c0-7.2,5.9-13,13-13s13,5.9,13,13s-5.9,13-13,13V70c7.8,0,14.1-6.4,14.1-14.1
						s-6.4-14.1-14.1-14.1s-14.1,6.4-14.1,14.1L281.7,55.8L281.7,55.8z"/>
				</g>
			</g>
			<g>
				<g>
					<polygon class="st0" points="234.9,42.4 234.9,80 233.8,80 233.8,43.5 227.4,43.5 227.4,42.4 					"/>
				</g>
				<g>
					<polygon class="st0" points="238.3,39 238.3,80 237.4,80 237.4,40 227.4,40 227.4,39 					"/>
				</g>
				<g>
					<polygon class="st0" points="236.6,40.7 236.6,80 235.6,80 235.6,41.7 227.4,41.7 227.4,40.7 					"/>
				</g>
				<g>
					<polygon class="st0" points="241.6,35.7 241.6,80 241,80 241,36.4 227.4,36.4 227.4,35.7 					"/>
				</g>
				<g>
					<polygon class="st0" points="240,37.4 240,80 239.1,80 239.1,38.2 227.4,38.2 227.4,37.4 					"/>
				</g>
				<g>
					<polygon class="st0" points="244.9,32.4 244.9,80 244.5,80 244.5,32.8 227.4,32.8 227.4,32.4 					"/>
				</g>
				<g>
					<polygon class="st0" points="243.3,34.1 243.3,80 242.7,80 242.7,34.6 227.4,34.6 227.4,34.1 					"/>
				</g>
			</g>
		</g>
		<g>
			<path class="st0" d="M229.8,13.5h2.6v13.3h-2.6V13.5z"/>
			<path class="st0" d="M235,13.5h2.7l8.9,9.6v-9.6h2.5v13.3h-2.4l-9.3-10v10H235V13.5z"/>
			<path class="st0" d="M261.9,17.6c-0.4-1.2-1.5-2.2-4.7-2.2c-1.8,0-3.5,0.4-3.5,1.7c0,0.6,0.3,1.2,3,1.5l3.1,0.5
				c3,0.5,4.7,1.6,4.7,3.8c0,3.1-3,4.3-6.6,4.3c-5.7,0-7.1-2.8-7.4-3.8l2.5-0.8c0.5,1,1.5,2.4,5,2.4c2.1,0,3.9-0.7,3.9-1.8
				c0-0.9-1-1.4-2.9-1.7l-3.2-0.4c-3.1-0.4-4.8-1.8-4.8-3.8c0-4,5.2-4,6.2-4c5.7,0,6.7,2.7,7,3.6L261.9,17.6z"/>
			<path class="st0" d="M280.2,21.1c0,4.3-2.7,6-7.1,6c-4.3,0-7.1-1.8-7.1-6v-7.6h2.6v7.4c0,2.2,0.8,4,4.5,4c3.7,0,4.5-1.8,4.5-4
				v-7.4h2.6V21.1z"/>
			<path class="st0" d="M282.6,13.5h2.6v11h9.6v2.3h-12.3L282.6,13.5L282.6,13.5z"/>
			<path class="st0" d="M296.3,13.5h2.6v13.3h-2.6V13.5L296.3,13.5z"/>
			<path class="st0" d="M301.5,13.5h2.7l8.9,9.6v-9.6h2.5v13.3h-2.4l-9.3-10v10h-2.5L301.5,13.5L301.5,13.5z"/>
		</g>
	</g>
	<g>
		<path class="st0" d="M207.4,80.1c-0.1,0-0.1-0.1-0.1-0.1V32.5c0-0.1,0.1-0.1,0.1-0.1s0.1,0.1,0.1,0.1V80
			C207.5,80.1,207.5,80.1,207.4,80.1z"/>
	</g>
	<g>
		<path id="University_of_Toronto_Mark_Stacked_1_" class="st0" d="M178.7,55.1c5.4,0,8.7,4.3,8.7,8.7c0,4.8-4.2,8.8-8.9,8.8
			c-4.9,0-8.4-4-8.4-8.8C170,59.2,174.1,55.1,178.7,55.1 M179.6,71.5c3.1,0,5.1-3.1,5.1-6.1c0-4.7-2.7-9.2-6.8-9.2
			c-3.2,0-5.2,2.9-5.2,6.2C172.7,66.8,175.2,71.5,179.6,71.5z M162.1,55.5h-3.6c-1.6,0-2.7,0-3.7,0c-0.9,0-1.1-0.3-1.2-0.4h-0.5
			c-0.1,0.2-1.2,3.2-1.3,3.4l0.5,0.3c0.5-1.5,1.2-2.2,4.2-2.2c0.3,0,1.2,0,2.4,0.1c0.2,2.1,0.2,4.2,0.2,6.4c0,1.3,0,6.4-0.2,7.5
			c-0.1,0.5-0.3,0.7-1.7,1c-0.6,0.1-1,0.1-1.3,0.2l0.1,0.7c0.4,0,1-0.1,1.7-0.1c0.7,0,1.5-0.1,2.7-0.1c0.5,0,1.2,0,1.9,0
			c0.7,0,1.3,0,2.2,0.1l0.1-0.7c-0.2,0-0.4,0-0.8-0.1c-0.5-0.1-1.2-0.2-1.5-0.5c-0.5-0.6-0.5-5.2-0.5-6.4c0-1,0.2-6.3,0.2-7.6
			c0-0.5,0.2-0.5,1.7-0.5l0.1,0c0.7,0,0.9,0,1.1,0c3,0,3.1,0.7,3.6,2.2l0.5-0.3c0-0.2-0.6-3.2-0.7-3.4h-0.5
			c-0.1,0.2-0.3,0.4-1.2,0.4c-1.1,0.1-2.5,0-3.9,0H162.1z M134.4,55.5c-0.7,0-1.2,0-2,0c-0.4,0-0.8,0-1.3,0c-0.4,0-0.5,0-0.9-0.1
			v0.7c2.4,0.5,2.7,0.8,2.6,5.7l0,3c0,1.1-0.1,4.5-0.2,5.5c-0.1,1.1-0.6,1.2-1.2,1.3c-0.3,0.1-0.7,0.2-1,0.2v0.6
			c0.6,0,1.3,0,1.9-0.1c0.6,0,1.5-0.1,2.1-0.1c0.6,0,1.3,0,1.9,0.1c0.5,0,0.9,0,1.2,0.1v-0.7c-3.3-0.6-3.3-1-3.3-3.9l0-7.1l0-1.3
			c0,0,0,0,12.4,13.1h0.9c-0.1-1.4-0.1-5-0.1-6.5c0-2.2,0-8,0.1-8.7c0.1-1.1,1.6-1.2,2.4-1.2v-0.6c-1.8,0-2.8,0-3.6,0
			c-0.8-0.1-1.3-0.1-1.8-0.1c-0.4,0-0.8,0-1.1,0l-0.1,0.6c2.8,0.2,2.7,0.4,2.7,6.8c0,0.8,0,4.5,0,5.2L134.4,55.5z M119.2,55.1
			c5.4,0,8.7,4.3,8.7,8.7c0,4.8-4.2,8.8-8.9,8.8c-4.9,0-8.4-4-8.4-8.8C110.5,59.2,114.6,55.1,119.2,55.1z M120.1,71.5
			c3.1,0,5.1-3.1,5.1-6.1c0-4.7-2.7-9.2-6.8-9.2c-3.2,0-5.2,2.9-5.2,6.2C113.2,66.8,115.7,71.5,120.1,71.5z M92.6,55.4
			c0.5,0,1.1,0.1,1.6,0.1c0.5,0,1,0,1.6,0c0.4,0,1.3-0.1,2.3-0.2c1-0.1,1.7-0.1,2.3-0.1c3.6,0,5.8,1.9,5.8,4.5
			c0,2.4-2.1,3.8-3.8,4.2c3.5,5,4.1,5.8,5.5,7.1c0.2,0.2,1.2,1.1,2.5,1.2l0,0.6c-2.9,0-4.3-1.1-5.1-1.7c-2.6-2-5.1-6-5.5-6.8
			c-0.7,0-1,0-2.2-0.1v2.4c0,1.1,0,3.5,0.3,4.2c0.2,0.4,1.5,0.8,2.3,1l0,0.6c-1-0.2-2.6-0.3-3.7-0.3c-0.6,0-3.2,0.2-3.7,0.2
			l-0.1-0.5c0.3,0,1.8-0.4,2.1-1.1c0.3-0.6,0.3-4.2,0.3-5.3v-4c0-5.2-0.3-5.3-2.4-5.4L92.6,55.4z M97.4,63.3
			c0.5,0.1,1.3,0.1,1.8,0.1c0.6,0,4.2,0,4.2-3.4c0-1.6-1.1-3.8-4.1-3.8c-1.8,0-1.8,0.2-1.8,3.1L97.4,63.3z M80.9,55.1
			c5.4,0,8.7,4.3,8.7,8.7c0,4.8-4.2,8.8-8.9,8.8c-4.9,0-8.4-4-8.4-8.8C72.2,59.2,76.3,55.1,80.9,55.1z M81.8,71.5
			c3.1,0,5.1-3.1,5.1-6.1c0-4.7-2.7-9.2-6.8-9.2c-3.2,0-5.2,2.9-5.2,6.2C74.9,66.8,77.4,71.5,81.8,71.5z M63.9,55.5h-3.6
			c-1.6,0-2.7,0-3.7,0c-0.9,0-1.1-0.3-1.2-0.4h-0.5c-0.1,0.2-1.2,3.2-1.3,3.4l0.5,0.3c0.5-1.5,1.2-2.2,4.2-2.2c0.3,0,1.2,0,2.4,0.1
			c0.2,2.1,0.2,4.2,0.2,6.4c0,1.3,0,6.4-0.2,7.5c-0.1,0.5-0.3,0.7-1.7,1c-0.6,0.1-1,0.1-1.3,0.2l0.1,0.7c0.4,0,1-0.1,1.7-0.1
			c0.7,0,1.5-0.1,2.7-0.1c0.5,0,1.2,0,1.9,0c0.7,0,1.3,0,2.2,0.1l0.1-0.7c-0.2,0-0.4,0-0.8-0.1c-0.5-0.1-1.2-0.2-1.5-0.5
			c-0.5-0.6-0.5-5.2-0.5-6.4c0-1,0.2-6.3,0.2-7.6c0-0.5,0.2-0.5,1.7-0.5l0.1,0c0.7,0,0.9,0,1.1,0c3,0,3.1,0.7,3.6,2.2l0.5-0.3
			c0-0.2-0.6-3.2-0.7-3.4h-0.5c-0.1,0.2-0.3,0.4-1.2,0.4c-1.1,0.1-2.5,0-3.9,0H63.9z M172.4,40.7c-1.1,0.1-1.3,0.1-2.5,0.1l-1.3,0
			l-1.3,0l-0.4,0l-0.3,0l0,0.1v0.3l0.1,0c0.3,0,0.6,0,0.8,0.2c0.2,0.3,0.2,0.6,0.2,3.2c0,1.2-0.1,2.7-0.1,2.9
			c-0.1,0.3-0.5,0.4-0.8,0.4l0,0l0,0.4l0.1,0c0.7-0.1,1.5-0.1,1.8-0.1l0.7,0c0,0,1.2,0.1,1.2,0.1l0-0.1v-0.4l-0.1,0
			c-0.9-0.1-1.2-0.2-1.2-0.3c-0.1-0.1-0.1-0.6-0.1-1c0-0.1,0-0.3,0-0.4c0,0,0-1.1,0-1.4c0.1,0,0.6,0,0.6,0c0.7,0,1.5,0.2,1.7,0.3
			c0.1,0,0.2,0.3,0.3,0.6l0,0.1h0.4l0-0.1c0.1-0.8,0.1-1.5,0-2.1l0-0.1h-0.4l0,0.1c-0.1,0.5-0.1,0.8-1.6,0.8c-0.4,0-0.6,0-1-0.1
			c0,0,0,0,0,0c0-0.1,0-0.3,0-0.4c0-0.2,0-0.3,0-0.5c0,0,0-1.6,0-1.8c0.4-0.1,0.8-0.1,0.9-0.1c0.8,0,1.5,0.1,1.8,0.4
			c0.2,0.2,0.3,0.5,0.4,0.7l0,0.1l0.4,0l0-0.1c0-0.1,0-0.5,0-0.9L172.4,40.7L172.4,40.7z M161,40.6c2.5,0,3.9,2,3.9,3.9
			c0,2.1-1.9,3.9-4.1,3.9c-2.2,0-3.8-1.7-3.8-3.9C157.1,42.4,158.9,40.6,161,40.6z M161.4,47.8c1.4,0,2.2-1.4,2.2-2.6c0-2-1.1-4-3-4
			c-1.5,0-2.3,1.3-2.3,2.6C158.4,45.8,159.5,47.8,161.4,47.8z M147,40.8v0.4l0.1,0c0.4,0,0.9,0,0.9,0.3c0,0.1-0.2,0.5-1.6,2.6
			c-0.6-0.7-2-2.5-2-2.7c0-0.1,0-0.2,0.9-0.2l0.1,0v-0.4l-0.7,0l-1.4,0l-1.5,0l0,0.1v0.3h0.1c0.4,0,0.6,0,0.8,0.2
			c0.5,0.3,2.1,2.4,2.1,2.5c0,0,0.6,0.8,0.7,0.9c0,0.5,0.1,1.1,0.1,1.9c0,1.1,0,1.4-1,1.4l-0.1,0l0,0.4l0.1,0c0.2,0,0.6,0,1.1-0.1
			l0.8-0.1l0.6,0l0.1,0l0.8,0l0-0.1V48l-0.1,0c-1-0.1-1-0.2-1.1-0.4c0,0,0-0.1,0-0.1c0-0.5,0-1,0-1.5c0-0.4,0-0.9,0-1.3
			c0,0,1.5-2.2,1.5-2.2c0.5-0.7,0.7-1.1,1.7-1.1l0.1,0v-0.4l-0.1,0c-0.1,0-0.5,0-0.9,0l-0.5,0l-0.6,0l-0.4,0
			C147.6,40.8,147,40.7,147,40.8L147,40.8L147,40.8z M140.3,40.6h-0.2l0,0c0,0-0.1,0.1-0.5,0.2l-1.5,0H136l-1.6,0
			c-0.4,0-0.5-0.1-0.5-0.2l0,0h-0.3l0,0c0,0.1-0.5,1.4-0.6,1.5l0,0l0.3,0.2l0-0.1c0.2-0.6,0.5-0.9,1.8-0.9c0.4,0,0.8,0,1,0
			c0.1,1,0.1,2,0.1,2.7c0,0.7,0,2.8-0.1,3.3c0,0.2-0.1,0.3-0.7,0.4c0,0-0.5,0.1-0.5,0.1l-0.2,0l0.1,0.4l0.6,0l0.2,0l1.2,0l0.2,0
			l0.7,0l0.5,0l0.5,0l0-0.1l0-0.4l-0.3,0l-0.1,0c-0.3,0-0.6-0.1-0.6-0.2c-0.1-0.1-0.2-0.6-0.2-2.7l0-1.5l0-1.8c0-0.1,0-0.2,0.7-0.2
			l0,0l0.4,0l0.1,0c1.2,0,1.3,0.3,1.5,0.8l0.1,0.2l0.3-0.2l-0.1-0.4C140.5,41.2,140.4,40.7,140.3,40.6L140.3,40.6L140.3,40.6z
			 M127.8,40.8v0.4l0.1,0c1,0,1.1,0.2,1.2,0.4c0.1,0.3,0.2,2.5,0.2,3.3V45c0,0.6,0,2.2-0.2,2.5c-0.1,0.1-0.3,0.3-1.3,0.4l-0.1,0v0.4
			l1.2,0h1.1l1.8,0.1l0-0.1l0-0.4h-0.1c-0.8,0-1,0-1.1-0.3c0-0.2-0.1-0.9-0.1-2.1c0-2.9,0-3.7,0.2-4c0.2-0.3,0.9-0.3,1.1-0.3l0.1,0
			v-0.4h-0.9c0,0-1.3,0-1.3,0l-0.8,0l-0.4,0L127.8,40.8L127.8,40.8L127.8,40.8z M121.1,42.8c0,1.3,1.1,1.7,1.9,2.1l0.1,0
			c1.4,0.6,2,0.8,2,1.7c0,0.6-0.4,1.2-1.3,1.2c-0.8,0-1.4-0.3-1.7-0.6c-0.4-0.4-0.5-0.9-0.6-1.1l0,0H121l0,0.1
			c0.2,0.8,0.3,1.2,0.3,2.1l0,0.1l0.4,0l0,0c0,0,0.1-0.2,0.2-0.2c0.1,0,0.3,0.1,0.5,0.1l0.1,0c0,0,0.1,0,0.1,0
			c0.2,0.1,0.4,0.1,0.9,0.1c1.8,0,2.8-1.1,2.8-2.2c0-1.5-1.5-2-2.4-2.4c-0.9-0.4-1.6-0.7-1.6-1.4c0-0.7,0.6-1.2,1.4-1.2
			c0.8,0,1.3,0.4,1.4,0.6c0.3,0.3,0.4,0.6,0.5,0.9l0,0l0.1,0h0.3l-0.1-1c0-0.4,0.1-0.7,0.1-0.9l0-0.1l-0.3-0.1c0,0-0.2,0.1-0.2,0.2
			c-0.7-0.2-1-0.2-1.5-0.2C122.2,40.7,121.1,41.6,121.1,42.8z M115.8,40.7c1.6,0,2.7,0.8,2.7,2.1c0,1-0.9,1.6-1.7,1.9
			c1.5,2.1,1.8,2.5,2.4,3c0,0,0.5,0.5,1.1,0.5l0.1,0l0,0.4h-0.1c-1.3,0-2-0.5-2.3-0.8c-1.1-0.9-2.3-2.6-2.5-3c-0.1,0-0.8,0-0.9,0
			c0,0.1,0,1,0,1s0,0.3,0,0.3c0,0.5,0,1.2,0.1,1.5c0.1,0.1,0.7,0.3,1,0.4l0,0l0,0.4l-0.1,0c-0.4-0.1-1.2-0.1-1.6-0.1
			c-0.3,0-1.4,0.1-1.7,0.1l-0.1,0l-0.1-0.3l0.1,0c0.2,0,0.8-0.2,0.9-0.4c0.1-0.2,0.1-1.6,0.1-2.1l0-0.2v-1.8c0-2.3-0.1-2.3-1-2.3
			l-0.1,0l0-0.4l0.1,0c0,0,0.7,0,0.7,0l0.7,0c0.2,0,0.6,0,1-0.1h0h0L115.8,40.7z M114.6,44.2c0.2,0,0.5,0,0.7,0
			c0.7,0,1.8-0.2,1.8-1.4c0-0.6-0.5-1.6-1.8-1.6c-0.7,0-0.7,0-0.7,1.3C114.7,42.5,114.6,44.1,114.6,44.2z M110.2,40.7
			c-0.9,0.1-2.4,0.1-3.3,0.1c-0.6,0-2,0-2.6-0.1l-0.1,0v0.4l0.1,0c0.6,0.1,0.7,0.1,0.7,0.3c0.1,0.2,0.1,0.9,0.1,3.1
			c0,1-0.1,2.5-0.2,3c0,0.3-0.4,0.3-0.9,0.4l-0.1,0l0.1,0.4l0.1,0c1-0.1,2.2-0.1,3-0.1l3,0l0,0c0.2-0.3,0.4-0.6,0.6-1.8l0-0.1
			l-0.4,0l0,0c-0.3,0.7-0.8,1.4-2.6,1.4c-0.6,0-0.9-0.1-1.3-0.2c0-0.2-0.1-0.5-0.1-1.4c0,0,0-1.1,0-1.4c0.5-0.1,0.9-0.1,1.1-0.1
			c1.5,0,1.6,0.1,1.8,1l0,0h0.4l0-0.1c0-1,0-1.2,0-2.3l0-0.1h-0.4l0,0c-0.1,0.6-0.3,0.7-0.5,0.7c-1.1,0.1-2.1,0.1-2.4,0.1
			c0-0.1,0-1,0-1c0-0.5,0-1.2,0.1-1.7c0.4-0.1,1.1-0.1,1.4-0.1c0.8,0,1.3,0.1,1.5,0.3c0.2,0.2,0.2,0.5,0.2,0.8l0,0.1l0.4,0.1v-0.1
			c0-0.1,0-0.4,0.1-0.6l0-0.3C110.3,41.2,110.3,41,110.2,40.7L110.2,40.7L110.2,40.7z M93.9,40.8l0,0.3l0.1,0c1,0.1,1.1,0.1,1.9,1.8
			l1.7,3.4l0,0c0.3,0.6,0.7,1.5,0.9,2l0,0h0.4l0,0c0.3-0.7,0.4-1.3,1-2.4l1.8-3.6c0.4-0.8,0.6-1.1,1.4-1.2l0.1,0v-0.4l-0.1,0
			c-0.5,0-0.9,0-1.4,0c0,0-1.4,0-1.4,0l0,0.1l0,0.4l0.1,0c0.4,0,0.9,0,0.9,0.5c0,0.2-0.2,0.6-0.3,0.8l0,0.1
			c-0.4,0.8-0.6,1.3-0.9,1.8l-0.8,1.7c0,0-0.1,0.3-0.2,0.4c-0.8-1.3-2.3-4.9-2.3-5.1c0-0.1,0-0.1,0.6-0.2l0.2,0v-0.4l-1.1,0l-0.6,0
			C95.3,40.8,94.4,40.8,93.9,40.8L93.9,40.8L93.9,40.8z M88.9,40.8v0.4l0.1,0c1,0,1.1,0.2,1.2,0.4c0.1,0.3,0.2,2.5,0.2,3.3V45
			c0,0.6,0,2.2-0.2,2.5c-0.1,0.1-0.3,0.3-1.3,0.4l-0.1,0v0.4l1.2,0H91l1.8,0.1l0-0.1l0-0.4h-0.1c-0.8,0-1,0-1.1-0.3
			c0-0.2-0.1-0.9-0.1-2.1c0-2.9,0-3.7,0.2-4c0.2-0.3,0.9-0.3,1.1-0.3l0.1,0v-0.4H92c0,0-1.3,0-1.3,0l-0.8,0l-0.4,0
			C89.6,40.8,88.9,40.8,88.9,40.8L88.9,40.8L88.9,40.8z M84.5,40.7L84.5,40.7L84.5,40.7l-0.1,0.4l0.1,0c1.5,0.1,1.2,0.1,1.3,3.1
			c0,0,0,1.8,0,2c-0.1-0.1-5.2-5.4-5.2-5.4l0,0l-0.8,0l-0.6,0l0,0l-0.5,0l0,0.1l0,0.4l0,0c1,0.2,1.2,0.3,1.2,2.4c0,0,0,1.3,0,1.3
			c0,0.5-0.1,2-0.1,2.4c0,0.4-0.2,0.5-0.5,0.5c0,0-0.5,0.1-0.5,0.1l0,0.1v0.3l1.8-0.1l0.8,0c0,0,0.6,0,0.6,0l0-0.1v-0.4l-0.1,0
			c-1.4-0.2-1.4-0.4-1.4-1.6l0-3.1c0,0,0-0.3,0-0.4c0.3,0.3,5.4,5.6,5.4,5.7l0,0l0.5,0l0-0.1c0-0.6,0-2.2,0-2.9c0-1,0-3.4,0.1-3.7
			c0.1-0.5,0.5-0.6,0.9-0.6h0.1v-0.4h-0.1c-0.8,0-1.2,0.1-1.6,0l-0.2,0l-0.6,0L84.5,40.7z M70.9,40.8l-0.4,0c-0.5,0-1.5,0-1.7,0
			l-0.1,0l0,0.4h0.1c0.5,0,0.7,0,0.8,0.1c0.2,0.1,0.3,1,0.3,2.1l-0.1,2.4c0,1.7,1.1,2.6,3.1,2.6c3.2,0,3.4-1.7,3.5-5.3l0-1.1
			c0,0,0,0,0,0c0-0.5,0-0.7,0.9-0.8l0.1,0l0-0.4l-0.2,0l-1.3,0l-1,0l-0.4,0l0,0.1v0.4h0.1c0.4,0,0.7,0,0.9,0.2
			c0.2,0.2,0.3,1.2,0.3,1.7v0.7c0,2.5-0.2,4-2.5,4c-2.1,0-2.1-1.7-2.1-2.5v-1.4c0-2.6,0.1-2.6,1.3-2.7l0.1,0v-0.4l-0.1,0
			C72,40.7,71.4,40.8,70.9,40.8z"/>
		<g>
			<g>
				<g>
					<path class="st0" d="M24.4,27.9C24.2,28,24,28.2,24,28.4c-0.2,0-0.3,0-0.5,0.1c-0.2,0.1-0.3,0.3-0.3,0.5c0,0,0,0.2,0,0.2
						c0,0.3,0.1,0.6,0.5,0.8c0,0,0,0.1,0,0.1c0,0.1,0,0.3,0.3,0.5c0.1,0.1,0.2,0.1,0.3,0.2c0,0.1-0.1,0.2-0.1,0.2l0,0.3
						c0.1,0.3,0.3,0.6,0.9,0.6c0,0.1,0.1,0.2,0.2,0.3c0.2,0.2,0.4,0.3,0.8,0.2c0,0.1-0.1,0.2-0.1,0.3c0,0.2,0.1,0.4,0.2,0.5
						c0.3,0.5,0.9,0.2,1.2,0.1c0.2,0.2,0.4,0.3,0.7,0.2c0.5-0.1,0.7-0.4,0.8-0.7c0,0,0.4-0.1,0.4-0.1l0.1,0c0.2-0.1,0.4-0.4,0.5-0.7
						c0.3,0.3,0.6,0.7,0.7,0.8c0.1,0.1,0.2,0.4,0.6,1c0,0,0.3,0.5,0.4,0.6c-0.1,0.6-0.4,1.1-0.8,1.3L30.4,36
						c-0.6,0.3-1.2,0.6-1.6,0.9c0,0,0,0,0,0c-0.3,0-0.5,0.1-0.6,0.1c-0.2-0.1-0.4-0.1-0.6-0.1c-0.8,0-1.1,0.4-1.2,0.7
						c-0.3,0.5-0.2,1.1,0,1.4c0.3,0.4,0.7,0.6,1.2,0.6c0.2,0,0.4-0.1,0.6-0.1c0.2,0.1,0.3,0.1,0.5,0.1c0.2,0,0.4-0.1,0.6-0.1
						c0.2,0.1,0.3,0.1,0.5,0.1c0.2,0,0.4-0.1,0.5-0.1c0.1,0.1,0.3,0.1,0.5,0.1c0.3,0,0.4-0.1,0.6-0.1c0.2,0.1,0.3,0.1,0.5,0.1
						c0.2,0,0.4-0.1,0.5-0.1c0.1,0.1,0.3,0.1,0.5,0.1c0.3,0,0.4-0.1,0.6-0.1c0.2,0.1,0.3,0.1,0.5,0.1c0.2,0,0.4-0.1,0.5-0.1
						c0.1,0.1,0.3,0.1,0.5,0.1c0.3,0,0.4-0.1,0.6-0.1c0.2,0.1,0.3,0.1,0.5,0.1c0.2,0,0.4-0.1,0.5-0.1c0.1,0.1,0.3,0.1,0.5,0.1
						c0.3,0,0.5-0.1,0.6-0.1c0.2,0.1,0.4,0.1,0.6,0.1c0.6,0,1-0.2,1.3-0.7c0.2-0.5,0.1-1.1-0.1-1.4c-0.3-0.4-0.7-0.6-1.2-0.6
						c-0.2,0-0.4,0.1-0.5,0.1c0,0-0.2,0-0.2-0.1c-0.2-0.3-0.6-0.5-1.4-0.8L36.2,36c-0.8-0.3-1-0.6-1.2-0.9l0,0
						c0-0.1-0.2-0.6-0.2-1.2c0-0.4,0.1-1,0.3-1.4c0.2-0.3,0.4-0.4,0.6-0.6c0.1,0.2,0.1,0.4,0.2,0.5l0,0l0,0l0.4,0.2l0-0.1
						c0.2,0.4,0.4,0.7,0.8,0.8c0.2,0,0.3,0,0.4-0.1c0.2,0.1,0.3,0.3,0.6,0.2c0.2,0,0.4-0.1,0.5-0.2c0.5,0.1,0.8-0.1,0.9-0.3l0.1-0.4
						v0c0-0.2-0.1-0.3-0.1-0.4c0,0,0.1,0,0.1,0c0.1-0.1,0.2-0.2,0.3-0.3c0.4,0,0.6-0.2,0.6-0.4c0,0,0-0.1,0-0.1c0,0,0,0,0,0
						c0.2,0.1,0.4,0.1,0.7,0c0.2-0.1,0.3-0.2,0.4-0.4c0.2,0,0.4,0,0.6-0.1c0.2-0.1,0.3-0.3,0.4-0.6c0,0,0-0.1,0-0.1
						c0-0.3-0.1-0.7-0.8-0.9c0-0.2-0.1-0.3-0.2-0.5c-0.3-0.3-0.7-0.3-1-0.2c0.1-0.1,0.2-0.1,0.2-0.2c0.4,0.1,1,0.2,1.3-0.4
						c0,0,0.1-0.3,0.1-0.3c0,0,0-0.2-0.1-0.3c0.3-0.3,0.4-0.6,0.4-0.8l-0.1-0.4c-0.2-0.4-0.5-0.5-0.9-0.5c0-0.1,0-0.2-0.1-0.2
						c0,0,0,0,0,0c0-0.1,0.1-0.3,0.1-0.3l-0.1-0.3c-0.1-0.2-0.3-0.4-0.5-0.5c-0.2-0.1-0.4-0.1-0.6,0c0.2-0.2,0.3-0.3,0.3-0.5
						c0,0,0-0.1,0-0.1c0,0,0,0,0,0c0-0.2-0.1-0.4-0.2-0.5c-0.2-0.3-0.6-0.4-1-0.3c-0.1-0.1-0.2-0.2-0.4-0.3
						c-0.4-0.1-0.7,0.1-0.9,0.3c-0.1,0-0.2-0.1-0.2-0.1l0,0c0,0-0.1,0-0.1,0c0-0.2-0.1-0.4-0.3-0.6c-0.2-0.2-0.5-0.3-0.7-0.3
						c-0.1,0-0.2,0-0.3,0.1c0.1-0.2,0.2-0.3,0.2-0.5l-0.1-0.3c-0.1-0.2-0.3-0.4-0.4-0.4c0,0,0,0,0,0c0-0.7-0.4-0.9-0.6-0.9
						c-0.3-0.1-0.7,0-0.9,0.4c-0.1,0-0.1-0.1-0.2-0.1c-0.2-0.2-0.3-0.3-0.5-0.3c-0.6-0.1-0.8,0.5-0.9,0.8c-0.1,0-0.3,0-0.4,0.1
						c0,0-0.1,0.1-0.2,0.2c0,0-0.1,0-0.1,0c-0.1-0.6-0.4-0.8-0.6-0.8c-0.2,0-0.3,0-0.4,0c-0.5-0.5-0.9-0.5-1.1-0.4l0,0
						c-0.3,0.1-0.4,0.4-0.4,0.7c0,0,0.1,0.3,0.1,0.4c-0.1,0.1-0.1,0.1-0.2,0.2c-0.3-0.1-0.6,0-0.8,0.1c-0.2,0.2-0.4,0.4-0.4,0.7
						c0,0.2,0.1,0.4,0.1,0.6c-0.1,0.1-0.2,0.3-0.3,0.5c0,0,0,0.1,0,0.1c0,0,0,0.1,0.1,0.2c-0.2,0-0.4,0.1-0.6,0.3
						c-0.1,0.1-0.2,0.3-0.2,0.4c-0.1-0.4-0.4-0.6-0.7-0.6c-0.2,0-0.3,0.1-0.4,0.2c-0.3-0.2-0.5-0.2-0.7-0.1
						c-0.2,0.1-0.5,0.3-0.5,0.9c0,0,0,0.2,0,0.3c-0.1,0.1-0.2,0.2-0.3,0.3c0,0,0,0,0,0c0,0,0,0,0,0c0,0,0,0,0,0c0,0,0,0.1-0.1,0.2
						c0,0,0,0,0,0c0,0.2,0.1,0.3,0.2,0.4c0,0,0,0,0,0c-0.1,0-0.3,0.2-0.4,0.4c-0.3,0-0.5,0.2-0.7,0.5c0,0-0.1,0.4-0.1,0.4l0,0
						l0.1,0.4c0.1,0.2,0.3,0.3,0.5,0.4C24.4,27.8,24.4,27.8,24.4,27.9C24.5,27.9,24.4,27.9,24.4,27.9z M24.8,27.6l-0.1-0.1
						c-0.2-0.1-0.4-0.2-0.4-0.3c0,0,0-0.2-0.1-0.3c0-0.1,0.1-0.4,0.1-0.4l0,0.1c0.1-0.2,0.3-0.3,0.5-0.3l0.1,0l0-0.1
						c0-0.2,0.2-0.3,0.3-0.3l0.5-0.1l-0.2-0.2c-0.2-0.1-0.2-0.3-0.2-0.4c0,0,0-0.2,0-0.2c0-0.1,0.1-0.2,0.3-0.2l0.1,0l-0.1-0.4
						c0-0.3,0.1-0.5,0.3-0.6c0.2-0.1,0.3,0,0.5,0.1l0.1,0.1l0.1-0.1c0.1-0.1,0.2-0.2,0.3-0.2c0.2,0,0.4,0.1,0.5,0.6l0,0.1
						c0,0,0.2-0.1,0.2-0.1c0.1,0,0.2,0.1,0.2,0.1l0.1-0.1L27.9,24l0,0c0-0.1,0-0.2,0.1-0.3c0.2-0.2,0.3-0.2,0.5-0.2l0.2,0l-0.1-0.2
						l0-0.3c0,0,0-0.1,0-0.1c0-0.1,0.1-0.2,0.2-0.3l0.1-0.1L29,22.4c-0.1-0.2-0.2-0.3-0.2-0.5c0-0.2,0.1-0.4,0.2-0.5
						c0.1-0.1,0.4-0.2,0.7-0.1l0.1,0.1l0.1-0.1c0-0.1,0.1-0.2,0.2-0.2l0.1,0l0-0.1l-0.1-0.4c0-0.1,0-0.3,0.3-0.4
						c0.3-0.1,0.6,0,0.9,0.3l0.1,0.1l0.1,0c0.1,0,0.2,0,0.3,0c0.2,0.1,0.3,0.3,0.4,0.6l0,0.1l0.1,0l0.1,0l0.1,0.1l0.1,0l0.1-0.1
						l0.2-0.2c0.1-0.1,0.2-0.1,0.3,0l0.1,0l0-0.1c0.1-0.4,0.3-0.7,0.6-0.7c0.2,0,0.3,0.1,0.4,0.2l0,0l0.1,0c0.1,0,0.2,0,0.2,0.1
						l0.1,0.1l0.1-0.1c0.2-0.3,0.5-0.4,0.7-0.3c0.2,0,0.4,0.2,0.4,0.6c0,0,0,0.2,0,0.2l0.1,0c0.1,0,0.2,0.1,0.3,0.3l0.1,0.2
						c0,0.1-0.1,0.3-0.3,0.5l-0.1,0.1l0,0.1l0.1,0.4l0.2-0.2c0.2-0.1,0.3-0.2,0.5-0.2c0.2,0,0.3,0.1,0.5,0.2
						c0.1,0.1,0.2,0.3,0.2,0.4l0,0.2l0.2,0l0.2,0c0,0,0.2,0.1,0.2,0.1l0.1,0.1l0.1-0.1c0.2-0.2,0.4-0.4,0.7-0.3
						c0.2,0,0.2,0.1,0.3,0.2l0.1,0.1l0.1,0c0.4-0.1,0.6-0.1,0.8,0.2c0.1,0.1,0.1,0.2,0.1,0.3c0,0,0,0.1,0,0.1c0,0.1-0.1,0.2-0.3,0.4
						L40,24.2l0.1,0.5l0.2-0.1c0.2-0.1,0.4-0.1,0.6,0c0.1,0,0.2,0.2,0.3,0.3l0.1,0.3c0,0-0.1,0.2-0.1,0.2l0,0.1l0.1,0.1l0.1,0.1
						c0,0,0,0.1,0,0.2l0,0.2l0.2,0c0.4-0.1,0.6,0,0.7,0.3l0.1,0.4c0,0.2-0.1,0.4-0.4,0.6l-0.1,0.1l0,0.1c0,0,0.1,0.2,0.1,0.2
						c0,0-0.1,0.2-0.1,0.2c-0.2,0.3-0.6,0.3-1,0.2l-0.1,0l-0.1,0.2c0,0.1-0.1,0.2-0.3,0.3l-0.1,0.1l0.1,0.2c0,0,0,0.1,0,0.1
						c0,0,0,0.1,0,0.1l0,0.3l0.3-0.2c0.4-0.2,0.7-0.3,0.9,0c0.1,0.1,0.2,0.2,0.2,0.4v0.1l0.1,0c0.4,0.1,0.6,0.3,0.6,0.6
						c0,0,0,0.1,0,0.1c0,0.2-0.1,0.3-0.2,0.4c-0.2,0.1-0.3,0.1-0.5,0.1l-0.1,0l0,0.1c0,0.2-0.1,0.3-0.2,0.3c-0.2,0.1-0.4,0-0.5,0
						l-0.1,0L40.5,31l-0.1,0.1l0,0.1l0,0.1c-0.1,0.2-0.2,0.2-0.5,0.2l-0.1,0l0,0.1c0,0.1-0.1,0.1-0.1,0.2c0,0-0.2,0-0.2,0l-0.1,0
						l-0.1,0.2l0.1,0.1c0.1,0.1,0.1,0.2,0.2,0.3c0,0.1-0.1,0.3-0.1,0.3c-0.1,0.1-0.2,0.2-0.6,0.2l-0.1,0L38.6,33
						c-0.1,0.1-0.2,0.2-0.4,0.2c-0.2,0-0.3-0.1-0.5-0.2l-0.1-0.1L37.6,33c-0.1,0.1-0.2,0.1-0.3,0.1c-0.3,0-0.4-0.3-0.6-0.6l0,0
						l-0.1,0l-0.4-0.2c0,0-0.1-0.2-0.2-0.6l0-0.2l-0.2,0.1c-0.3,0.2-0.6,0.5-0.9,0.8c-0.3,0.5-0.4,1.1-0.4,1.6
						c0,0.6,0.1,1.2,0.2,1.3l0,0c0.2,0.3,0.4,0.7,1.3,1.1l0.1,0.1c0.8,0.3,1.1,0.5,1.3,0.8l0,0l0.4,0.1l0.1,0
						c0.2-0.1,0.3-0.1,0.5-0.1c0.4,0,0.7,0.1,1,0.5c0.2,0.2,0.2,0.7,0,1.1c-0.2,0.4-0.5,0.5-1,0.5c-0.2,0-0.4-0.1-0.6-0.1l-0.1,0
						l-0.1,0c-0.1,0.1-0.3,0.1-0.5,0.1c-0.2,0-0.3-0.1-0.4-0.1l-0.1,0l-0.1,0c-0.1,0.1-0.3,0.1-0.5,0.1c-0.1,0-0.3-0.1-0.4-0.1
						l-0.1,0l-0.1,0c-0.1,0-0.3,0.1-0.5,0.1c-0.2,0-0.3-0.1-0.4-0.1l-0.1,0l-0.1,0c-0.1,0.1-0.3,0.1-0.5,0.1c-0.1,0-0.3-0.1-0.4-0.1
						l-0.1,0l-0.1,0c-0.1,0-0.2,0.1-0.5,0.1c-0.1,0-0.3,0-0.4-0.1l-0.1,0l-0.1,0c-0.1,0.1-0.3,0.1-0.5,0.1c-0.1,0-0.3-0.1-0.4-0.1
						l-0.1,0l-0.1,0c-0.1,0-0.3,0.1-0.5,0.1c-0.2,0-0.3-0.1-0.4-0.1l-0.1,0l-0.1,0c-0.1,0.1-0.3,0.1-0.5,0.1c-0.1,0-0.3-0.1-0.4-0.1
						l-0.1,0l-0.1,0c-0.2,0.1-0.3,0.1-0.5,0.1c-0.2,0-0.3-0.1-0.5-0.1l-0.1,0l-0.1,0c-0.2,0.1-0.3,0.1-0.5,0.1c-0.4,0-0.7-0.2-1-0.5
						c-0.2-0.2-0.2-0.7,0-1.1c0.1-0.2,0.4-0.5,1-0.5c0.2,0,0.4,0,0.6,0.1l0.1,0l0.1,0c0.1-0.1,0.3-0.1,0.5-0.1l0.1,0l0,0
						c0.4-0.3,1.2-0.7,1.6-0.9l0.2-0.1c0.5-0.3,0.9-0.8,1-1.6l0-0.1l-0.4-0.7c-0.4-0.6-0.5-0.8-0.6-1c-0.1-0.2-0.5-0.8-0.9-1.1
						l-0.2-0.1l-0.1,0.2c-0.2,0.5-0.4,0.7-0.5,0.8c0,0-0.2,0-0.2,0c0,0-0.1-0.2-0.1-0.2l-0.1,0.2c-0.1,0.3-0.3,0.5-0.7,0.6
						c-0.2,0-0.4,0-0.5-0.2L27.5,33l-0.1,0.1c-0.4,0.2-0.8,0.3-0.9,0.1c-0.1-0.1-0.1-0.2-0.1-0.3c0-0.2,0.1-0.4,0.3-0.6L26.4,32
						c-0.4,0.3-0.7,0.3-0.9,0.1c-0.1-0.1-0.1-0.2-0.2-0.3l0-0.1l-0.1,0c-0.4,0-0.6-0.1-0.7-0.4c0,0,0-0.1,0-0.2c0,0,0-0.1,0-0.2
						c0,0,0.3-0.2,0.3-0.2l-0.4-0.1c-0.1,0-0.3-0.1-0.4-0.2c-0.1-0.1-0.2-0.2-0.2-0.3l0.1-0.2l-0.1-0.1c-0.3-0.1-0.5-0.3-0.5-0.6
						c0,0,0-0.1,0-0.1c0-0.1,0.1-0.3,0.2-0.3c0.1-0.1,0.3-0.1,0.4-0.1l0.2,0l0-0.2c0-0.2,0.1-0.3,0.3-0.4c0,0,0.3,0,0.3,0l0.1,0
						l-0.1-0.1c0,0-0.1-0.2-0.1-0.3C24.7,27.8,24.8,27.6,24.8,27.6z"/>
				</g>
			</g>
			<path class="st0" d="M31.3,38.5c0.1,0.2,0.4,0.3,0.6,0.3c0.3,0,0.4-0.1,0.4-0.1c0.1-0.1,0.1-0.1,0.2,0c0,0,0.2,0.1,0.4,0.1
				c0.1,0,0.2,0,0.3,0c0,0-0.1-0.1-0.1-0.1l-0.6-0.9c-0.1-0.2-0.4-0.3-0.6-0.3c-0.3,0-0.4,0.1-0.4,0.1c-0.1,0.1-0.1,0.1-0.2,0
				c0,0-0.2-0.1-0.4-0.1c-0.1,0-0.2,0-0.3,0c0,0,0.1,0.1,0.1,0.1L31.3,38.5z"/>
			<path class="st0" d="M27,38.5c-0.1-0.1-0.1-0.5,0-0.7c0.1-0.2,0.3-0.3,0.7-0.3c0.3,0,0.6,0.1,0.8,0.3l0.6,0.9
				c0,0,0.1,0.1,0.1,0.1c-0.1,0-0.2,0.1-0.4,0.1c-0.3,0-0.5-0.1-0.5-0.1c-0.1,0-0.1,0-0.2,0c0,0-0.1,0.1-0.4,0.1
				C27.3,38.9,27.1,38.8,27,38.5z"/>
			<path class="st0" d="M30.4,25.2c0.1-0.1,0.3-0.2,0.5-0.3c0.2-0.1,0.5-0.2,0.7-0.3c-0.3-0.5-0.6-0.5-0.7-0.5l-0.2,0c0,0,0,0,0,0
				c0,0-0.2-0.1-0.2-0.1c0,0,0,0.2,0,0.2c0,0,0,0.2,0,0.2l0,0.1C30.3,24.5,30.1,24.8,30.4,25.2z"/>
			<path class="st0" d="M33.5,24C33.5,24,33.5,24,33.5,24C33.5,24,33.5,24,33.5,24L33.5,24z"/>
			<path class="st0" d="M27.4,27.1l0,0.1l-0.2,0.1c0,0-0.1,0-0.1,0c0,0,0,0,0,0c-0.1,0-0.2,0.1-0.3,0.2c0,0.2,0.1,0.3,0.2,0.3
				c0,0,0.2,0.2,0.2,0.2c0,0,0,0.1,0,0.1c0.2,0,0.3,0,0.6,0.1c0,0,0.1,0,0.1-0.1c0.2-0.1,0.5,0.1,0.6,0.2c0.1-0.1,0.1-0.3,0.3-0.2
				c0.2,0.1,0.4,0.2,0.5,0.5c0-0.1,0.1-0.1,0.1-0.1c0,0,0,0,0-0.1c0-0.1,0-0.2,0.1-0.2c0,0,0.1-0.1,0.1-0.1c0,0,0,0,0,0
				c-0.1-0.1-0.2-0.2-0.2-0.3c-0.3,0.1-0.8,0.2-1.1,0.1c-0.2-0.1-0.3-0.2-0.3-0.5c-0.2-0.1-0.3-0.3-0.4-0.4
				C27.5,26.9,27.5,27,27.4,27.1z"/>
			<path class="st0" d="M26.7,28.7c-0.1,0-0.2,0-0.2,0.1c0,0.1,0,0.1,0,0.2c0,0,0,0,0,0.1l0,0.2l0.1,0.3c0.1,0.2,0.3,0.3,0.4,0.4
				l0.5-0.9c-0.1-0.1-0.2-0.2-0.2-0.4c0-0.1,0-0.1,0.1-0.2c-0.3-0.1-0.5,0.1-0.6,0.2c0,0-0.1,0.1-0.1,0.1L26.7,28.7z"/>
			<path class="st0" d="M35.6,27.6C35.6,27.5,35.7,27.5,35.6,27.6c0.2-0.2,0.5-0.4,0.7-0.5c-0.1-0.2-0.2-0.4-0.2-0.5
				c-0.1,0.2-0.3,0.3-0.5,0.4c0,0,0.1,0.1,0.1,0.1c0,0,0,0.1,0,0.1C35.8,27.3,35.7,27.4,35.6,27.6C35.7,27.5,35.6,27.5,35.6,27.6z"
				/>
			<path class="st0" d="M37.9,28.2C37.9,28.2,37.9,28.2,37.9,28.2C37.9,28.2,37.9,28.2,37.9,28.2L37.9,28.2z"/>
			<path class="st0" d="M36.7,28.1c0,0.1-0.4,0.3-0.8,0.4c-0.2,0.1-0.3,0.1-0.5,0.2c0,0,0,0,0,0c-0.1,0.1-0.2,0.2-0.3,0.4
				c0.2,0.1,0.7,0.2,0.8,0.2l0-0.1c0-0.1,0-0.2,0.1-0.2l0.3,0c0.2,0.1,0.5,0.1,0.7,0l0-0.1l-0.1-0.2c0,0,0,0,0-0.1c0,0,0,0,0.1,0
				l0.3,0c0.1,0,0.2,0,0.3,0c0,0,0,0,0.1,0c0.1,0,0.1,0,0.1-0.1l0-0.1l-0.1-0.2c0-0.1,0.1-0.2,0.2-0.2c0.2-0.1,0.3-0.2,0.2-0.4
				c0-0.1-0.3,0-0.4,0c0,0-0.3,0-0.3,0l-0.1-0.2c0-0.1,0-0.1-0.1-0.1c-0.1,0-0.2,0.1-0.3,0.1c-0.1,0.1-0.2,0.1-0.3,0.1l-0.1-0.1l0,0
				c0,0-0.2,0-0.5,0.4l-0.3,0.2c0,0-0.1,0-0.2-0.1c-0.2,0-0.3,0.4-0.4,0.8c0.2-0.1,0.6-0.2,0.9-0.3C36.2,28.1,36.7,28,36.7,28.1z"/>
			<path class="st0" d="M27.9,26l-0.1,0l-0.1,0c0,0-0.1,0-0.1,0c0,0,0,0,0,0l0,0.2c0,0,0,0,0,0c0,0.3,0.1,0.7,0.5,0.9c0,0,0,0,0,0
				c0,0,0.1,0,0.2-0.1c0.3-0.3,0.5-0.8,0.5-1C28.4,25.9,28.1,26,27.9,26z"/>
			<path class="st0" d="M40.6,25.8c0,0-0.1,0-0.1,0.1c0.1,0.1,0.3,0.2,0.3,0.4c0,0,0,0,0,0.1c0,0.4-0.7,0.4-1,0.4
				c0,0.1,0.1,0.2,0.1,0.3c0,0,0,0.1,0,0.1c-0.2,0.5-1,0.4-1.4,0.4c0,0,0,0.1,0,0.1c0,0.1,0,0.1,0,0.1c0.1,0,0.2,0.1,0.2,0.1
				c0,0,0,0,0,0.1c0.4,0,0.7,0,0.9,0.1c0.1-0.1,0.2-0.1,0.3-0.1c0.2,0,0.4,0,0.4-0.1l0-0.1c0-0.1,0-0.2,0.1-0.3c0.1-0.1,0.2,0,0.5,0
				c0.2,0.1,0.6,0.1,0.7,0c0,0,0-0.1-0.1-0.2c-0.1-0.1-0.1-0.2-0.1-0.3l0.2-0.1c0.3-0.2,0.4-0.3,0.3-0.6c-0.1-0.1-0.2-0.1-0.4-0.1
				c-0.1,0-0.4,0.1-0.4-0.1l0-0.2c0-0.1,0-0.1,0-0.2c0,0-0.1-0.1-0.3-0.1C40.7,25.8,40.6,25.8,40.6,25.8z"/>
			<path class="st0" d="M36,26.1c0,0.1,0.1,0.1,0.1,0.1c0-0.1,0.1-0.2,0.1-0.3c0.2-0.3,0.6-0.5,0.7-0.4c0.2-0.1,0.5-0.2,0.8-0.2
				c0.1-0.1,0.2-0.4,0.4-0.5c0,0,0-0.1-0.1-0.2c-0.1-0.1-0.3,0-0.5,0.1c-0.1,0.1-0.2,0.1-0.4,0.1c0,0-0.1-0.1-0.1-0.1
				c0-0.1-0.1-0.2-0.2-0.3c-0.1,0-0.1,0.1-0.2,0.1c0,0.1,0.1,0.1,0.1,0.2c0,0,0,0.1,0,0.1c-0.1,0.2-0.2,0.3-0.3,0.4
				c0,0.1,0,0.2,0,0.2C36.4,25.7,36.3,25.9,36,26.1z"/>
			<path class="st0" d="M34.9,24.6c0.1-0.4-0.1-0.7-0.1-0.8l0-0.1c0-0.1,0-0.1-0.1-0.1c-0.1,0-0.2,0-0.2,0.1c0,0-0.1,0-0.1,0.1
				c-0.2,0.1-0.5,0.2-0.6,0.6C34.2,24.4,34.8,24.6,34.9,24.6C34.9,24.6,34.9,24.6,34.9,24.6z"/>
			<path class="st0" d="M38.3,25.6C38.3,25.6,38.2,25.6,38.3,25.6L38,25.7c0,0,0,0,0,0c-0.1,0-0.5-0.1-0.8,0.1c0,0.6,0.4,0.8,0.8,1
				c0.3-0.2,0.3-0.5,0.3-0.7c0-0.1,0-0.1,0-0.1l0-0.1l0-0.1C38.3,25.7,38.3,25.6,38.3,25.6z"/>
			<path class="st0" d="M35.2,29.6c0.1,0,0.1-0.1,0.1-0.1c-0.1,0-0.3-0.1-0.4-0.1c-0.1,0.2-0.2,0.3-0.3,0.5c-0.1,0.3-0.1,0.7-0.1,1
				c0,0,0,0.1,0,0.1c0.1-0.1,0.2-0.3,0.4-0.4c-0.1-0.2-0.2-0.5,0-0.8L35.2,29.6z"/>
			<path class="st0" d="M37.4,29.2c0.1-0.1,0.1-0.1,0.2-0.2c0,0,0,0,0,0c0,0,0-0.1,0-0.1c-0.1,0-0.2,0-0.3,0c0,0,0,0.1,0,0.1
				c0,0.1,0,0.1-0.1,0.2c-0.3,0.3-0.7,0.2-1,0.1c0,0,0,0,0,0c0,0.1,0,0.2-0.2,0.3c-0.1,0-0.2,0-0.4,0c0,0.2-0.2,0.3-0.3,0.3L35.2,30
				c-0.1,0.1-0.1,0.3,0,0.4c0.1-0.1,0.3-0.3,0.4-0.3c0,0,0.2-0.1,0.4-0.2c0.1,0,0.4-0.2,0.5-0.1c0.1,0.1-0.3,0.3-0.4,0.3
				c-0.2,0.1-0.3,0.1-0.3,0.2c-0.1,0.2-0.2,0.4-0.2,0.5c0.1,0,0.3,0,0.4,0l0.2-0.1c0.1,0,0.3-0.1,0.4-0.1c0,0,0,0,0,0l-0.1-0.1
				c0,0-0.1-0.1-0.1-0.2c0,0,0-0.1,0.1-0.1l0.3-0.1c0.3,0,0.5-0.1,0.5-0.3c0,0,0,0,0,0c0-0.1,0-0.1-0.1-0.1c0,0-0.1-0.1-0.1-0.2
				c0,0,0,0,0-0.1L37.4,29.2z"/>
			<path class="st0" d="M39.8,24.9c0-0.1-0.1-0.1-0.1-0.2c-0.2,0-0.4,0.1-0.5,0.3c-0.1,0.1-0.2,0.3-0.3,0.2l-0.2-0.1
				c-0.1-0.1-0.2-0.1-0.3-0.1c-0.1,0-0.2,0.2-0.3,0.3c0.1,0,0.3-0.1,0.4,0c0.1,0.1,0.1,0.3,0,0.4c0,0,0,0.1,0,0.1c0,0.1,0,0.2,0,0.3
				c0.3-0.2,0.8-0.5,0.9-0.5c0.1,0-0.4,0.5-0.8,0.8c-0.1,0.1-0.2,0.1-0.2,0.1c-0.1,0.1-0.1,0.2-0.3,0.3c0,0.1,0,0.2-0.1,0.3
				c0.1,0,0.1,0,0.2,0.1l0.1,0c0.3,0,1,0.1,1.1-0.2c0-0.1-0.1-0.2-0.1-0.3c-0.1-0.1-0.1-0.1-0.1-0.2c0-0.1,0.1-0.1,0.3-0.1
				c0.7,0,0.8-0.1,0.8-0.2c0-0.2-0.1-0.2-0.2-0.3L40.1,26c-0.1,0,0-0.1,0-0.1c0-0.1,0.2-0.2,0.3-0.3c0,0,0.1-0.1,0.1-0.1
				c0,0,0,0,0.1,0c0.2-0.1,0.3-0.3,0.2-0.5c0-0.1-0.1-0.1-0.1-0.1c-0.2-0.1-0.4,0.1-0.6,0.1c0,0-0.2,0-0.2,0
				C39.9,25.1,39.8,25,39.8,24.9z"/>
			<path class="st0" d="M39.6,28.5c-0.1-0.2-0.5-0.3-1-0.2c0,0.2-0.1,0.4,0,0.7c0,0.2,0.1,0.4,0.2,0.6c0,0,0,0,0,0.1
				c0.7-0.1,0.8-0.5,0.8-0.6l0.1-0.1l0.1-0.1c0,0,0.1-0.1,0.1-0.1c0,0-0.1-0.1-0.1-0.1C39.8,28.6,39.7,28.5,39.6,28.5z"/>
			<path class="st0" d="M34.4,28.8C34.4,28.8,34.5,28.8,34.4,28.8c0.1-0.1,0.2-0.1,0.3-0.1c0-0.1,0.1-0.3,0.2-0.6
				c-0.2,0.1-0.4,0.2-0.5,0.2C34.3,28.5,34.4,28.6,34.4,28.8C34.4,28.8,34.4,28.8,34.4,28.8z"/>
			<path class="st0" d="M35.5,27.2L35.5,27.2l-0.2-0.1c0,0-0.1,0-0.1-0.1c0,0,0,0,0.1-0.1l0.2-0.2c0.1-0.1,0.5-0.3,0.5-0.4l-0.1-0.1
				c0,0-0.1-0.1-0.1-0.1c0-0.1,0-0.2,0.1-0.2c0.2-0.2,0.4-0.4,0.3-0.6l-0.1,0l-0.2,0c-0.1-0.1-0.1-0.2-0.1-0.3c0-0.1,0-0.3-0.1-0.3
				c0,0-0.1,0-0.4,0.2L35.2,25c-0.1,0-0.2,0-0.2,0l-0.1,0c-0.2,0-0.2,0.4-0.3,0.6l-0.1,0.2c-0.1,0.1-0.1,0.1-0.2,0c0,0-0.1,0-0.1,0
				c-0.1,0-0.2,0.1-0.2,0.2c0,0,0,0.1,0,0.2c0,0.2,0.1,0.4,0.1,0.6c0,0.1,0.1,0.1,0.1,0.2c0,0.1,0,0.1-0.1,0.1l-0.1,0
				c0,0-0.1,0-0.1,0c0,0.1-0.1,0.1-0.1,0.2c0,0.2,0.1,0.5,0.2,0.7c0-0.1,0.1-0.2,0.1-0.3c0.1-0.3,0.6-1.1,0.7-1.1
				c0.1,0-0.4,0.9-0.5,1.2c0,0.2-0.1,0.3-0.1,0.4C34.7,27.9,35.5,27.5,35.5,27.2z"/>
			<path class="st0" d="M30.8,28.1c0-0.2,0.1-0.3,0.2-0.4c-0.1-0.1-0.1-0.2-0.1-0.4c0-0.1,0.1-0.3,0.2-0.4c-0.1-0.1-0.2-0.1-0.3,0
				c-0.1,0-0.2,0.1-0.2,0c0,0,0,0,0-0.1c-0.1-0.2-0.2-0.4-0.3-0.5l-0.1,0c-0.2,0.1-0.2,0.4-0.2,0.6c0,0.1,0,0.2-0.1,0.3l-0.1,0.1
				c-0.1,0-0.1,0-0.1,0.1c0,0.1,0.1,0.3,0.2,0.4c0.1,0.1,0.1,0.1,0.1,0.2c0,0-0.2,0.2-0.2,0.2c0,0,0,0.1,0,0.2c0,0,0,0,0,0.1
				c0.1,0.1,0.3,0.4,0.3,0.7c0,0,0,0,0,0l0.2,0c0,0,0,0,0.1,0.1c0-0.1-0.1-0.3-0.1-0.4c-0.1-0.6,0-0.8,0-0.9c0.1,0,0.1,0.2,0.2,0.9
				c0.1,0.4,0.1,0.7,0.2,0.7c0.1,0,0.1,0.1,0.2,0.1c0.1-0.1,0.4-0.3,0.4-0.5l0-0.1c0,0,0,0,0,0c0-0.1,0-0.1,0-0.2
				c0-0.1,0-0.2,0.1-0.3C31.2,28.6,30.8,28.5,30.8,28.1z"/>
			<path class="st0" d="M32.4,32.9c0-0.1,0-0.1,0-0.3c0-0.2,0-0.5-0.1-1c-0.2-1.1-0.8-1.3-1.1-1.4c0,0,0,0,0,0
				c0.1,0.2,0.1,0.4,0.1,0.7c0,0,0,0.1,0,0.1C31.3,31.9,32.1,32.7,32.4,32.9z"/>
			<path class="st0" d="M29.3,29.8c0.2,0.1,0.4,0.3,0.5,0.4c0,0,0,0,0,0c0,0,0,0,0,0c0.2,0.2,0.5,0.2,0.5,0.2l0-0.1
				c0-0.6-0.2-0.8-0.2-0.8c0,0-0.1,0.1-0.1,0.1c0,0.1-0.1,0.1-0.2,0.1c-0.1,0-0.1-0.1-0.1-0.1c0-0.4-0.2-0.7-0.3-0.8
				c0,0-0.1,0.1-0.1,0.3c0,0.1-0.1,0.1-0.2,0.1c-0.1,0-0.1-0.1-0.1-0.1c0-0.2-0.1-0.4-0.4-0.5c0,0,0,0.1,0,0.1
				c0,0.1-0.1,0.2-0.3,0.2l-0.1-0.1c-0.1-0.1-0.3-0.2-0.5-0.2c0,0-0.1,0-0.1,0.1c-0.1,0.2,0,0.3,0.2,0.4l0.1,0.2
				c0,0.1-0.1,0.2-0.2,0.2c0,0-0.1,0.1-0.1,0.1c0,0.1,0.1,0.2,0.3,0.2l0.2,0.1c0.1,0.1,0,0.2-0.1,0.3c0,0-0.1,0.1-0.1,0.1
				c0.1,0.2,0.3,0.3,0.5,0.3c0,0,0,0,0,0c0,0,0,0,0,0c0.1,0,0.1,0,0.2,0c0.1,0,0.3,0,0.3,0.1l-0.1,0.2c0,0-0.1,0.1-0.1,0.1
				c0.1,0.2,0.5,0.2,1,0c0-0.1-0.2-0.3-0.3-0.4c0,0,0,0,0,0c-0.2-0.1-0.3-0.2-0.5-0.4c0,0-0.4-0.4-0.4-0.5
				C28.8,29.4,29.3,29.8,29.3,29.8z"/>
			<path class="st0" d="M32.6,29.7C32.6,29.7,32.6,29.7,32.6,29.7c0,0.2,0.1,0.6,0.3,1c0,0,0.4,0.7,0.5,0.8c0.1-0.3,0.2-0.7,0.2-0.9
				c0-0.1,0-0.1,0-0.2c0-0.2,0-0.4-0.1-0.6l-0.1,0C33.1,29.8,33,29.8,32.6,29.7z"/>
			<path class="st0" d="M33.9,26.6c-0.1-0.2-0.2-0.4-0.2-0.6c0-0.1,0-0.2,0-0.3c0-0.1-0.1-0.2-0.2-0.3c0,0,0,0-0.1,0.1
				c-0.1,0.1-0.1,0.2-0.3,0.1L33,25.5c-0.2-0.3-0.4-0.5-0.6-0.4c-0.2,0-0.2,0.3-0.2,0.6c0,0.2,0,0.3-0.1,0.3c-0.1,0-0.2,0.1-0.2,0.2
				c0,0.2,0.1,0.3,0.2,0.4c0,0,0,0,0,0c0.3,0.1,0.5,0.4,0.6,0.7c0.1-0.1,0.4-0.2,0.5-0.1c0.2,0.2,0.3,0.6,0.3,0.8l0,0
				c0.1,0,0.1,0,0.2,0c-0.1-0.2-0.3-0.6-0.3-0.9c0-0.2,0-0.3,0.1-0.4C33.8,26.6,33.9,26.6,33.9,26.6z"/>
			<path class="st0" d="M33.7,29.1c0.1-0.5,0.2-0.8,0.2-0.9l-0.1,0c-0.1,0-0.2,0-0.3,0c0,0-0.1-0.1-0.1-0.1c0-0.1-0.1-0.6-0.2-0.7
				c0,0-0.2,0.1-0.2,0.1c-0.1,0.1-0.2,0.1-0.3,0.1c0,0-0.1-0.1-0.1-0.1c-0.1-0.3-0.4-0.7-0.5-0.6c-0.1,0-0.1,0.2-0.1,0.2
				c0,0.1,0,0.1-0.1,0.1c-0.1,0-0.1,0-0.2,0c0,0-0.2-0.2-0.4,0c-0.2,0.2,0,0.5,0,0.5c0,0,0,0.1,0,0.1c0,0,0,0.1-0.1,0.1
				c-0.1,0.1-0.2,0.2-0.2,0.3c0,0.1,0.2,0.2,0.4,0.2c0.1,0,0.3,0,0.3,0.2c0,0.1-0.1,0.2-0.1,0.2c-0.1,0.1-0.1,0.1-0.1,0.3
				c0,0.1,0.1,0.1,0.1,0.1c0.1,0.1,0.4,0,0.5-0.1l0.3-0.1c0,0,0.1,0,0.1,0c0,0,0,0,0,0.1c0,0,0,0.2,0,0.2l0.1,0.1
				c0.3,0.1,0.4,0.1,0.7,0.1l0,0c0,0,0-0.1-0.1-0.1c0,0,0,0,0,0c-0.1-0.2-0.2-0.4-0.4-0.5c-0.3-0.2-0.7-0.5-0.6-0.6
				c0-0.1,0.5,0.2,0.8,0.4c0.2,0.1,0.3,0.3,0.4,0.3C33.5,29,33.6,29.1,33.7,29.1z"/>
			<path class="st0" d="M33.6,37.3C33.6,37.3,33.6,37.3,33.6,37.3c0-0.1,0-0.3-0.1-0.4c-0.1-0.1-0.1-0.1-0.2-0.1
				c-0.2,0-0.3,0.2-0.4,0.3c0.1,0,0.1,0,0.2,0C33.3,37.2,33.4,37.3,33.6,37.3z"/>
			<path class="st0" d="M36.8,37.8c-0.1-0.2-0.4-0.3-0.6-0.3c-0.3,0-0.4,0.1-0.4,0.1c-0.1,0.1-0.1,0.1-0.2,0c0,0-0.2-0.1-0.4-0.1
				c-0.1,0-0.2,0-0.3,0.1c0,0,0.1,0.1,0.1,0.1l0.6,0.9c0.1,0.2,0.4,0.3,0.6,0.3c0.3,0,0.4-0.1,0.4-0.1c0.1-0.1,0.1-0.1,0.2,0
				c0,0,0.2,0.1,0.4,0.1c0.2,0,0.3,0,0.3-0.1c0,0-0.1-0.1-0.1-0.1C37.4,38.7,36.8,37.8,36.8,37.8z"/>
			<path class="st0" d="M30.8,37.2C30.9,37.2,30.9,37.2,30.8,37.2c0.3,0,0.5,0.1,0.6,0.1c0.1,0,0.1-0.1,0.3-0.1c0-0.1,0-0.1,0-0.2
				C31.5,37,31.1,37,30.8,37.2z"/>
			<path class="st0" d="M27.7,32.1c0-0.1,0.3-0.4,0.5-0.5c0.3-0.2,0.5-0.3,0.8-0.4c-0.1,0-0.2-0.1-0.2-0.2c0,0,0-0.1,0-0.1
				c0-0.1,0-0.1,0.1-0.2c-0.1,0-0.1,0-0.2,0c-0.1,0-0.1,0-0.2,0l0.1,0.2c0,0.1,0.1,0.1,0.1,0.2c0,0,0,0.1-0.1,0.1
				c-0.1,0-0.1,0-0.2,0c-0.1-0.1-0.5-0.3-0.7-0.1c0,0,0,0-0.1,0c0,0,0.1,0.1,0.1,0.1c0,0,0.1,0.1,0.1,0.2c0,0,0,0.1,0,0.1
				c-0.1,0.1-0.2,0.1-0.3,0c-0.2,0-0.3,0-0.5,0.1c-0.1,0.2-0.1,0.2,0,0.3c0,0.1,0.1,0.2,0.1,0.3l-0.1,0.1c-0.2,0.2-0.4,0.4-0.2,0.6
				c0.1,0,0.4-0.1,0.5-0.2c0,0,0.3-0.1,0.3-0.1c0.2,0,0.3,0.2,0.3,0.3c0,0.1,0,0.1,0.2,0.1c0.3-0.1,0.4-0.3,0.5-0.5
				c0.1-0.2,0.1-0.3,0.2-0.4c0.1-0.1,0.1-0.1,0.2,0c0.1,0,0.1,0.1,0.2,0.2c0,0,0,0,0,0c0.1-0.1,0.3-0.4,0.4-0.8c0,0,0,0,0,0
				c-0.2,0-0.4,0.1-0.5,0.1C28.6,31.7,27.7,32.2,27.7,32.1z"/>
			<path class="st0" d="M27.3,31.2c0,0,0-0.1,0-0.1c0,0,0,0,0,0c0-0.1,0.1-0.1,0.1-0.2c-0.1,0-0.2-0.1-0.3-0.2
				c-0.2-0.1-0.2-0.4-0.2-0.5c-0.1,0-0.2-0.1-0.3-0.2c0,0,0,0,0,0c-0.1-0.1-0.4-0.1-0.5,0c0,0,0,0.2,0,0.2c0,0.2,0,0.3-0.1,0.4
				c-0.1,0.1-0.3,0-0.4-0.1c-0.2-0.1-0.3-0.2-0.4-0.1l0,0.2l0,0.3L25,30.9c-0.1,0-0.2,0.1-0.2,0.1c0,0,0,0.1,0,0.1
				c0.1,0.2,0.2,0.2,0.4,0.2c0,0,0.3,0.1,0.3,0.1l0.1,0.2c0,0.1,0,0.2,0.1,0.2c0.2,0.2,0.5-0.1,0.7-0.3l0.2-0.1c0,0,0.1,0,0.1,0.1
				l0,0c0,0,0-0.1,0.1-0.1C26.9,31.2,27.1,31.2,27.3,31.2z"/>
			<path class="st0" d="M41.4,29.7c0,0-0.1,0-0.1,0c-0.1,0-0.1-0.1-0.1-0.3c0-0.1,0.1-0.2,0-0.3c-0.1-0.1-0.5,0.1-0.7,0.2
				c-0.1,0.1-0.2,0.1-0.3,0.1c-0.1,0-0.1-0.1-0.1-0.2c0-0.1,0-0.1-0.1-0.2c0,0,0,0,0,0c0,0,0,0,0,0c0,0.1-0.1,0.3-0.3,0.5
				c0.4,0,1,0.2,1,0.3c0,0.1-1,0-1.3,0c-0.1,0-0.1,0-0.2,0c-0.1,0-0.1,0-0.2,0.1c0,0.1,0.1,0.1,0.1,0.2l0.2,0c0.2,0,0.4-0.1,0.6,0
				c0.2,0.1,0.2,0.2,0.2,0.4c0,0.1,0,0.2-0.1,0.2c0,0,0,0,0,0c0.1,0,0.2,0.1,0.3,0.2c0,0,0-0.1,0-0.1c0,0,0.1-0.1,0.1-0.1
				c0.1-0.1,0.2,0,0.3,0c0.1,0,0.3,0.1,0.4,0.1c0.1,0,0.1-0.1,0.1-0.2c0-0.1,0-0.2,0.1-0.2l0.2,0c0.1,0,0.3,0.1,0.4,0
				c0,0,0.1-0.1,0.1-0.2C42,29.8,41.9,29.7,41.4,29.7z"/>
			<path class="st0" d="M25.8,30.2C25.8,30.2,25.9,30.2,25.8,30.2C25.9,30.2,25.9,30.2,25.8,30.2c0-0.1,0-0.1,0-0.2
				c0-0.1,0-0.3,0.1-0.3c-0.1,0-0.1,0-0.2,0c-0.3,0-1,0-1-0.1c0-0.1,0.9-0.2,1.2-0.1c0.1,0,0.3,0.1,0.4,0.1l-0.1-0.2
				c0,0,0-0.1,0-0.2c0,0,0,0,0-0.1c0,0,0,0,0,0c-0.2-0.3-0.4-0.5-0.5-0.5c-0.1,0-0.1,0-0.1,0.2c0,0.1,0,0.2-0.2,0.2
				c-0.1,0-0.2,0-0.3-0.1c-0.1-0.1-0.4-0.3-0.5-0.3c-0.1,0-0.1,0,0,0.2c0,0.1,0,0.3-0.1,0.3l-0.3,0c-0.1,0-0.3-0.1-0.4,0
				c0,0,0,0-0.1,0.1c0,0.2,0.1,0.3,0.5,0.4c0,0,0.2,0.1,0.2,0.1c0.1,0.1,0,0.2-0.1,0.3c-0.1,0.2-0.1,0.2-0.1,0.2
				c0.2,0.2,0.3,0.1,0.5-0.1l0.2-0.1c0.1,0,0.1,0,0.1,0C25.4,29.9,25.7,30.1,25.8,30.2z"/>
			<path class="st0" d="M36,31c-0.3,0-0.5,0.1-0.6,0.1c0,0-0.1,0-0.2,0c0,0-0.1-0.1-0.1-0.1c0,0,0,0,0,0c0-0.1,0.1-0.2,0.1-0.4
				c-0.3,0.3-0.7,0.8-0.9,1c0,0.1-0.1,0.1-0.2,0c0,0-0.1-0.1-0.1-0.1c0,0,0,0,0-0.1c0.1-0.1,0.1-0.4,0.1-0.6c0-0.3,0-0.7,0.2-1.1
				c0.1-0.3,0.3-0.6,0.5-0.9c-0.1,0.1-0.2,0.1-0.3,0.1c-0.3,0.1-0.4,0.2-0.4,0.1l-0.1-0.3c0,0,0-0.1,0-0.1c0,0.2-0.1,0.3-0.1,0.6
				c0,0.1-0.1,0.1-0.2,0.1c0,0-0.1,0-0.1,0c0,0,0,0,0,0c0.1,0.4,0.2,0.8,0.2,1c0,0.1,0,0.1,0,0.2c0,0-0.2,1.3-0.4,1.3
				c-0.1,0-0.1,0-0.2-0.1l-0.2-0.4l-0.4-0.7c-0.4-0.6-0.3-1.1-0.3-1.4l0,0c-0.2,0.1-0.5,0.2-0.7,0.1c0,0,0,0,0,0
				c-0.1,0.2-0.2,0.3-0.3,0.4c0,0,0.1,0,0.1,0c0.3,0.1,1.1,0.3,1.3,1.6c0.1,0.4,0.1,0.8,0.1,1.1c0,0.3,0,0.5-0.1,0.6
				c0,0-0.1,0.1-0.2,0c-0.1,0-1.4-0.9-1.4-2.2c0-0.9-0.3-1.1-0.4-1.1c0,0,0,0,0,0c0,0.1,0,0.3,0,0.4c0,0.2-0.1,0.3-0.2,0.3
				c-0.1,0-0.2,0-0.3,0c0,0.1,0.1,0.2,0.1,0.2c0,0,0,0,0,0.1c0,0.1-0.1,0.2-0.2,0.2c-0.2,0.1-0.3,0.1-0.4,0.1
				c0.7,0.3,1.3,1.2,1.4,1.5c0,0.1,0.3,0.6,0.5,0.9c0.5,0.8,0.5,0.8,0.5,0.9c-0.1,0.9-0.6,1.6-1.2,1.9l-0.2,0.1
				c-0.4,0.2-1,0.5-1.4,0.8c0,0,0,0,0,0c0.1-0.1,0.2-0.1,0.5-0.1c0.2,0,0.4,0.1,0.5,0.1c0,0,0,0,0-0.1c0.3-0.6,1-0.6,1.3-0.5
				c0-0.1,0-0.2,0.1-0.3c0.1-0.1,0.1-0.2,0.2-0.3c0.2-0.3,0.5-1,0.5-1c0.1,0,0.1,0.6-0.3,1.1c-0.1,0.1-0.1,0.2-0.2,0.3
				C32,36.7,32,36.8,32,36.9c0,0,0,0,0,0c0,0,0,0,0,0c0,0.1,0,0.2,0,0.2c0.2,0,0.3,0.1,0.5,0.1c0,0,0,0,0,0c0,0,0,0,0,0
				c0.2-0.4,0.4-0.7,0.8-0.7c0.2,0,0.3,0.1,0.4,0.2c0.1,0.1,0.2,0.3,0.2,0.4c0.1,0,0.1,0,0.2,0c0.2,0,0.4,0.1,0.5,0.2
				c0.1-0.1,0.3-0.1,0.6-0.1c0.2,0,0.3,0,0.4,0.1l0,0c-0.1-0.3-0.3-0.4-0.6-0.5c-0.4-0.2-0.9-0.4-1.1-1.1c-0.1-0.4-0.2-0.8-0.2-1.2
				c0-0.3,0-1.2,0.1-1.2c0.1,0,0.2,0.9,0.2,1.2c0,0.4,0.1,0.8,0.2,1.1c0.2,0.6,0.6,0.8,1,0.9c0.3,0.1,0.6,0.2,0.7,0.6
				c0,0,0,0.1,0.1,0.2c0.1,0,0.2,0,0.3,0c0.2,0,0.4,0.1,0.5,0.2c0.1,0,0.2-0.1,0.4-0.1C37,37.1,36.7,37,36,36.7l-0.1-0.1
				c-1-0.4-1.3-0.9-1.5-1.2l0,0c-0.2-0.3-0.6-2.1,0.2-3.3C35.1,31.4,35.7,31.1,36,31C36,31,36,31,36,31L36,31z"/>
			<path class="st0" d="M39.8,30.9c-0.1,0-0.2-0.1-0.2-0.2l0-0.3c0-0.1,0.1-0.1-0.1-0.2c0,0-0.3,0-0.4,0l-0.3,0
				c-0.1,0-0.1-0.1-0.2-0.2c0,0,0,0-0.1,0c-0.3,0.1-0.8,0.1-1.3-0.1c-0.2,0.1-0.4,0.2-0.6,0.2c0,0,0,0,0,0c0,0.1,0.1,0.1,0.1,0.2
				c0.4-0.1,0.7-0.1,0.8,0c0.1,0.1,0.1,0.1,0.1,0.2c0,0,0,0.1,0,0.1c0.1,0,0.2,0,0.2,0c0.4,0,0.6,0.1,0.7,0.2c0,0.1,0.1,0.1,0.1,0.2
				c0,0.1,0,0.2-0.1,0.2c0,0,0.1,0,0.1,0c0.1,0,0.2,0,0.2,0.1l0.1,0c0.1,0,0.2,0,0.3,0c0,0,0,0,0-0.1l0.1-0.2l0.3,0
				c0.2,0,0.2,0,0.2-0.1C40.1,31.1,40,31,39.8,30.9z"/>
			<path class="st0" d="M39,32.4l-0.1-0.2c0,0,0,0,0,0c0-0.1,0.1-0.2,0.1-0.2c0,0,0,0,0,0c0,0-0.2-0.1-0.3-0.1
				c-0.2,0-0.3-0.1-0.3-0.2c0,0,0-0.1,0-0.1c0-0.1,0-0.1,0.1-0.2c0-0.1,0-0.1,0-0.1c0,0,0,0,0,0c-0.1,0-0.3-0.1-0.5-0.1
				c-0.3,0-0.4-0.1-0.5-0.2l0-0.1c0,0,0-0.1,0-0.1c-0.1,0-0.4-0.1-1,0.1c0.2,0.1,0.4,0.2,0.6,0.3c0.2,0.1,0.4,0.5,0.4,0.5
				c-0.1,0.1-0.4-0.2-0.5-0.3c-0.2-0.1-0.5-0.3-0.7-0.4c0,0.3,0.1,0.7,0.2,0.9c0,0,0.1-0.1,0.2-0.1c0.1,0,0.1,0.1,0.2,0.3
				c0.1,0.2,0.2,0.5,0.4,0.5c0.1,0,0.1,0,0.2-0.1c0,0,0.1-0.2,0.2-0.1l0.2,0.1c0.1,0.1,0.2,0.2,0.3,0.2c0.1,0,0.1-0.1,0.2-0.1
				c0-0.1,0.1-0.1,0.2-0.1l0.1,0c0.2,0.1,0.3,0.1,0.4,0c0,0,0-0.1,0-0.1C39.1,32.5,39.1,32.5,39,32.4z"/>
			<path class="st0" d="M34.5,21.1c0.1,0,0.2,0,0.3,0.1c0.1,0.2,0.1,0.3,0.1,0.5c0,0.3-0.2,0.5-0.3,0.7c0.1,0,0.2,0.1,0.3,0.2
				c0,0,0,0.1,0,0.1c0,0.1-0.1,0.3-0.1,0.5c0.1-0.1,0.2,0,0.3,0c0,0,0,0,0,0c0.1-0.2,0.2-0.6,0.5-0.7l0.2,0c0,0,0-0.1,0-0.1
				c0,0,0,0-0.1,0c-0.1,0-0.1,0-0.1-0.1c0-0.1,0-0.1,0.1-0.2c0.2-0.1,0.5-0.4,0.4-0.5c-0.1-0.2-0.2-0.2-0.3-0.2c0,0-0.1-0.1-0.1-0.1
				c-0.1-0.1-0.1-0.2,0-0.3c0-0.3,0-0.4-0.1-0.5c-0.2,0-0.3,0.1-0.5,0.3C35,20.9,34.9,21,34.8,21l-0.2-0.1c0,0-0.1-0.1-0.1-0.1
				c0,0.1,0,0.2,0,0.2C34.5,21,34.5,21.1,34.5,21.1z"/>
			<path class="st0" d="M33.1,22.6c0.2,0.2,0.3,0.4,0.3,0.6c0,0.2-0.1,0.5-0.2,0.6c0,0,0,0,0,0c0.1,0,0.1,0,0.1,0c0,0,0.1,0,0.1,0
				c0-0.1,0.1-0.5,0.2-0.9c0.1-0.4,0.1-0.8,0.2-0.8c0.1,0,0.1,0.3,0.1,0.7c0,0.4-0.1,0.8-0.2,1c0.2-0.2,0.4-0.3,0.5-0.3
				c0,0,0.1-0.1,0.2-0.1c0.2-0.3,0.3-0.6,0.3-0.7c0,0-0.1-0.1-0.2-0.1c-0.1,0-0.2,0-0.2-0.1c0-0.1,0-0.2,0.1-0.2
				c0.2-0.3,0.4-0.6,0.2-0.9c0,0-0.1,0-0.1,0.1c-0.1,0-0.1,0.1-0.2,0c0,0-0.1-0.1,0-0.2c0-0.1,0.1-0.4,0-0.6
				c-0.1-0.1-0.1-0.1-0.2-0.1c-0.1,0-0.2,0.3-0.3,0.5c-0.1,0.2-0.1,0.3-0.2,0.3l-0.3,0c-0.1,0-0.1,0-0.2,0c-0.1,0.1,0,0.4,0.1,0.6
				c0.1,0.2,0.2,0.3,0.1,0.4c0,0-0.1,0.1-0.1,0.1c-0.1,0-0.3,0-0.3,0.1c0,0,0,0.1,0,0.1C32.8,22.5,33,22.5,33.1,22.6z"/>
			<path class="st0" d="M36,22.8c0-0.1,0-0.1-0.1-0.1l-0.1,0c-0.2,0.1-0.3,0.4-0.4,0.6c-0.1,0.1-0.1,0.2-0.2,0.2l-0.1,0
				c-0.1,0-0.2,0-0.2,0.1c0.1,0.1,0.1,0.2,0.1,0.2c0,0,0,0,0,0c0.1,0.2,0.1,0.4,0.2,0.6c0.1-0.1,0.2-0.2,0.3-0.3
				c0.3-0.3,0.6-0.5,0.6-0.4c0,0.1-0.2,0.3-0.4,0.6c-0.1,0.1-0.1,0.2-0.2,0.2c0.1,0,0.2,0,0.3,0c0.2,0.1,0.2,0.3,0.2,0.5
				c0,0,0,0,0,0.1c0,0,0,0,0,0c0,0,0.1,0,0.1,0c0.1,0,0.2-0.1,0.3-0.3c0-0.1,0-0.1-0.1-0.2c0,0-0.1-0.1-0.1-0.2c0,0,0.1-0.1,0.1-0.1
				c0.1-0.1,0.2-0.1,0.3-0.2c0,0,0,0,0.1,0c0.2-0.1,0.3-0.2,0.3-0.3c0-0.1,0-0.1-0.1-0.2c-0.1,0-0.1-0.1-0.1-0.2l0.2-0.2
				c0.1-0.1,0.3-0.2,0.3-0.4c0-0.1,0-0.1-0.1-0.2c-0.1-0.1-0.2-0.1-0.3-0.1c-0.2,0-0.3,0.2-0.5,0.3L36.2,23C36.1,23,36,22.9,36,22.8
				z"/>
			<path class="st0" d="M37.3,24.5c0,0,0.1-0.1,0.1-0.1c0.2-0.1,0.4-0.2,0.7-0.2c0.1-0.1,0.2-0.1,0.3-0.2C38.7,24,39,23.9,39,24
				c0,0.1-0.2,0.2-0.5,0.4c-0.1,0-0.2,0.1-0.2,0.1c0.1,0.1,0.2,0.2,0.2,0.3c0.2,0,0.3,0.1,0.3,0.2c0,0,0,0,0,0c0,0,0.1-0.1,0.1-0.1
				c0.2-0.2,0.4-0.5,0.8-0.4c0-0.1,0-0.2-0.1-0.3c0,0,0-0.1,0-0.1c0,0,0-0.1,0.1-0.1c0.1-0.1,0.3-0.2,0.4-0.3c0,0,0-0.1,0-0.1
				c-0.1-0.2-0.3-0.1-0.6,0l-0.2,0l-0.1-0.2c0-0.1-0.1-0.1-0.2-0.2c-0.1,0-0.3,0.2-0.4,0.3l-0.3,0.2L38,23.5c0,0-0.1-0.1-0.1-0.1
				c-0.1,0-0.3,0.3-0.3,0.3l-0.1,0.1l-0.1,0c0,0.1-0.1,0.3-0.3,0.4C37.2,24.3,37.2,24.4,37.3,24.5z"/>
			<path class="st0" d="M26.1,27.9c0.1,0.2,0,0.4-0.1,0.5c0.1,0.1,0.1,0.1,0.2,0.2c0,0,0,0,0,0c0.1-0.2,0.4-0.2,0.5-0.2
				c0,0,0.1-0.1,0.1-0.1c0,0,0,0,0,0c0,0,0-0.1,0-0.1c0,0,0,0,0,0c-0.1-0.1-0.4-0.2-0.4-0.5c0,0,0-0.1,0-0.1c0-0.2,0.2-0.3,0.3-0.4
				c0-0.1-0.1-0.2-0.1-0.3c0,0,0-0.1,0-0.1c0,0,0,0,0,0c0,0-0.2,0.1-0.2,0.1c-0.2,0.1-0.3,0.1-0.4,0L26,26.6l-0.2-0.3
				c-0.1-0.1-0.3-0.2-0.5-0.2c-0.1,0-0.1,0.1-0.1,0.2c0,0.1,0,0.2-0.1,0.3l-0.2,0c-0.2-0.1-0.3-0.1-0.4,0.1c-0.1,0.1-0.1,0.2,0,0.3
				c0.1,0.2,0.5,0.3,0.6,0.3c0.1,0,0.1,0.1,0.1,0.1c0,0.1,0,0.1-0.1,0.2c0,0-0.1,0.1-0.2,0.2l0,0.1c0,0.1,0.1,0,0.3-0.1
				C25.6,27.8,25.9,27.7,26.1,27.9z"/>
			<path class="st0" d="M31.9,22.5c-0.1,0-0.1,0.3-0.1,0.6c0,0.2,0,0.3,0,0.3c-0.1,0.1-0.2,0.1-0.2,0.1c-0.1,0-0.1,0-0.1,0.1
				c0,0.1,0.1,0.2,0.3,0.5c0.1,0.1,0.1,0.2,0.1,0.2c0,0,0,0.1-0.1,0.1c0,0.1,0.1,0.2,0.1,0.2c0,0,0.1,0,0.2,0.1c0,0,0.1,0.1,0.1,0.2
				c0.1-0.1,0.1-0.1,0.2-0.1c0-0.1-0.1-0.2-0.1-0.4c-0.1-0.4-0.1-0.7,0-0.8c0.1,0,0.2,0.4,0.3,0.7c0,0.2,0.1,0.3,0.1,0.4
				c0.1,0,0.3,0.1,0.4,0.2c0-0.1,0-0.3,0.1-0.4c0.1-0.1,0.2-0.1,0.3-0.2c0-0.1,0.1-0.2,0.1-0.3l-0.2,0c-0.2,0-0.4,0-0.4-0.2l0.1-0.2
				c0.2-0.4,0.2-0.6,0-0.8l-0.1,0.1c-0.1,0.1-0.1,0.1-0.2,0.1l-0.2-0.2C32.3,22.7,32.1,22.4,31.9,22.5z"/>
			<path class="st0" d="M29.9,23.6l-0.2,0.3C29.7,24,29.6,24,29.6,24c0,0,0.1,0.1,0.4,0.1c0-0.2,0-0.4,0.2-0.5c0.1-0.1,0.3,0,0.4,0
				c0-0.1-0.1-0.2-0.2-0.3c-0.1-0.1-0.4-0.5-0.3-0.6c0.1-0.1,0.4,0.3,0.6,0.5c0.1,0.2,0.2,0.4,0.2,0.6c0.1,0,0.2,0,0.3,0.1
				c-0.1-0.1-0.2-0.3-0.2-0.5c0,0,0-0.1,0-0.1c0.1-0.2,0.3-0.2,0.4-0.2c0,0,0-0.1,0-0.1c0-0.1,0-0.2,0-0.3c0-0.1,0-0.1,0-0.2
				c-0.1-0.1-0.2,0-0.3,0c0,0-0.1,0.1-0.2,0c-0.1,0-0.1-0.1-0.1-0.3c0-0.2,0-0.7-0.3-0.8c-0.1,0-0.1,0.1-0.2,0.2
				c-0.1,0.1-0.1,0.2-0.2,0.2c-0.1,0-0.2-0.1-0.3-0.2c-0.3-0.3-0.5-0.5-0.8-0.3c-0.2,0.1-0.1,0.5,0.1,0.7l0.1,0.2
				c0,0.1-0.1,0.1-0.2,0.1c-0.1,0-0.2,0.1-0.2,0.2c0,0.3,0.2,0.4,0.6,0.4C29.8,23.4,29.9,23.5,29.9,23.6z"/>
			<path class="st0" d="M26.2,26.4C26.2,26.4,26.2,26.4,26.2,26.4c-0.1-0.1-0.2-0.3-0.2-0.3c0,0,0,0,0,0c0.1-0.1,0.2-0.2,0.3-0.2
				c0.1,0,0.1,0,0.2-0.1c0-0.1-0.1-0.2-0.2-0.2c-0.6-0.3-0.7-0.4-0.6-0.5c0-0.1,0.1-0.1,0.2-0.1l0.2-0.1c0.1-0.1,0-0.2,0-0.3
				c-0.1-0.3-0.1-0.5,0.1-0.6c0.1,0,0.1,0,0.3,0.2l0.2,0.2c0.2,0,0.3-0.1,0.3-0.2c0-0.1,0.1-0.2,0.1-0.2c0.1,0,0.2,0.4,0.2,0.5
				c0,0.2,0,0.3,0.2,0.3c0.1,0,0.3-0.1,0.3-0.1c0.1-0.1,0.1-0.1,0.1-0.1c0.1,0,0.1,0.3,0.1,0.5c0,0.2,0,0.3,0.1,0.4
				c0.1,0,0.2,0.1,0.4,0c0.2,0.1,0.4,0.2,0.5,0.2c0,0,0.1,0,0.1,0c0,0,0,0,0,0c0,0.1,0,0.1,0,0.2c-0.5-0.2-0.9-0.1-1.1,0l-0.1,0
				l-0.1,0l-0.3,0.1c0,0,0,0,0,0c-0.1-0.1-0.3-0.3-0.5-0.4c-0.2-0.3-0.3-0.6-0.4-0.6c-0.2,0.1,0.1,0.5,0.2,0.7
				c0.2,0.3,0.5,0.6,0.7,0.7l0,0c0,0.1,0,0.3,0,0.4c-0.2,0.1-0.2,0.3-0.3,0.3c0,0,0,0,0,0c0,0-0.1,0-0.1,0c0,0,0,0,0,0
				c0-0.1-0.1-0.2-0.1-0.3c0-0.1-0.1-0.3-0.2-0.3c-0.1-0.1-0.3,0-0.4,0c0,0-0.1,0-0.2,0L26.2,26.4z"/>
			<path class="st0" d="M28.6,24.6l-0.1,0.3L28.5,25c0,0.2,0.1,0.2,0.4,0.2c0.2,0,0.3,0,0.4,0.2c0,0.1,0,0.2,0,0.3c0,0,0,0,0.1,0
				c0.2,0.1,0.4,0.2,0.5,0.5c0,0,0.1,0,0.1-0.1l0.3,0c0.2,0.1,0.4,0.4,0.4,0.5c0.1-0.1,0.4-0.1,0.7,0.2c0.1,0,0.2,0,0.3,0
				c0-0.1,0.1-0.1,0.1-0.2c-0.1-0.1-0.2-0.2-0.2-0.4c-0.3,0.1-0.7,0.1-1,0c-0.3-0.1-0.5-0.3-0.5-0.5c0-0.1,0-0.2,0.1-0.3l0,0
				c0,0,0,0,0,0c-0.3-0.5-0.2-0.8-0.1-1c-0.3,0-0.6-0.1-0.6-0.4c0,0,0,0-0.1,0L29.1,24c-0.3-0.2-0.5-0.3-0.7-0.1
				c-0.1,0.1,0,0.2,0.2,0.5C28.5,24.4,28.6,24.6,28.6,24.6z"/>
			<path class="st0" d="M30.7,21.4c0.4,0.1,0.5,0.6,0.5,0.9c0.1,0,0.2,0,0.4,0c0.1-0.1,0.1-0.1,0.2-0.1c0.1,0,0.3,0,0.4,0
				c0-0.3,0.1-0.8,0-0.9c0,0-0.1,0.1-0.1,0.1c0,0-0.1,0.1-0.2,0c-0.1,0-0.1-0.1-0.1-0.1c0-0.3,0-0.7-0.1-0.7c-0.1,0-0.1,0-0.2,0
				c-0.1,0.1-0.2,0.1-0.2,0.1l-0.1-0.1c-0.1-0.1-0.4-0.5-0.6-0.4c-0.2,0.1,0,0.4,0.1,0.6c0.1,0.2,0.1,0.2,0,0.3
				c-0.1,0.1-0.1,0.1-0.2,0.1c-0.1,0-0.2,0-0.2,0.1c0,0.1,0,0.2,0.1,0.3C30.4,21.5,30.5,21.3,30.7,21.4z"/>
			<path class="st0" d="M33.5,24L33.5,24C33.5,24,33.5,24,33.5,24C33.5,24,33.5,24,33.5,24z"/>
			<path class="st0" d="M37.9,28.2L37.9,28.2C37.9,28.2,37.9,28.2,37.9,28.2C37.9,28.2,37.9,28.2,37.9,28.2z"/>
			<path class="st1" d="M35.4,67.6c0,0.1-0.3,0.2-0.5,0.2c-0.3,0-0.6,0-0.6-0.2c0-0.1,0.3-0.1,0.6-0.1C35,67.5,35.4,67.5,35.4,67.6
				L35.4,67.6z"/>
			<path class="st0" d="M27.2,56.3C27.2,56.3,27.2,56.3,27.2,56.3l-0.1,0c0,0-0.1,0-0.1-0.1c0,0-0.4-0.4-0.8-0.4
				c-0.3,0-0.6,0.1-0.9,0.3c-0.3,0.1-0.5,0.2-0.8,0.2h-0.7c-0.1,0-0.1-0.1-0.1-0.1v-4.1c-0.1,0.1-0.3,0.2-0.3,0.2c0,0.1,0,3.9,0,4.1
				c0.3,0,3.2,0,3.2,0c0,0,0.1,0,0.1,0c0,0,0.2,0.2,0.5,0.3l0.1,0c0.3,0,0.5-0.3,0.5-0.3c0,0,0.1,0,0.1,0c0,0,3,0,3.2,0
				c0-0.3,0-4,0-4.1c-0.1,0-0.2-0.1-0.3-0.2v4.1c0,0.1-0.1,0.1-0.1,0.1H30c-0.3,0-0.5-0.1-0.8-0.2c-0.3-0.1-0.6-0.3-0.9-0.3
				c-0.5,0-0.8,0.4-0.8,0.4c0,0-0.1,0.1-0.1,0.1L27.2,56.3C27.2,56.3,27.2,56.3,27.2,56.3z"/>
			<path class="st0" d="M31.4,56.5c0,0.1-0.1,0.1-0.1,0.1c0,0-3.2,0-3.3,0c-0.1,0.1-0.3,0.3-0.7,0.3c0,0-0.2,0-0.2,0
				c-0.3,0-0.6-0.2-0.7-0.3c-0.1,0-3.3,0-3.3,0c-0.1,0-0.1-0.1-0.1-0.1v-4.2c-0.1,0-0.2,0-0.3,0c0,0.3,0,4.4,0,4.7
				c0.3,0,3.8,0,3.8,0c0,0,0.1,0,0.1,0.1c0,0,0.2,0.2,0.5,0.2c0.1,0,0.3,0,0.4,0c0.3-0.1,0.5-0.2,0.5-0.2c0,0,0.1-0.1,0.1-0.1
				c0,0,3.5,0,3.8,0c0-0.3,0-4.4,0-4.7c-0.1,0-0.2,0-0.3,0V56.5z"/>
			<path class="st0" d="M26,51.3c-0.5,0-0.8,0.2-1,0.4c-0.2,0.1-0.4,0.3-0.6,0.3c0,0-0.4,0-0.6,0c0,0.3,0,3.8,0,4.1
				c0.2,0,0.6,0,0.6,0c0.2,0,0.4-0.1,0.6-0.2c0.3-0.1,0.6-0.3,1-0.3c0.4,0,0.8,0.3,0.9,0.4c0-0.4,0-4.1,0-4.1
				C27,51.8,26.9,51.3,26,51.3z M26.5,54.7C26.5,54.7,26.5,54.7,26.5,54.7c-0.1,0-0.4,0-0.7,0.1L25.4,55l-0.2,0.1
				c-0.3,0.1-0.6,0.2-0.6,0.2c0,0-0.1,0-0.1-0.1c0,0,0-0.1,0.1-0.1c0.1,0,0.3,0,0.6-0.2l0.2-0.1l0.5-0.2
				C26.1,54.6,26.5,54.6,26.5,54.7C26.5,54.6,26.5,54.7,26.5,54.7z M26.5,53.8C26.5,53.9,26.5,53.9,26.5,53.8c-0.1,0-0.4,0-0.7,0.1
				l-0.4,0.2l-0.2,0.1c-0.3,0.1-0.6,0.2-0.6,0.2c0,0-0.1,0-0.1-0.1c0,0,0-0.1,0.1-0.1c0.1,0,0.3,0,0.6-0.2l0.2-0.1l0.5-0.2
				C26.1,53.7,26.5,53.8,26.5,53.8C26.5,53.8,26.5,53.8,26.5,53.8z M26.5,53C26.5,53,26.5,53,26.5,53c-0.1,0-0.4,0-0.7,0.1l-0.4,0.2
				l-0.2,0.1c-0.3,0.1-0.6,0.2-0.6,0.2c0,0-0.1,0-0.1-0.1c0,0,0-0.1,0.1-0.1c0.1,0,0.3,0,0.6-0.2l0.2-0.1l0.5-0.2
				C26.1,52.8,26.5,52.9,26.5,53C26.5,52.9,26.5,53,26.5,53z M26.5,52.1C26.5,52.2,26.5,52.2,26.5,52.1c-0.1,0-0.4,0-0.7,0.1
				l-0.4,0.2l-0.2,0.1c-0.3,0.1-0.6,0.2-0.6,0.2c0,0-0.1,0-0.1-0.1c0,0,0-0.1,0.1-0.1c0.1,0,0.3,0,0.6-0.2l0.2-0.1l0.5-0.2
				C26.1,52,26.5,52.1,26.5,52.1C26.5,52.1,26.5,52.1,26.5,52.1z"/>
			<path class="st0" d="M27.3,56.3l-0.1,0c0,0,0,0,0,0c0,0,0,0,0,0l-0.1,0c0,0-0.1,0-0.1-0.1c0,0-0.4-0.4-0.8-0.4
				c-0.3,0-0.6,0.1-0.9,0.3c-0.3,0.1-0.5,0.2-0.8,0.2h-0.7c-0.1,0-0.1-0.1-0.1-0.1v-4.1c-0.1,0.1-0.3,0.2-0.3,0.2c0,0.1,0,3.9,0,4.1
				c0.3,0,3.2,0,3.2,0c0,0,0.1,0,0.1,0c0,0,0.2,0.2,0.5,0.3l0.1,0c0.3,0,0.5-0.3,0.5-0.3c0,0,0.1,0,0.1,0c0,0,3,0,3.2,0
				c0-0.3,0-4,0-4.1c-0.1,0-0.2-0.1-0.3-0.2v4.1c0,0.1-0.1,0.1-0.1,0.1H30c-0.3,0-0.5-0.1-0.8-0.2c-0.3-0.1-0.6-0.3-0.9-0.3
				c-0.5,0-0.8,0.4-0.8,0.4C27.4,56.2,27.4,56.3,27.3,56.3z"/>
			<path class="st0" d="M31.7,52.3c-0.1,0-0.2,0-0.3,0v4.2c0,0.1-0.1,0.1-0.1,0.1c0,0-3.2,0-3.3,0c-0.1,0.1-0.3,0.3-0.7,0.3
				c0,0-0.2,0-0.2,0c-0.3,0-0.6-0.2-0.7-0.3c-0.1,0-3.3,0-3.3,0c-0.1,0-0.1-0.1-0.1-0.1v-4.2c-0.1,0-0.2,0-0.3,0c0,0.3,0,4.4,0,4.7
				c0.3,0,3.8,0,3.8,0c0,0,0.1,0,0.1,0.1c0,0,0.2,0.2,0.5,0.2c0.1,0,0.3,0,0.4,0c0.3-0.1,0.5-0.2,0.5-0.2c0,0,0.1-0.1,0.1-0.1
				c0,0,3.5,0,3.8,0C31.7,56.7,31.7,52.6,31.7,52.3z"/>
			<path class="st0" d="M30,51.9c-0.2,0-0.4-0.1-0.6-0.3c-0.2-0.2-0.5-0.4-1-0.4c-0.9,0-1,0.5-1,0.5c0,0,0,3.8,0,4.1
				c0.2-0.2,0.5-0.4,0.9-0.4c0.4,0,0.7,0.1,1,0.3c0.2,0.1,0.4,0.2,0.6,0.2c0,0,0.4,0,0.6,0c0-0.3,0-3.8,0-4.1
				C30.4,51.9,30,51.9,30,51.9z M29.9,55.2c-0.1,0-0.3,0-0.6-0.2L29,54.9l-0.4-0.2c-0.3-0.1-0.5,0-0.6,0c0,0-0.1,0-0.1,0
				c0,0,0-0.1,0.1-0.1c0,0,0.3-0.1,0.7,0l0.5,0.2l0.2,0.1c0.3,0.1,0.5,0.2,0.6,0.2C29.9,55.1,30,55.1,29.9,55.2
				C30,55.2,29.9,55.2,29.9,55.2z M29.9,54.4c-0.1,0-0.3,0-0.6-0.2L29,54.1l-0.4-0.2c-0.3-0.1-0.5,0-0.6,0c0,0-0.1,0-0.1,0
				c0,0,0-0.1,0.1-0.1c0,0,0.3-0.1,0.7,0l0.5,0.2l0.2,0.1c0.3,0.1,0.5,0.2,0.6,0.2C29.9,54.2,30,54.3,29.9,54.4
				C30,54.3,29.9,54.4,29.9,54.4z M29.9,53.5c-0.1,0-0.3,0-0.6-0.2L29,53.2l-0.4-0.2c-0.3-0.1-0.5,0-0.6,0c0,0-0.1,0-0.1,0
				c0,0,0-0.1,0-0.1c0,0,0.3-0.1,0.7,0l0.5,0.2l0.2,0.1c0.3,0.1,0.5,0.2,0.6,0.2C29.9,53.4,30,53.4,29.9,53.5
				C30,53.5,29.9,53.5,29.9,53.5z M29.9,52.7c-0.1,0-0.3,0-0.6-0.2L29,52.4l-0.4-0.2c-0.3-0.1-0.5,0-0.6,0c0,0-0.1,0-0.1-0.1
				c0,0,0,0,0-0.1c0,0,0.3-0.1,0.7,0l0.5,0.2l0.2,0.1c0.3,0.1,0.5,0.2,0.6,0.2C29.9,52.5,30,52.6,29.9,52.7
				C30,52.6,29.9,52.7,29.9,52.7z"/>
			<path class="st0" d="M38.8,56.3l0.1,0c0,0,0.1,0,0.1-0.1c0,0,0.4-0.4,0.8-0.4c0.3,0,0.6,0.1,0.9,0.3c0.3,0.1,0.5,0.2,0.8,0.2h0.7
				c0.1,0,0.1-0.1,0.1-0.1v-4.1c0.1,0.1,0.3,0.2,0.3,0.2c0,0.1,0,3.9,0,4.1c-0.3,0-3.2,0-3.2,0c0,0-0.1,0-0.1,0c0,0-0.2,0.2-0.5,0.3
				l-0.1,0c-0.3,0-0.5-0.3-0.5-0.3c0,0-0.1,0-0.1,0c0,0-3,0-3.2,0c0-0.3,0-4,0-4.1c0.1,0,0.2-0.1,0.3-0.2v4.1c0,0.1,0.1,0.1,0.1,0.1
				h0.7c0.3,0,0.5-0.1,0.8-0.2c0.3-0.1,0.6-0.3,0.9-0.3c0.5,0,0.8,0.4,0.8,0.4c0,0,0.1,0.1,0.1,0.1L38.8,56.3
				C38.8,56.3,38.8,56.3,38.8,56.3C38.8,56.3,38.8,56.3,38.8,56.3z"/>
			<path class="st0" d="M43.1,56.5c0,0.1-0.1,0.1-0.1,0.1c0,0-3.2,0-3.3,0c-0.1,0.1-0.3,0.3-0.7,0.3c0,0-0.2,0-0.2,0
				c-0.3,0-0.6-0.2-0.7-0.3c-0.1,0-3.3,0-3.3,0c-0.1,0-0.1-0.1-0.1-0.1v-4.2c-0.1,0-0.2,0-0.3,0c0,0.3,0,4.4,0,4.7
				c0.3,0,3.8,0,3.8,0c0,0,0.1,0,0.1,0.1c0,0,0.2,0.2,0.5,0.2c0.1,0,0.3,0,0.4,0c0.3-0.1,0.5-0.2,0.5-0.2c0,0,0.1-0.1,0.1-0.1
				c0,0,3.5,0,3.8,0c0-0.3,0-4.4,0-4.7c-0.1,0-0.2,0-0.3,0V56.5z"/>
			<path class="st0" d="M39,56.3l-0.1,0c0,0,0,0,0,0c0,0,0,0,0,0l-0.1,0c0,0-0.1,0-0.1-0.1c0,0-0.4-0.4-0.8-0.4
				c-0.3,0-0.6,0.1-0.9,0.3c-0.3,0.1-0.5,0.2-0.8,0.2h-0.7c-0.1,0-0.1-0.1-0.1-0.1v-4.1c-0.1,0.1-0.3,0.2-0.3,0.2c0,0.1,0,3.9,0,4.1
				c0.3,0,3.2,0,3.2,0c0,0,0.1,0,0.1,0c0,0,0.2,0.2,0.5,0.3l0.1,0c0.3,0,0.5-0.3,0.5-0.3c0,0,0.1,0,0.1,0c0,0,3,0,3.2,0
				c0-0.3,0-4,0-4.1c-0.1,0-0.2-0.1-0.3-0.2v4.1c0,0.1-0.1,0.1-0.1,0.1h-0.7c-0.3,0-0.5-0.1-0.8-0.2c-0.3-0.1-0.6-0.3-0.9-0.3
				c-0.5,0-0.8,0.4-0.8,0.4C39.1,56.2,39,56.3,39,56.3z"/>
			<path class="st0" d="M43.4,52.3c-0.1,0-0.2,0-0.3,0v4.2c0,0.1-0.1,0.1-0.1,0.1c0,0-3.2,0-3.3,0c-0.1,0.1-0.3,0.3-0.7,0.3
				c0,0-0.2,0-0.2,0c-0.3,0-0.6-0.2-0.7-0.3c-0.1,0-3.3,0-3.3,0c-0.1,0-0.1-0.1-0.1-0.1v-4.2c-0.1,0-0.2,0-0.3,0c0,0.3,0,4.4,0,4.7
				c0.3,0,3.8,0,3.8,0c0,0,0.1,0,0.1,0.1c0,0,0.2,0.2,0.5,0.2c0.1,0,0.3,0,0.4,0c0.3-0.1,0.5-0.2,0.5-0.2c0,0,0.1-0.1,0.1-0.1
				c0,0,3.5,0,3.8,0C43.4,56.7,43.4,52.6,43.4,52.3z"/>
			<path class="st0" d="M37.7,51.3c-0.5,0-0.8,0.2-1,0.4c-0.2,0.1-0.4,0.3-0.6,0.3c0,0-0.4,0-0.6,0c0,0.3,0,3.8,0,4.1
				c0.2,0,0.6,0,0.6,0c0.2,0,0.4-0.1,0.6-0.2c0.3-0.1,0.6-0.3,1-0.3c0.4,0,0.8,0.3,0.9,0.4c0-0.4,0-4.1,0-4.1
				C38.7,51.8,38.5,51.3,37.7,51.3z M36.1,52.5c0.1,0,0.3,0,0.6-0.2l0.2-0.1l0.5-0.2c0.3-0.1,0.7,0,0.7,0c0,0,0.1,0,0,0.1
				c0,0,0,0-0.1,0c-0.1,0-0.4,0-0.6,0L37,52.4l-0.2,0.1c-0.3,0.1-0.6,0.2-0.6,0.2C36.1,52.7,36,52.6,36.1,52.5
				C36,52.6,36.1,52.5,36.1,52.5z M36.1,53.4c0.1,0,0.3,0,0.6-0.2l0.2-0.1l0.5-0.2c0.3-0.1,0.7,0,0.7,0c0,0,0.1,0,0,0.1
				c0,0,0,0.1-0.1,0c-0.1,0-0.4,0-0.6,0L37,53.2l-0.2,0.1c-0.3,0.1-0.6,0.2-0.6,0.2C36.1,53.5,36,53.5,36.1,53.4
				C36,53.4,36.1,53.4,36.1,53.4z M38.1,54.7c-0.1,0-0.4,0-0.6,0L37,54.9l-0.2,0.1c-0.3,0.1-0.6,0.2-0.6,0.2c0,0-0.1,0-0.1-0.1
				c0,0,0-0.1,0.1-0.1c0.1,0,0.3,0,0.6-0.2l0.2-0.1l0.5-0.2c0.3-0.1,0.7,0,0.7,0C38.1,54.6,38.1,54.6,38.1,54.7
				C38.1,54.7,38.1,54.7,38.1,54.7z M38.1,53.9c-0.1,0-0.4,0-0.6,0L37,54.1l-0.2,0.1c-0.3,0.1-0.6,0.2-0.6,0.2c0,0-0.1,0-0.1-0.1
				c0,0,0-0.1,0.1-0.1c0.1,0,0.3,0,0.6-0.2l0.2-0.1l0.5-0.2c0.3-0.1,0.7,0,0.7,0C38.1,53.8,38.2,53.8,38.1,53.9
				C38.1,53.9,38.1,53.9,38.1,53.9z"/>
			<path class="st0" d="M39.9,55.5c-0.4,0-0.8,0.3-0.9,0.4c0-0.4,0-4.1,0-4.1c0,0,0.2-0.5,1-0.5c0.5,0,0.8,0.2,1,0.4
				c0.2,0.1,0.4,0.3,0.6,0.3c0,0,0.4,0,0.6,0c0,0.3,0,3.8,0,4.1c-0.2,0-0.6,0-0.6,0c-0.2,0-0.4-0.1-0.6-0.2
				C40.7,55.7,40.3,55.5,39.9,55.5z M39.5,52.9C39.5,52.9,39.5,53,39.5,52.9c0,0.1,0,0.1,0,0.1c0.1,0,0.4,0,0.6,0l0.4,0.2l0.2,0.1
				c0.3,0.1,0.6,0.2,0.6,0.2c0,0,0.1,0,0.1-0.1c0,0,0-0.1-0.1-0.1c-0.1,0-0.3,0-0.6-0.2l-0.2-0.1l-0.5-0.2
				C39.9,52.8,39.6,52.9,39.5,52.9z M39.5,52C39.5,52,39.5,52.1,39.5,52c0,0.1,0,0.1,0,0.1c0.1,0,0.4,0,0.6,0l0.4,0.2l0.2,0.1
				c0.3,0.1,0.6,0.2,0.6,0.2c0,0,0.1,0,0.1-0.1c0,0,0-0.1-0.1-0.1c-0.1,0-0.3,0-0.6-0.2l-0.2-0.1L40.2,52C39.9,52,39.6,52,39.5,52z
				 M39.5,53.8C39.5,53.8,39.5,53.8,39.5,53.8c0,0.1,0,0.1,0,0.1c0.1,0,0.4,0,0.6,0l0.4,0.2l0.2,0.1c0.3,0.1,0.6,0.2,0.6,0.2
				c0,0,0.1,0,0.1-0.1c0,0,0-0.1-0.1-0.1c-0.1,0-0.3,0-0.6-0.2L40.7,54l-0.5-0.2C40,53.7,39.7,53.7,39.5,53.8z M39.5,54.6
				C39.5,54.6,39.5,54.7,39.5,54.6c0,0.1,0,0.1,0,0.1c0.1,0,0.4,0,0.6,0l0.4,0.2l0.2,0.1c0.3,0.1,0.6,0.2,0.6,0.2c0,0,0.1,0,0.1-0.1
				c0,0,0-0.1-0.1-0.1c-0.1,0-0.3,0-0.6-0.2l-0.2-0.1l-0.5-0.2C40,54.6,39.7,54.6,39.5,54.6z"/>
			<g>
				<path class="st0" d="M30.1,64.2c0,0-0.1-0.1-0.2-0.2c-0.1,0.1-0.1,0.1-0.2,0.2l-0.2,0.1c-0.3,0-0.6,0.1-0.7,0.4
					c0,0.1-0.1,0.2-0.1,0.3c0,0.2,0,0.3,0.1,0.3c0,0,0.1,0,0.1-0.1c-0.1-0.3,0.1-0.6,0.1-0.6c0,0,0,0.2,0,0.3c0,0.1,0,0.1,0,0.1
					c0.1,0,0.1-0.1,0.1-0.1c0-0.2,0.2-0.4,0.4-0.4l0.2,0.1c0.2,0.1,0.5,0.2,0.7,0.1C30.2,64.6,30.2,64.3,30.1,64.2z"/>
			</g>
			<g>
				<path class="st0" d="M34.3,65.6C34.3,65.6,34.2,65.6,34.3,65.6c-0.1-0.1-0.1-0.1-0.1-0.1c-0.2,0-1-0.1-1.2-0.2
					c0,0-0.1,0-0.4,0.1c-0.2,0.1-0.4,0.3-0.5,0.5c0,0,0.1,0.1,0.1,0.1c0.1-0.1,0.2-0.3,0.4-0.3c0.2-0.1,0.4-0.1,0.5,0
					c0.1,0-0.2,0.1-0.4,0.3c-0.1,0.1-0.2,0.2-0.2,0.2c0,0,0,0,0,0c0.1,0,0.2,0,0.3-0.1c0,0,0.3-0.1,0.3-0.1c0.1,0,1.6,0,2.1,0
					c0-0.1,0-0.1,0.1-0.1C35.1,65.9,34.7,65.8,34.3,65.6z"/>
			</g>
			<path class="st1" d="M34.8,68.2c0,0.1-0.4,0.2-0.6,0.2c-0.4,0-0.7,0-0.7-0.2c0-0.1,0.3-0.1,0.7-0.1
				C34.4,68.1,34.8,68.1,34.8,68.2L34.8,68.2z M34.2,68.9c0-0.1-0.4-0.1-0.6-0.1c-0.3,0-0.6,0-0.6,0.1c0,0.1,0.3,0.2,0.6,0.2
				C33.8,69,34.2,69,34.2,68.9L34.2,68.9z M33.4,69.5c0-0.1-0.3-0.1-0.5-0.1c-0.2,0-0.5,0-0.5,0.1c0,0.1,0.2,0.1,0.5,0.1
				C33.2,69.7,33.5,69.6,33.4,69.5L33.4,69.5z M27.7,61.5L27.7,61.5c-0.2,0.1-0.2,0.1-0.2,0.2c0,0.1,0.1,0.1,0.2,0.1l0.1,0
				c0.1,0,0.1-0.1,0.1-0.2C27.8,61.5,27.7,61.4,27.7,61.5z M32.1,60.2c0,0-0.1-0.1-0.1,0l-0.8,0.3c-0.1,0-0.1,0.1-0.1,0.2
				c0,0.1,0.1,0.1,0.2,0.1l0.7-0.4C32.1,60.3,32.1,60.3,32.1,60.2L32.1,60.2z M32.2,60.9c0,0-0.1-0.1-0.1-0.1L31.5,61
				c-0.1,0-0.1,0.1-0.1,0.2c0,0.1,0.1,0.2,0.2,0.1l0.6-0.2C32.2,61,32.3,61,32.2,60.9L32.2,60.9z M32.3,61.7c0,0-0.1-0.1-0.1-0.1
				l-0.5,0c-0.1,0-0.1,0.1-0.1,0.2c0,0.1,0.1,0.1,0.1,0.1l0.5-0.1C32.2,61.8,32.3,61.7,32.3,61.7L32.3,61.7z M32.1,62.4
				C32.1,62.4,32.1,62.3,32.1,62.4l-0.4-0.2c-0.1,0-0.1,0.1-0.1,0.1c0,0.1,0,0.1,0.1,0.1L32.1,62.4C32.1,62.5,32.1,62.4,32.1,62.4
				L32.1,62.4z M35.2,59.9c0,0.1,0,0.2,0.1,0.2c0,0,0.4,0.1,0.7,0.3c0.1,0,0.1,0,0.2,0c0-0.1,0-0.1,0-0.2c-0.4-0.2-0.8-0.3-0.8-0.3
				C35.3,59.8,35.2,59.8,35.2,59.9L35.2,59.9z M35.4,60.6c0,0.1,0,0.1,0.1,0.2c0,0,0.3,0.1,0.6,0.2c0.1,0,0.1,0,0.1,0
				c0-0.1,0-0.1,0-0.1c-0.3-0.2-0.6-0.3-0.6-0.3C35.5,60.5,35.4,60.5,35.4,60.6L35.4,60.6z M35.4,61.2c0,0.1,0,0.1,0.1,0.1
				c0,0,0.3,0.1,0.4,0.1c0,0,0.1,0,0.1,0c0,0,0-0.1,0-0.1c-0.3-0.2-0.4-0.2-0.4-0.2C35.5,61.1,35.4,61.1,35.4,61.2L35.4,61.2z
				 M35.4,61.7c0,0.1,0,0.1,0.1,0.1c0,0,0.2,0,0.3,0.1c0,0,0.1,0,0.1,0c0,0,0-0.1,0-0.1c-0.1,0-0.2-0.1-0.3-0.1
				C35.5,61.7,35.4,61.7,35.4,61.7L35.4,61.7z M36.8,61c0,0.1,0,0.2,0.1,0.2c0,0,0.2,0.1,0.4,0.3c0,0,0.1,0,0.2,0c0,0,0-0.1,0-0.2
				C37.1,61,37,60.9,37,60.9C36.9,60.9,36.8,60.9,36.8,61L36.8,61z M36.7,61.6c0,0.1,0,0.1,0.1,0.2c0,0,0.1,0,0.3,0.2
				c0,0,0.1,0,0.1,0c0,0,0-0.1,0-0.1c-0.3-0.2-0.3-0.3-0.3-0.3C36.8,61.5,36.7,61.6,36.7,61.6L36.7,61.6z M36.5,62.2
				c0,0.1,0,0.1,0,0.1c0,0,0.1,0.1,0.2,0.1c0,0,0.1,0,0.1,0c0,0,0-0.1,0-0.1c0,0-0.2-0.2-0.2-0.2C36.6,62.1,36.6,62.1,36.5,62.2
				L36.5,62.2z M36.3,62.6c0,0,0,0.1,0,0.1c0,0,0,0,0.1,0.1c0,0,0.1,0,0.1,0c0,0,0-0.1,0-0.1c-0.1-0.1-0.1-0.1-0.1-0.1
				C36.4,62.5,36.3,62.5,36.3,62.6L36.3,62.6z M37.7,62.4c0,0,0,0.1,0,0.1c0,0,0.1,0,0.1,0.1c0,0,0.1,0.1,0.1,0c0,0,0.1-0.1,0-0.1
				c0,0-0.1-0.2-0.1-0.2C37.8,62.3,37.7,62.3,37.7,62.4L37.7,62.4z M37.4,62.8c0,0,0,0.1,0,0.1c0,0,0.1,0.1,0.1,0.1
				c0,0,0.1,0.1,0.1,0s0-0.1,0-0.1c0,0,0-0.1-0.1-0.1C37.5,62.8,37.4,62.7,37.4,62.8L37.4,62.8z M27.8,62.7c0.1-0.1-0.2-0.3-0.1-0.5
				c0.1-0.2,0.7-0.4,0.7-0.5c0-0.1-0.8,0.1-0.9,0.4C27.4,62.4,27.7,62.8,27.8,62.7L27.8,62.7z M28.7,61.1c0.1,0.1,0.2-0.1,0.2-0.1
				c0,0,0.1,0,0.1,0c0.1,0,0.1,0.1,0.1,0.1c0,0,0,0.1,0.1,0.1c0.1,0,0.3-0.3,0-0.5c-0.1,0-0.2-0.1-0.3,0
				C28.7,60.8,28.6,61.1,28.7,61.1L28.7,61.1z M37.6,60.9c-2.2-2.6-5.2-1.4-5.3-1.3c-0.6,0.1-1.1,0.4-1.4,0.6l-0.4,0.2l-1.1,0.1
				c-0.3,0.1-0.8,0.3-1.4,0.6l-0.4,0.2c-0.7,0.4-0.8,0.7-0.8,0.7c0,0,0,0.1-0.1,0.1c-0.1,0-0.2,0.1-0.2,0.2c0,0,0,0,0,0c0,0,0,0,0,0
				l0.1-0.1c0.1,0,0.2,0,0.2,0.1c0,0.1,0,0.2-0.1,0.2l-0.1,0.1c0.1,0.2,0.3,0.2,0.3,0.2c0,0,0.1,0,0.1,0c0.1,0,0.5-0.2,0.7,0.3
				l0,0.2c0,0.1-0.1,0.2-0.2,0.2c0.1,0,0.3,0,0.4,0c0,0,0.1,0,0.1,0l0.2,0c0.4-0.1,0.8-0.1,1.1-0.1c0.4,0.1,0.9,0.4,1.1,0.7
				c0.1,0.2,0.3,0.8,0.3,1c0,0.1-0.1,0.4-0.4,0.5c-0.2,0.1-0.4,0.1-0.6,0.1c0,0-0.2,0-0.2,0c0,0-0.1,0.2-0.2,0.3c0,0,0.1,0,0.2,0
				c0.1-0.1,0.2-0.2,0.3-0.2c0,0,0,0.1,0,0.2c0.2,0,0.3,0,0.3,0l0.1,0c0.2,0,0.5,0,0.6-0.1l0.2-0.1c0,0,0.5-0.4,0.5-0.4l0.5-0.4
				l0.2-0.2c0.1-0.1,0.1-0.7,0-1.4c0-0.1,0-0.2,0.1-0.2c0.1,0,0.2,0,0.2,0.1c0,0.3,0.1,0.8,0,1.2c0,0,0,0,0,0
				c0.4,0.3,0.8,0.4,1.2,0.5c-0.1-0.2-0.2-0.4-0.3-0.6c-0.1-0.2-0.1-0.3-0.1-0.5c0-0.5,0.3-0.9,0.6-1.2c0.2-0.3,0.4-0.5,0.4-0.7
				c0,0,0,0,0-0.1c0,0,0,0,0,0c0-0.1,0.1-0.1,0.1-0.1c0.1,0,0.2,0,0.2,0.1c0.1,0.4-0.2,0.7-0.4,1c-0.3,0.4-0.6,0.8-0.4,1.4
				c0.1,0.4,0.3,0.7,0.6,0.8c0,0,0,0,0,0c0,0,0.1,0,0.1,0.1c0.5,0.2,1,0.3,1.1,0.3c0,0,0.1,0,0.1,0.1c0,0,0,0.1,0,0.1
				c0,0,0,0.2-0.2,0.4c0,0,0,0.1,0,0.1c0,0-0.1,0.1-0.1,0.1l-0.5,0.4c-0.4,0.3-1,0.7-1.7,1.3c-0.8,0.7-1.3,1.6-1.2,2
				c0,0.1,0.1,0.2,0.3,0.2c1.4,0.1,2.2-0.7,2.9-1.5l0.2-0.2c0.5-0.5,0.8-1.1,1.1-1.5c0.2-0.3,0.2-0.4,0.3-0.5c0.6-0.4,1.5-1.6,1.7-3
				C38.4,62.5,38.2,61.6,37.6,60.9z"/>
			<path class="st0" d="M41.2,66.4c0.3,0,0.5,0,0.8-0.1c0.2-0.1,0.4-0.3,0.6-0.4c0.2,0.3,0.6,0.9,0.8,1.2c-0.3,0.4-0.6,0.7-1,1.1
				L41.2,66.4z"/>
			<path class="st0" d="M23.5,65.8c0.1,0.2,0.3,0.3,0.6,0.4c0.3,0.1,0.5,0.1,0.8,0.1l-1.2,1.7c-0.4-0.3-0.7-0.7-1-1.1
				C22.9,66.8,23.4,66.1,23.5,65.8z"/>
			<path class="st0" d="M27.3,75.7c0.1-0.1,0.1-0.1,0.2-0.2l0.2-0.2c0.3-0.2,0.6-0.5,0.9-0.8c0.6,0.3,1.1,0.5,1.4,0.9
				c0.2,0.3,0.3,0.6,0.1,0.8c0,0-0.1,0.1-0.2,0.1l-0.4,0.4h-0.2c-1.2,0-1.9-0.4-2.1-0.8C27.2,75.9,27.3,75.8,27.3,75.7z"/>
			<path class="st0" d="M38.3,75.3l0.2,0.2c0.1,0.1,0.2,0.1,0.2,0.2c0.1,0.1,0.1,0.3,0,0.4c-0.2,0.4-0.9,0.8-2.1,0.8c0,0,0,0,0,0h0
				h-0.2l-0.4-0.4c0,0-0.1-0.1-0.2-0.2c-0.1-0.1-0.1-0.6,0.1-0.8c0.3-0.4,0.8-0.6,1.4-0.9C37.7,74.8,38.1,75.1,38.3,75.3z"/>
			<path class="st0" d="M23.9,63.4C23.9,63.4,23.9,63.4,23.9,63.4L23.9,63.4z"/>
			<path class="st0" d="M27.8,73.8l-0.1,0c-2.7-1.1-4.9-2.5-5.9-3.8c-1.1-1.4-1-2.6-0.6-3.3l0.4-0.8l0.3-0.7c0,0.4,0,0.8,0.2,1.3
				c0.5,1.3,2.4,2.7,3.8,3.5c0.6,0.3,1.2,0.6,1.8,0.9c1.6,0.7,2.9,1.3,2.9,2.8v1.7c0,0.1,0,0.1,0,0.2c0-0.1-0.1-0.2-0.2-0.3
				C29.8,74.5,28.8,74.2,27.8,73.8z M25.1,70.2c0-0.1,0.1-0.1,0.1-0.2c-0.2-0.1-0.4-0.3-0.6-0.4c0,0-0.1,0.1-0.1,0.2
				c0,0,0.1,0.1,0.1,0.1c-0.2,0.4-0.4,0.8-0.6,1.3c0,0-0.1-0.1-0.1-0.1c0,0-0.1,0.1-0.1,0.2c0.3,0.2,0.7,0.4,1,0.6
				c0.1-0.1,0.2-0.2,0.3-0.4c0,0,0,0,0,0c0,0-0.1-0.1-0.1-0.1c-0.1,0.1-0.2,0.2-0.3,0.2c-0.1,0-0.3-0.1-0.4-0.2c0-0.1,0.4-1,0.6-1.3
				C25,70.1,25.1,70.2,25.1,70.2L25.1,70.2z M23.6,70.3c0.1-0.1,0.2-0.3,0.2-0.4c0,0-0.1-0.1-0.1-0.1c0,0-0.1,0.1-0.1,0.1
				c0,0-0.2-0.2-0.3-0.2c0.1-0.2,0.2-0.4,0.3-0.5c0.1,0.1,0.3,0.2,0.3,0.3c0,0.1-0.1,0.2-0.1,0.3c0,0,0.1,0.1,0.1,0.1
				c0.1-0.1,0.1-0.3,0.2-0.4c-0.3-0.2-0.6-0.5-0.9-0.7c0,0.1-0.1,0.1-0.1,0.2c0,0,0.1,0.1,0.1,0.1c-0.2,0.4-0.4,0.8-0.6,1.2
				c0,0-0.1-0.1-0.1-0.1c0,0.1-0.1,0.1-0.1,0.1c0.3,0.3,0.6,0.5,0.9,0.7c0.1-0.1,0.2-0.3,0.3-0.4c0,0,0,0,0,0c0,0-0.1-0.1-0.1-0.1
				c0,0-0.2,0.2-0.2,0.2c-0.1,0-0.3-0.2-0.4-0.3c0-0.1,0.2-0.4,0.3-0.5c0.1,0.1,0.2,0.1,0.2,0.2c0,0,0,0.1-0.1,0.2
				C23.5,70.2,23.5,70.3,23.6,70.3L23.6,70.3z M28.8,71.9c-0.4-0.2-0.9-0.4-1.3-0.6c-0.1,0.1-0.2,0.3-0.2,0.4c0.1,0,0.1,0.1,0.2,0.1
				c0.1-0.1,0.1-0.2,0.2-0.2c0.1,0,0.2,0.1,0.3,0.1c-0.2,0.4-0.4,0.9-0.6,1.3c-0.1,0-0.1-0.1-0.2-0.1c0,0.1,0,0.1-0.1,0.2
				c0.2,0.1,0.5,0.2,0.7,0.3c0-0.1,0-0.1,0.1-0.2c-0.1,0-0.1-0.1-0.2-0.1c0.2-0.4,0.4-0.9,0.6-1.3c0.1,0,0.2,0.1,0.3,0.2
				c0,0.1-0.1,0.2-0.1,0.3c0,0,0.1,0.1,0.2,0.1C28.7,72.2,28.8,72,28.8,71.9L28.8,71.9z M27.3,71.2c-0.2-0.1-0.4-0.2-0.6-0.3
				c0,0-0.1,0.1-0.1,0.1c0.1,0,0.1,0.1,0.2,0.1c-0.2,0.4-0.5,1.4-1,1.1c-0.3-0.2-0.2-0.5,0-0.8c0.1-0.2,0.2-0.4,0.3-0.6
				c0.1,0,0.1,0.1,0.2,0.1c0-0.1,0-0.1,0.1-0.2c-0.2-0.1-0.4-0.2-0.6-0.3c0,0.1-0.1,0.1-0.1,0.2c0,0,0.1,0,0.1,0.1
				c0,0.1-0.1,0.3-0.2,0.4c-0.2,0.4-0.4,0.8-0.2,1.1c0,0.1,0.1,0.1,0.2,0.2c0.1,0.1,0.3,0.1,0.4,0.1c0.5,0,0.8-0.7,1-1.2
				c0,0,0.1,0,0.1,0.1C27.2,71.3,27.3,71.2,27.3,71.2L27.3,71.2z M23,68.6c0,0,0.1,0.1,0.1,0.1c0-0.1,0-0.1,0.1-0.2
				c-0.1-0.1-0.3-0.3-0.4-0.4c0,0.1-0.1,0.1-0.1,0.2c0,0.1,0.1,0.1,0.2,0.2c-0.1,0.2-0.7,0.8-0.7,0.8c0,0,0,0,0,0
				c0,0,0.2-1.3,0.2-1.4c0,0.1,0.1,0.1,0.1,0.2c0-0.1,0.1-0.1,0.1-0.2c-0.2-0.2-0.3-0.4-0.4-0.6c0,0-0.1,0.1-0.1,0.1
				c0,0,0.1,0.1,0.1,0.1c0,0.2-0.3,1.7-0.3,1.9c0,0.1,0.1,0.1,0.2,0.2C22.2,69.4,22.9,68.7,23,68.6L23,68.6z"/>
			<path class="st0" d="M44.4,69.9c-1,1.3-3.3,2.7-5.9,3.8l-0.1,0c-1.1,0.4-2,0.8-2.5,1.4c-0.1,0.1-0.1,0.2-0.2,0.3
				c0-0.1,0-0.1,0-0.2v-1.7c0-1.4,1.3-2,2.9-2.8c0.6-0.3,1.2-0.5,1.8-0.9c1.4-0.8,3.3-2.2,3.8-3.5c0.2-0.5,0.3-1,0.2-1.3l0.3,0.7
				l0.4,0.8C45.3,67.3,45.5,68.5,44.4,69.9z M38.9,72.1C38.9,72.1,38.8,72.1,38.9,72.1c0-0.3,0-0.5,0.1-0.8c0,0,0,0,0,0
				c0.1,0.2,0.2,0.4,0.3,0.6C39.1,71.9,39,72,38.9,72.1L38.9,72.1z M40.3,71.9c0,0.1,0.1,0.2,0,0.3c0,0.1-0.4,0.3-0.5,0.3
				c-0.1-0.2-0.1-0.3-0.2-0.5c0.1,0,0.4-0.2,0.4-0.2c0,0,0.1,0.1,0.1,0.1c0.1,0,0.1-0.1,0.2-0.1c-0.1-0.2-0.1-0.3-0.2-0.5
				c-0.1,0-0.1,0.1-0.2,0.1c0,0.1,0,0.1,0,0.2c0,0.1-0.3,0.2-0.4,0.2c-0.1-0.2-0.2-0.4-0.3-0.6c0.1-0.1,0.3-0.2,0.5-0.2
				c0.1,0,0.1,0.1,0.2,0.2c0.1,0,0.1-0.1,0.2-0.1c0,0-0.2-0.3-0.2-0.4c-0.3,0.2-0.7,0.4-1.1,0.5c0,0.6-0.1,1.2-0.2,1.8
				c0,0-0.1,0.1-0.1,0.1c0,0.1,0,0.1,0.1,0.2c0.2-0.1,0.4-0.2,0.6-0.2c0-0.1,0-0.1-0.1-0.2c-0.1,0-0.1,0.1-0.2,0.1
				c0-0.2,0-0.4,0-0.6c0.1-0.1,0.3-0.1,0.5-0.2c0.1,0.2,0.2,0.4,0.2,0.5c-0.1,0-0.1,0.1-0.2,0.1c0,0.1,0.1,0.1,0.1,0.2
				c0.4-0.2,0.8-0.4,1.1-0.6c0-0.1-0.1-0.3-0.1-0.4C40.4,71.8,40.3,71.9,40.3,71.9L40.3,71.9z M41.6,69.8c0,0,0.1-0.1,0.1-0.1
				c0-0.1-0.1-0.1-0.1-0.2c-0.2,0.1-0.4,0.2-0.5,0.4c0,0.1,0.1,0.1,0.1,0.2c0.1,0,0.1-0.1,0.2-0.1c0.1,0.3,0.1,1,0.1,1.2
				c0,0.1,0,0.1,0,0.2c0,0,0,0,0,0c0,0-0.2-0.2-0.2-0.2l-0.4-0.5c-0.1-0.1-0.1-0.2-0.2-0.2c0.1,0,0.1-0.1,0.2-0.1
				c0-0.1,0-0.1-0.1-0.2c-0.2,0.1-0.4,0.3-0.7,0.4c0,0.1,0,0.1,0.1,0.2c0,0,0.1,0,0.1-0.1c0.1,0.1,0.2,0.2,0.3,0.3
				c0.2,0.2,0.4,0.4,0.6,0.6c0.1,0.1,0.2,0.2,0.3,0.3c0.1,0,0.1-0.1,0.2-0.1c0-0.4-0.1-0.8-0.1-1.3C41.6,70.2,41.6,70,41.6,69.8
				L41.6,69.8z M43.2,70.4c-0.4,0.3-0.8-0.2-0.9-0.6c0-0.2,0-0.4,0.1-0.6c0,0,0.1-0.1,0.1-0.1c0.1-0.1,0.2-0.1,0.3-0.1
				C43.2,69,43.6,70,43.2,70.4L43.2,70.4z M43.3,69c-0.2-0.2-0.5-0.3-0.9,0c-0.1,0.1-0.1,0.1-0.2,0.2c-0.2,0.2-0.2,0.4-0.2,0.6
				c0,0.1,0,0.2,0,0.3c0,0.1,0.1,0.3,0.2,0.4c0.2,0.3,0.5,0.4,0.9,0.3C43.7,70.4,43.8,69.4,43.3,69L43.3,69z"/>
			<path class="st0" d="M39,76.4C39,76.4,39,76.4,39,76.4l0,2.4c0,0.7-1.2,1-2.3,1h-7.3c-1.1,0-2.3-0.3-2.3-1v-2.4c0,0,0,0,0-0.1
				c0.4,0.5,1.3,0.8,2.3,0.8h7.3h0C37.7,77.2,38.6,76.8,39,76.4z M36.6,78.5c0-0.2,0-0.5,0-0.7c0.1,0,0.2,0,0.3,0
				c0.2,0.1,0.3,0.4,0.1,0.5C36.9,78.5,36.8,78.5,36.6,78.5L36.6,78.5z M37.4,79c-0.1-0.1-0.2-0.4-0.3-0.5c0,0,0,0,0,0
				c0.3-0.1,0.5-0.6,0.2-0.8c-0.2-0.2-0.7-0.1-1.1-0.1c0,0.1,0,0.1,0,0.2v0c0.1,0,0.1,0,0.2,0v1.4c-0.1,0-0.1,0-0.2,0
				c0,0.1,0,0.1,0,0.2v0h0.7c0-0.1,0-0.1,0-0.2c-0.1,0-0.1,0-0.2,0c0-0.2,0-0.4,0-0.5c0.1,0,0.2,0,0.2,0c0.2,0.1,0.3,0.6,0.4,0.7
				c0,0,0.4,0,0.4,0l0-0.2c-0.1,0-0.1,0-0.2,0C37.4,79.1,37.4,79.1,37.4,79L37.4,79z M33.3,79c0,0.1-0.2,0.2-0.3,0.2
				c-0.1,0-0.2,0-0.2,0c0,0,0-0.1,0-0.1c0-0.1,0-0.4,0-0.5C33.1,78.5,33.4,78.6,33.3,79L33.3,79z M32.8,77.8c0.2,0,0.3,0,0.4,0.1
				c0,0,0.1,0.1,0,0.2c0,0.2-0.2,0.3-0.5,0.3C32.8,78.2,32.8,78,32.8,77.8L32.8,77.8z M33.3,78.4L33.3,78.4L33.3,78.4
				c0.3-0.1,0.5-0.5,0.1-0.7c-0.2-0.1-0.7-0.1-1.1-0.1v0.2c0.1,0,0.1,0,0.2,0v1.4c-0.1,0-0.1,0-0.2,0c0,0.1,0,0.1,0,0.2
				c0.4,0,0.9,0.1,1.1-0.1c0.2-0.1,0.3-0.4,0.2-0.6C33.5,78.5,33.4,78.5,33.3,78.4L33.3,78.4z M31,78.5c0-0.2,0-0.5,0-0.7
				c0.1,0,0.2,0,0.3,0c0.2,0.1,0.3,0.4,0.1,0.5C31.3,78.5,31.2,78.5,31,78.5L31,78.5z M31.8,79c-0.1-0.1-0.2-0.4-0.3-0.5
				c0,0,0,0,0,0c0.3-0.1,0.5-0.6,0.2-0.8c-0.2-0.2-0.7-0.1-1.1-0.1c0,0.1,0,0.1,0,0.2v0c0.1,0,0.1,0,0.2,0v1.4c-0.1,0-0.1,0-0.2,0
				c0,0.1,0,0.1,0,0.2v0h0.7c0-0.1,0-0.1,0-0.2c-0.1,0-0.1,0-0.2,0c0-0.2,0-0.4,0-0.5c0.1,0,0.2,0,0.2,0c0.2,0.1,0.3,0.6,0.4,0.7
				c0,0,0.4,0,0.4,0l0-0.2c-0.1,0-0.1,0-0.2,0C31.8,79.1,31.8,79.1,31.8,79L31.8,79z M29.1,78.7c0.1-0.2,0.2-0.5,0.2-0.7
				c0,0,0,0,0,0l0.2,0.7H29.1L29.1,78.7z M29.5,77.6c-0.1,0-0.2,0-0.2,0c-0.2,0.5-0.4,1.1-0.6,1.6c0,0-0.1,0-0.2,0v0.2h0.6v-0.2
				c-0.1,0-0.1,0-0.2,0c0-0.1,0.1-0.2,0.1-0.3c0.2,0,0.4,0,0.6,0c0,0.1,0.1,0.2,0.1,0.3c-0.1,0-0.1,0-0.2,0v0.2h0.7v-0.2
				c-0.1,0-0.1,0-0.2,0C29.9,78.6,29.7,78.1,29.5,77.6L29.5,77.6z M35,79.2c-0.5,0.1-0.6-0.5-0.5-0.9c0-0.2,0.1-0.4,0.3-0.5
				c0,0,0.1,0,0.1,0c0.1,0,0.2,0,0.3,0.1C35.5,78.1,35.5,79.1,35,79.2L35,79.2z M34.9,77.6c-0.1,0-0.1,0-0.2,0
				c-0.2,0.1-0.4,0.2-0.5,0.4c0,0.1-0.1,0.2-0.1,0.3c0,0.1,0,0.3,0,0.4c0.1,0.4,0.3,0.6,0.7,0.7c0.7,0.1,1.2-0.7,0.9-1.3
				C35.6,77.8,35.3,77.6,34.9,77.6L34.9,77.6z"/>
			<path class="st0" d="M45.4,50.1c0,0,0,0.1,0,0.1c0,0.1,0,0.1,0,0.1H20.7c0,0,0-0.1,0-0.1c0-0.1,0-0.1,0-0.1H45.4z M45.4,50.1
				c0-4.3,0-9.4,0-9.4H33l0,0h0H20.7c0,0,0,5.1,0,9.4 M31.2,46.9c0.1,0,0.3,0.1,0.3,0.3c0,0.1-0.1,0.3-0.3,0.3
				c-0.1,0-0.3-0.1-0.3-0.3C30.9,47,31.1,46.9,31.2,46.9L31.2,46.9z M29.4,47.5c0.1-0.1,0.3,0,0.4,0.1c0.1,0.1,0,0.3-0.1,0.3
				c-0.1,0.1-0.3,0-0.4-0.1C29.2,47.7,29.2,47.5,29.4,47.5L29.4,47.5z M30.3,47.2c0.1,0,0.1,0.1,0.1,0.1c0,0.1-0.1,0.1-0.1,0.1
				c-0.1,0-0.1-0.1-0.1-0.1C30.2,47.3,30.3,47.2,30.3,47.2L30.3,47.2z M32.1,46.9c0.1,0,0.1,0.1,0.1,0.1c0,0.1-0.1,0.1-0.1,0.1
				C32,47.2,32,47.1,32,47C32,46.9,32,46.9,32.1,46.9L32.1,46.9z M35.1,47.1c0,0.1-0.1,0.3-0.3,0.3c-0.1,0-0.3-0.1-0.3-0.3
				c0-0.1,0.1-0.3,0.3-0.3C35,46.9,35.1,47,35.1,47.1L35.1,47.1z M36.8,47.8c-0.1,0.1-0.2,0.2-0.4,0.1c-0.1-0.1-0.2-0.2-0.1-0.3
				c0.1-0.1,0.2-0.2,0.4-0.1C36.8,47.5,36.9,47.7,36.8,47.8L36.8,47.8z M35.9,47.3c0,0.1-0.1,0.1-0.1,0.1c-0.1,0-0.1-0.1-0.1-0.1
				c0-0.1,0.1-0.1,0.1-0.1C35.8,47.2,35.9,47.3,35.9,47.3L35.9,47.3z M34.1,47c0,0.1-0.1,0.1-0.1,0.1c-0.1,0-0.1-0.1-0.1-0.1
				c0-0.1,0.1-0.1,0.1-0.1C34,46.9,34.1,46.9,34.1,47L34.1,47z M33,43.8c0.1,0,0.3,0.1,0.3,0.3c0,0.1-0.1,0.3-0.3,0.3
				c-0.1,0-0.3-0.1-0.3-0.3C32.8,43.9,32.9,43.8,33,43.8L33,43.8z M33,43.1c0.1,0,0.3,0.1,0.3,0.3c0,0.1-0.1,0.3-0.3,0.3
				c-0.1,0-0.3-0.1-0.3-0.3C32.8,43.2,32.9,43.1,33,43.1L33,43.1z M33,42.4c0.1,0,0.3,0.1,0.3,0.3c0,0.1-0.1,0.3-0.3,0.3
				c-0.1,0-0.3-0.1-0.3-0.3C32.8,42.5,32.9,42.4,33,42.4L33,42.4z M31.8,42.4c0.1,0,0.3,0.1,0.3,0.3c0,0.1-0.1,0.3-0.3,0.3
				c-0.1,0-0.3-0.1-0.3-0.3C31.5,42.6,31.6,42.4,31.8,42.4L31.8,42.4z M30.9,42.2c0.1,0,0.3,0.1,0.3,0.3c0,0.1-0.1,0.3-0.3,0.3
				c-0.1,0-0.3-0.1-0.3-0.3C30.6,42.3,30.8,42.2,30.9,42.2L30.9,42.2z M30,42c0.1,0,0.3,0.1,0.3,0.3c0,0.1-0.1,0.3-0.3,0.3
				c-0.1,0-0.3-0.1-0.3-0.3C29.8,42.1,29.9,42,30,42L30,42z M29.1,42.1c0.1,0,0.3,0.1,0.3,0.3s-0.1,0.3-0.3,0.3
				c-0.1,0-0.3-0.1-0.3-0.3S29,42.1,29.1,42.1L29.1,42.1z M28.3,42.6c0.1,0,0.3,0.1,0.3,0.3c0,0.1-0.1,0.3-0.3,0.3
				c-0.1,0-0.3-0.1-0.3-0.3C28.1,42.7,28.2,42.6,28.3,42.6L28.3,42.6z M27.9,43.4c0.1,0,0.3,0.1,0.3,0.3c0,0.1-0.1,0.3-0.3,0.3
				c-0.1,0-0.3-0.1-0.3-0.3C27.6,43.5,27.7,43.4,27.9,43.4L27.9,43.4z M27.9,44.3c0.1,0,0.3,0.1,0.3,0.3c0,0.1-0.1,0.3-0.3,0.3
				c-0.1,0-0.3-0.1-0.3-0.3C27.6,44.4,27.8,44.3,27.9,44.3L27.9,44.3z M28.2,45.1c0.1,0,0.3,0.1,0.3,0.3c0,0.1-0.1,0.3-0.3,0.3
				c-0.1,0-0.3-0.1-0.3-0.3C28,45.2,28.1,45.1,28.2,45.1L28.2,45.1z M34.6,42.7c0,0.1-0.1,0.3-0.3,0.3c-0.1,0-0.3-0.1-0.3-0.3
				c0-0.1,0.1-0.3,0.3-0.3C34.4,42.4,34.6,42.6,34.6,42.7L34.6,42.7z M35.4,42.4c0,0.1-0.1,0.3-0.3,0.3c-0.1,0-0.3-0.1-0.3-0.3
				c0-0.1,0.1-0.3,0.3-0.3C35.3,42.2,35.4,42.3,35.4,42.4L35.4,42.4z M36.3,42.2c0,0.1-0.1,0.3-0.3,0.3c-0.1,0-0.3-0.1-0.3-0.3
				c0-0.1,0.1-0.3,0.3-0.3C36.2,42,36.3,42.1,36.3,42.2L36.3,42.2z M37.2,42.3c0,0.1-0.1,0.3-0.3,0.3c-0.1,0-0.3-0.1-0.3-0.3
				s0.1-0.3,0.3-0.3C37.1,42.1,37.2,42.2,37.2,42.3L37.2,42.3z M38,42.8c0,0.1-0.1,0.3-0.3,0.3c-0.1,0-0.3-0.1-0.3-0.3
				c0-0.1,0.1-0.3,0.3-0.3C37.9,42.6,38,42.7,38,42.8L38,42.8z M38.4,43.6c0,0.1-0.1,0.3-0.3,0.3c-0.1,0-0.3-0.1-0.3-0.3
				c0-0.1,0.1-0.3,0.3-0.3C38.3,43.4,38.4,43.5,38.4,43.6L38.4,43.6z M38.4,44.5c0,0.1-0.1,0.3-0.3,0.3c-0.1,0-0.3-0.1-0.3-0.3
				c0-0.1,0.1-0.3,0.3-0.3C38.3,44.3,38.4,44.4,38.4,44.5L38.4,44.5z M38.1,45.4c0,0.1-0.1,0.3-0.3,0.3c-0.1,0-0.3-0.1-0.3-0.3
				c0-0.1,0.1-0.3,0.3-0.3C38,45.1,38.1,45.2,38.1,45.4L38.1,45.4z M35.5,49.6c0,0,0.2-0.1,0.2-0.1c0.5-0.3,0.7-0.6,0.7-0.8
				c0-0.5-1.5-1-3.5-1c-2,0-3.5,0.5-3.5,1c0,0.2,0.2,0.6,0.8,0.8c0,0,0.2,0.1,0.2,0.1c0,0-0.2,0-0.3,0c-0.6-0.2-1-0.5-1-0.9
				c0-0.8,1.9-1.3,3.8-1.3c1.8,0,3.8,0.4,3.8,1.3c0,0.4-0.4,0.7-1,0.9C35.8,49.5,35.5,49.6,35.5,49.6L35.5,49.6z M33,46.6
				c-1.2,0-2.3,0.2-3,0.5c-0.4,0.1-0.6,0.3-0.7,0.4c0,0-0.1,0-0.1,0c-0.1,0-0.1-0.1-0.1-0.2c0-0.2-0.1-0.6-0.4-1.2
				c0-0.1,0-0.1,0.1-0.1c0.2,0.2,0.5,0.8,0.6,1c0,0,0,0,0,0s0,0,0,0c0.2-0.1,0.3-0.2,0.6-0.3c0.8-0.3,1.9-0.5,3.1-0.5h0
				c1.2,0,2.3,0.2,3.1,0.5c0.3,0.1,0.4,0.2,0.6,0.3c0,0,0,0,0,0s0,0,0,0c0-0.2,0.4-0.8,0.6-1c0-0.1,0.1,0,0.1,0.1
				c-0.3,0.5-0.4,1-0.4,1.2c0,0.1,0,0.1-0.1,0.2c0,0-0.1,0-0.1,0c-0.2-0.1-0.4-0.2-0.7-0.4C35.3,46.7,34.2,46.6,33,46.6L33,46.6
				L33,46.6z M33.6,41.7c0,0.1-0.1,0.1-0.1,0.1h-0.3v0.3c0,0.1-0.1,0.1-0.1,0.1c-0.1,0-0.1-0.1-0.1-0.1v-0.3h-0.3
				c-0.1,0-0.1-0.1-0.1-0.1c0-0.1,0.1-0.1,0.1-0.1h0.3v-0.3c0-0.1,0.1-0.1,0.1-0.1c0.1,0,0.1,0.1,0.1,0.1v0.3h0.3
				C33.5,41.5,33.6,41.6,33.6,41.7z M33,48.1c1,0,3,0.2,3,0.8c0,0.6-2,0.8-3,0.8c-1,0-3-0.2-3-0.8C30,48.2,32,48.1,33,48.1z
				 M37.8,44c0,0.8-0.6,1.7-0.9,2.1l0,0l0,0l0,0c-0.1,0.3-0.5,0.5-0.9,0.3c-0.2-0.1-0.4-0.1-0.6-0.4c-0.1-0.1-0.1-0.3,0-0.5
				c0,0,0.1-0.1,0.2-0.1c0,0,0.1,0.1,0,0.2c-0.1,0.1,0,0.2,0.1,0.3c0.1,0,0.2,0,0.2,0c0,0-0.2-0.1,0-0.2c0.1-0.1,0.4-0.4,0-0.5
				c-0.3-0.1-0.5,0.3-0.6,0.3c0,0.1-0.1,0-0.1,0c0.1-0.3,0.3-0.4,0.4-0.7c0-0.2-0.1-0.4-0.2-0.5c0,0-0.1,0-0.1,0
				c-0.1,0-0.3,0.2-0.4,0.4c-0.1,0.3,0.1,0.5,0.1,0.8c0,0.1-0.1,0.1-0.1,0c0-0.1-0.1-0.5-0.4-0.5c-0.4,0-0.3,0.4-0.2,0.5
				c0.1,0.2-0.1,0.2-0.1,0.2c0,0,0.1,0.1,0.2,0.1c0.1,0,0.2-0.1,0.2-0.2c0-0.1,0-0.1,0.1-0.1c0.1,0,0.1,0.1,0.1,0.1
				c0.1,0.2,0,0.4-0.2,0.4c-0.2,0.2-0.5,0.2-0.7,0.1c-0.6-0.1-0.6-0.4-0.6-0.4c0.1,0.1,0.4,0.1,0.4,0.1c0,0,0,0,0,0
				c0,0,0.1,0,0.1-0.1v-0.6c0,0,0-0.1-0.1-0.1c0,0,0,0,0,0l-0.4,0.2l0.1-0.3c0,0,0,0,0,0c0-0.1,0-0.1-0.1-0.1l-0.3,0l-0.3,0
				c-0.1,0-0.1,0-0.1,0.1c0,0,0,0,0,0l0.1,0.3l-0.4-0.2c0,0,0,0,0,0c-0.1,0-0.1,0-0.1,0.1v0.6c0,0,0,0.1,0.1,0.1c0,0,0,0,0,0
				c0,0,0.3-0.1,0.4-0.1c0,0,0,0.4-0.6,0.4c-0.2,0-0.5,0-0.7-0.1c-0.1-0.1-0.2-0.2-0.2-0.4c0-0.1,0.1-0.2,0.1-0.1
				c0,0,0.1,0.1,0.1,0.1c0,0.1,0.1,0.2,0.2,0.2c0.1,0,0.2-0.1,0.2-0.1c0,0-0.2,0-0.1-0.2c0.1-0.1,0.2-0.5-0.2-0.5
				c-0.3,0-0.4,0.4-0.4,0.5c0,0.1,0,0.1-0.1,0c-0.1-0.3,0.1-0.5,0.1-0.8c0-0.2-0.3-0.3-0.4-0.4c0,0-0.1,0-0.1,0
				c-0.1,0.1-0.3,0.3-0.2,0.5c0.1,0.3,0.3,0.4,0.4,0.7c0,0.1,0,0.1-0.1,0c0-0.1-0.3-0.5-0.6-0.3c-0.4,0.2-0.1,0.5,0,0.5
				c0.1,0.1,0,0.2,0,0.2c0,0,0.1,0.1,0.2,0c0.1-0.1,0.2-0.2,0.1-0.3c0-0.1,0-0.1,0-0.2c0,0,0.2,0,0.2,0.1c0.1,0.2,0.1,0.3,0,0.5
				c-0.1,0.2-0.3,0.3-0.6,0.4c-0.4,0.1-0.7-0.1-0.9-0.3l0,0l0,0l0,0c-0.3-0.4-0.9-1.2-0.9-2.1c0-0.8,0.7-1.4,1.6-1.4
				c0.4,0,0.8,0.1,1.2,0.3c0.4,0.1,0.8,0.3,1.2,0.2v-0.8c0-0.1,0.1-0.1,0.1-0.1c0.1,0,0.1,0.1,0.1,0.1v2.1h1v-2.1
				c0-0.1,0.1-0.1,0.1-0.1c0.1,0,0.1,0.1,0.1,0.1v0.8c0.4,0,0.8-0.1,1.2-0.2c0.4-0.1,0.7-0.3,1.2-0.3C37.1,42.7,37.8,43.3,37.8,44z
				 M33,49.4c1.8,0,2.7-0.4,2.7-0.5c0-0.2-0.9-0.5-2.7-0.5c-1.8,0-2.7,0.4-2.7,0.5C30.3,49,31.2,49.4,33,49.4z M32.2,43.5
				c-0.1,0-0.2,0-0.3,0c0.1,0,0.2,0.1,0.3,0.1V43.5z M37.3,44.7c0.1-0.2,0.1-0.4,0.1-0.6c0-0.6-0.6-1.1-1.3-1.1
				c-0.4,0-0.7,0.1-1.1,0.3c-0.1,0.1-0.3,0.1-0.4,0.1c0,0,0.1,0,0.1,0c0.5,0,1,0.2,1.2,0.4c0.5,0,0.9,0.1,1.2,0.5
				C37.3,44.4,37.3,44.5,37.3,44.7z M33.8,43.5v0.2c0.1-0.1,0.2-0.1,0.3-0.1C34,43.5,33.9,43.5,33.8,43.5z M36.9,44.4
				c-0.2-0.2-0.5-0.4-1-0.4c0,0-0.1,0-0.1-0.1c-0.1-0.2-0.5-0.4-1-0.4c-0.2,0-0.7,0-0.9,0.4c0,0,0,0,0,0v0.4
				c0.1-0.1,0.3-0.2,0.4-0.3c0,0,0.2-0.1,0.3-0.1c0.1,0,0.2,0,0.2,0.1c0,0-0.2,0.1-0.4,0.3c-0.1,0.1-0.3,0.3-0.4,0.4
				c0.1,0,0.2,0,0.2,0.1c0.1-0.1,0.2-0.2,0.4-0.2c0,0,0.1,0,0.1,0c0,0,0,0,0-0.1c0.1-0.4,0.5-0.6,0.7-0.6c0.1,0,0.2,0,0.2,0
				c0.2,0.1,0.4,0.4,0.4,0.7c0,0,0,0.1,0,0.1c0,0,0,0,0,0.1c0,0,0.1,0,0.1,0c0.3,0.1,0.3,0.3,0.4,0.4c0,0,0,0,0,0.1
				c0,0.2-0.1,0.3-0.2,0.4c0,0,0,0,0,0c0,0,0,0.1,0,0.1c0,0.1,0,0.2-0.1,0.2c0,0,0,0,0.1,0c0.2-0.1,0.4-0.2,0.5-0.5
				c0.2-0.6-0.5-1.1-0.4-1.2c0,0,0.1,0,0.1,0c0.3,0.2,0.7,0.5,0.6,1c0-0.1,0.1-0.1,0.1-0.2c0,0,0,0,0,0
				C37.1,45.1,37.1,44.7,36.9,44.4z M31.4,43.4c-0.1,0-0.3-0.1-0.4-0.1c-0.4-0.1-0.7-0.3-1.1-0.3c-0.8,0-1.3,0.5-1.3,1.1
				c0,0.2,0.1,0.4,0.1,0.6c0-0.1,0.1-0.3,0.2-0.4c0.2-0.3,0.6-0.5,1.2-0.5c0.2-0.3,0.7-0.4,1.2-0.4C31.3,43.3,31.3,43.3,31.4,43.4z
				 M33.3,47c0,0.1-0.1,0.3-0.3,0.3c-0.1,0-0.3-0.1-0.3-0.3c0-0.1,0.1-0.3,0.3-0.3C33.2,46.7,33.3,46.8,33.3,47z M32.2,44
				C32.2,44,32.2,44,32.2,44c-0.3-0.3-0.7-0.4-1-0.4c-0.5,0-0.9,0.2-1,0.4c0,0-0.1,0.1-0.1,0.1c-0.5,0-0.8,0.1-1,0.4
				c-0.2,0.3-0.2,0.7-0.1,0.8c0,0,0,0,0,0c0,0.1,0.1,0.2,0.1,0.2c0-0.5,0.3-0.9,0.6-1c0,0,0.1,0,0.1,0c0.1,0.1-0.6,0.6-0.4,1.2
				c0.1,0.4,0.3,0.5,0.5,0.5l0,0c-0.1-0.1-0.1-0.2-0.1-0.2c0,0,0-0.1,0-0.1c0,0,0,0,0,0c-0.1-0.1-0.2-0.3-0.2-0.4c0,0,0,0,0-0.1
				c0-0.1,0.1-0.3,0.4-0.4c0,0,0.1,0,0.1,0c0,0,0,0,0-0.1c0,0,0-0.1,0-0.1c0-0.3,0.2-0.6,0.4-0.7c0,0,0.1-0.1,0.2,0
				c0.2,0.1,0.6,0.2,0.7,0.6c0,0,0,0,0,0.1c0,0,0.1,0,0.1,0c0.2,0,0.3,0.1,0.4,0.2c0-0.1,0.1-0.1,0.2-0.1c-0.1-0.1-0.2-0.2-0.4-0.4
				c-0.2-0.1-0.4-0.2-0.4-0.3c0,0,0.1-0.1,0.2-0.1c0.1,0,0.2,0.1,0.3,0.1c0.2,0.1,0.3,0.2,0.4,0.3V44z"/>
			<g>
				<path class="st0" d="M46.2,40H20v13.2c0,3.9,1.1,7.2,2.6,10.1c-0.4,0.2-0.8,0.5-1.2,1.3l-0.5,1l-0.4,0.8
					c-0.1,0.3-0.3,0.8-0.3,1.4c0,0.9,0.3,1.7,1,2.6c1.1,1.4,3.4,2.9,6.2,4c0,0,0.2,0.1,0.4,0.2c-0.2,0.2-0.5,0.4-0.5,0.4L27.2,75
					c0,0-0.2,0.2-0.2,0.2c0,0-0.1,0.1-0.1,0.1c-0.3,0.3-0.4,0.7-0.4,1.2v2.4c0,1,1.1,1.6,2.9,1.6h7.3c1.8,0,2.9-0.6,2.9-1.6v-2.4
					c0-0.5-0.1-0.9-0.4-1.2c0,0-0.1-0.1-0.1-0.1C39,75.1,39,75,38.9,75c0,0,0,0,0,0s-0.4-0.4-0.7-0.6c0.2-0.1,0.4-0.2,0.4-0.2
					c2.8-1.1,5.1-2.6,6.2-4c0.7-0.8,1-1.7,1-2.6c0-0.6-0.2-1.1-0.3-1.4l-0.4-0.8l-0.5-1c-0.3-0.6-0.7-1-1.2-1.2
					c1.6-2.8,2.7-6.2,2.7-10.1V40z M44.4,64.7l0.5,1l0.4,0.8c0.1,0.3,0.3,0.7,0.3,1.3c0,0.8-0.3,1.6-1,2.4c-1.1,1.3-3.3,2.8-6,3.9
					l-0.9,0.4l1.1,0.9c0,0,0.2,0.1,0.2,0.1c0,0,0,0.1,0,0.1c0.2,0.3,0.4,0.6,0.4,1v2.4c0,0.8-1,1.3-2.6,1.3h-7.3
					c-1.6,0-2.6-0.5-2.6-1.3v-2.4c0-0.4,0.1-0.7,0.3-1c0,0,0.1-0.1,0.1-0.1c0,0,0.2-0.1,0.2-0.1l0.2-0.2c0,0,0.8-0.7,0.8-0.7
					L27.5,74c-2.7-1.1-5-2.5-6-3.9c-0.6-0.8-1-1.6-1-2.4c0-0.5,0.2-1,0.3-1.3l0.4-0.8l0.5-1c0.4-0.7,0.7-1,1.1-1.1
					c0,0.1,0.1,0.2,0.1,0.3c-0.2,0.1-0.4,0.3-0.6,0.5c-0.2,0.3-0.3,0.6-0.3,0.9c0,0.3,0.1,0.7,0.2,1l0.2,0.5c0,0,0.8-1.2,1.1-1.5
					c0,0.1,0.1,0.2,0.1,0.2c0.1,0.2,0.3,0.4,0.6,0.6c0,0,0.1,0,0.2,0c0.2,0.3,0.4,0.5,0.6,0.8c-0.4,0.6-1,1.4-1,1.4l0.2,0.2
					c0.8,0.7,1.6,1.1,1.8,1.2c0.6,0.3,1.2,0.6,1.8,0.9c0.5,0.2,1.1,0.5,1.5,0.8c0.4,0.3,0.7,0.6,1,0.8c0.3,0.4,0.5,0.9,0.5,1.5v1.7
					c0,0.6-0.2,0.8-0.4,1.1L30,76.8h6.1l-0.4-0.5c-0.2-0.2-0.4-0.5-0.4-1.1v-1.7c0-0.5,0.1-0.9,0.4-1.3c0.4-0.3,0.9-0.7,1.4-1.1
					c0.4-0.2,0.8-0.4,1.3-0.6c0.6-0.3,1.2-0.5,1.8-0.9c0.6-0.3,1.2-0.8,1.8-1.2l0.2-0.2c0,0-0.6-0.8-1-1.4c0.2-0.3,0.4-0.6,0.6-0.8
					c0,0,0,0,0.1,0c0.3-0.1,0.5-0.3,0.6-0.6c0,0,0-0.1,0.1-0.2c0.2,0.4,1.1,1.5,1.1,1.5l0.2-0.5c0.1-0.4,0.2-0.7,0.2-1
					c0-0.4-0.1-0.7-0.3-0.9c-0.1-0.2-0.3-0.4-0.5-0.5c0-0.1,0.1-0.1,0.1-0.2C43.8,63.8,44.2,64.2,44.4,64.7z M25.1,67.1
					c1.1,1.3,2.2,2.5,3.2,3.4c-0.2-0.1-0.3-0.1-0.5-0.2c-0.6-0.3-1.2-0.5-1.7-0.9c-0.2-0.1-1-0.6-1.8-1.2
					C24.4,68.1,24.8,67.6,25.1,67.1z M35.4,76.5c-0.6,0-4.2,0-4.8,0c0.2-0.2,0.4-0.6,0.4-1.3v-1.7c0-0.4-0.1-0.7-0.2-1
					c1.1,0.8,1.8,1.2,1.8,1.2l0.3,0.2l0.3-0.2c0,0,0.7-0.4,1.7-1.1C35,73,35,73.3,35,73.6v1.7C35,76,35.2,76.3,35.4,76.5z
					 M37.9,70.4c1-0.9,2.1-2,3.1-3.3l0.7,1.1c-0.6,0.5-1.2,0.9-1.8,1.2c-0.6,0.3-1.2,0.6-1.7,0.9C38.1,70.3,38,70.4,37.9,70.4z
					 M40.8,66.9c-1.3,1.7-2.7,3-3.9,4.1l-1.4,1.2c-1.3,1-2.1,1.5-2.2,1.5c0,0-0.1,0.1-0.2,0.1c-0.1,0-0.2-0.1-0.2-0.1
					c0,0-1-0.6-2.3-1.6l-1.1-0.9c-1.3-1.1-2.7-2.5-4.1-4.2l-0.2-0.2c-0.1-0.2-0.2-0.3-0.4-0.5l-0.2-0.3c-0.4-0.6-0.8-1.2-1.2-1.8
					l-0.2-0.3c0-0.1-0.1-0.2-0.1-0.2l-0.2-0.3c-1.5-2.8-2.6-6.1-2.6-10c0,0,0-12.6,0-12.9c0.3,0,25.3,0,25.6,0c0,0.3,0,12.9,0,12.9
					c0,3.9-1.1,7.2-2.6,10l-0.2,0.3c0,0.1-0.1,0.1-0.1,0.2L42.8,64c-0.1,0.2-0.3,0.4-0.4,0.6l-0.1,0.1c-0.2,0.4-0.5,0.7-0.7,1.1
					l-0.2,0.3c-0.1,0.2-0.3,0.3-0.4,0.5L40.8,66.9z"/>
			</g>
			<path class="st0" d="M25.5,28.4c-0.1,0.1-0.1,0.2-0.2,0.2c-0.1,0-0.2-0.2-0.2-0.3c0,0,0.6-0.3,0.6-0.2c0,0-0.1,0.2-0.1,0.2
				S25.5,28.3,25.5,28.4z"/>
			<path class="st0" d="M27.9,24.3L27.9,24.3c0.1,0.1,0.4,0.3,0.4,0.4c0,0,0,0.2-0.1,0.3c0,0-0.1,0-0.1,0s-0.1-0.5,0-0.4
				C28.1,24.7,28,24.5,27.9,24.3z"/>
			<path class="st0" d="M32.5,21.8c0-0.1,0-0.3,0-0.3s0.3,0.5,0.3,0.6c0,0.1-0.2,0.1-0.2,0.2c-0.1,0.1-0.1,0.2-0.1,0.2l-0.1-0.1
				C32.4,22.3,32.5,22,32.5,21.8z"/>
			<path class="st0" d="M28.8,23.4c0.1,0.1,0.6,0.2,0.6,0.2c0,0,0,0.1,0,0.2c-0.1,0.1-0.2-0.1-0.3-0.2
				C28.9,23.5,28.8,23.5,28.8,23.4C28.8,23.5,28.7,23.4,28.8,23.4"/>
			<path class="st0" d="M37.6,23.1c-0.1,0.1-0.3,0.4-0.3,0.4c0,0,0.1,0,0.1,0s0.4-0.3,0.4-0.4C37.9,23,37.6,23.1,37.6,23.1z"/>
		</g>
	</g>
</g>
<g id="Logo">
</g>
</svg>
